<?xml version="1.0" encoding="UTF-8" standalone="no"?>
<!DOCTYPE svg PUBLIC "-//W3C//DTD SVG 1.1//EN" "http://www.w3.org/Graphics/SVG/1.1/DTD/svg11.dtd">
<svg width="100%" height="100%" viewBox="0 0 2728 305" version="1.1" xmlns="http://www.w3.org/2000/svg" xmlns:xlink="http://www.w3.org/1999/xlink" xml:space="preserve" xmlns:serif="http://www.serif.com/" style="fill-rule:evenodd;clip-rule:evenodd;stroke-linejoin:round;stroke-miterlimit:2;">
    <g transform="matrix(1,0,0,1,-45,-1028.373236)">
        <g id="layer_4.webp" transform="matrix(2.664062,0,0,2.664062,45,1024)">
            <path d="M824.5,115.999L823.5,115.999C823.465,115.631 823.371,115.708 822.417,111.508C821.694,109.819 822.105,109.577 820.386,108.736C819.619,106.939 819.374,106.672 817.503,107.556C814.841,108.157 814.667,107.6 812.699,109.656C811.608,111.244 811.632,111.066 811.532,111.558C809.848,111.568 810.018,111.556 808.458,110.79C806.36,110.928 806.509,111.013 804.511,111.675C803.169,111.82 800.704,111.659 798.369,112.197C794.569,113.073 796.007,109.893 792.439,108.219C791.386,109.349 791.47,109.259 791.386,109.349C789.536,111.326 782.883,111.289 788.158,107.192C790.795,105.723 791.381,106.13 791.457,104.534C791.472,104.207 791.484,103.95 787.38,104.763L785.478,104.804C788.814,101.456 788.26,100.193 784.13,97.929L783.412,97.618C781.777,97.348 780.143,97.078 778.508,96.808C777.071,97.476 763.83,103.633 758.705,96.392C758.457,95.733 760.533,95.648 760.285,94.989C760.285,94.989 757.729,94.535 757.507,94.496C755.519,91.668 755.016,92.765 751.499,92.502C750.989,89.643 752.004,89.15 749.474,87.529C751.331,84.147 750.984,84.112 752.846,80.64C757.693,73.554 757.7,73.757 764.205,68.287C768.445,64.402 770.623,61.89 771.139,61.295C778.302,64.838 778.181,64.509 785.532,67.382C790.691,69.088 824.051,80.121 851.463,83.698C852.146,83.95 857.917,86.071 860.5,84.771C863.723,83.148 862.055,81.121 865.588,80.098C867.223,80.107 868.859,80.116 870.494,80.125C870.907,80.155 882.906,82.784 879.275,77.901C874.378,76.439 872.836,74.983 876.554,71.229C878.19,71.454 879.826,71.679 881.462,71.904L882.463,71.914C892.127,76.849 891.963,77.763 891.414,78.46C886.606,84.549 892.926,83.313 902.604,84.234C903.012,82.439 902.992,82.504 904.522,81.568C905.154,81.835 905.786,82.102 906.418,82.369C906.713,82.33 921.078,77.222 927.601,82.657C927.26,82.98 926.918,83.303 926.576,83.626C923.141,84.666 923.448,85.138 922.408,88.462C920.257,90.753 921.583,91.325 919.599,93.627C919.225,93.906 918.851,94.186 918.477,94.465C917.821,94.815 917.166,95.165 916.511,95.514C915.692,96.389 915.775,96.265 915.481,97.502C914.77,97.883 914.824,97.751 910.594,98.208C908.772,97.902 908.908,98.097 907.292,98.813L906.419,98.664L903.569,98.347C903.174,98.186 902.779,98.026 902.385,97.866C900.941,98.43 899.782,97.016 897.538,100.514C895.433,102.38 895.925,103.097 898.54,104.47C898.882,106.735 899.42,106.787 897.899,108.599C896.3,110.506 897.448,110.578 899.564,111.874C885.48,113.675 885.384,111.168 878.684,112.981C873.964,114.86 873.641,115.554 869.446,112.555C869.152,109.653 869.428,108.95 866.473,108.626C863.194,108.074 864.001,107.049 863,105.938C865.018,101.451 872.452,100.981 867.466,100.651C866.897,100.614 867.204,101.57 860.417,101.731C857.673,102.437 857.421,103.653 855.384,101.564C855.224,100.02 854.971,99.925 853.414,100.228C847.597,102.145 848.401,103.317 842.743,105.982C841.238,106.812 841.341,106.53 839.505,106.782C837.748,106.615 837.808,106.378 836.5,107.5C835.987,107.758 833.61,108.951 830.625,111.619C830.223,112.206 829.821,112.793 829.42,113.379C828.27,114.143 824.9,115.802 824.5,115.999Z" style="fill:rgb(214,151,55);fill-opacity:0.98;"/>
            <path d="M78.614,3.62C78.851,3.626 78.795,3.733 81.425,4.557L81.954,6.399C82.689,12.479 80.767,13.773 86.005,16.864C86.337,17.059 84.865,16.873 84.669,21.488C84.513,25.156 75.63,30.388 85.503,29.887C95.843,29.362 84.729,32.502 84.505,32.521C78.989,32.976 81.809,42.654 82.488,52.501C84.068,55.981 89.566,53.236 87.167,56.305C82.98,61.663 65.388,57.694 63.543,57.278C62.521,57.047 61.527,56.701 60.505,56.47C60.804,56.121 68.684,50.102 64.526,48.45C61.639,47.303 63.067,54.69 60.455,52.695C60.445,52.687 61.093,47.93 58.449,48.32C57.749,48.423 58.05,48.75 58.064,50.737C58.082,53.328 54.02,55.739 53.542,56.023L52.476,55.736C36.25,55.225 34.064,54.912 35.737,53.605C37.87,51.938 36.058,51.772 34.253,49.812C31.564,48.826 9.858,47.255 22.37,43.123C27.023,41.586 20.513,40.928 17.079,31.633C16.046,28.836 14.649,30.964 11.303,29.8C12.843,24.679 11.99,24.305 15.573,20.276L16.263,20.817C16.136,21.215 13.479,29.569 18.52,25.533C19.835,24.48 19.191,24.267 19.59,18.487C19.594,18.143 19.598,17.799 19.601,17.455C18.429,14.952 17.661,14.2 16.096,16.386C16.006,16.511 16.096,16.386 14.418,17.336C10.705,22.404 9.443,21.908 9.66,26.196C9.546,26.123 8.405,27.786 6.666,23.373L5.137,21.052C7.878,19.465 8.728,18.852 6.495,16.504C6.115,16.105 3.269,0.116 9.809,9.144C10.427,9.997 22.029,11.904 22.59,9.532C26.477,-6.896 30.394,11.624 32.319,11.085C32.597,11.008 34.928,6.259 39.387,8.696C42.719,10.518 43.49,11.99 45.711,8.64C46.423,7.566 46.992,9.749 61.512,5.525C70.161,3.009 70.456,9.687 74.186,7.058C76.528,5.407 76.584,5.811 78.614,3.62Z" style="fill:rgb(44,76,61);fill-opacity:0.99;"/>
            <path d="M324.723,20.225C326.66,22.681 327.207,29.84 330.164,26.161C332.742,22.952 334.055,25.503 337.314,23.211C342.948,19.249 341.378,28.076 347.511,28.267C355.896,28.528 357.542,31.275 362.087,24.229C364.544,20.421 365.131,25.418 369.5,25.523C397.38,26.194 397.084,28.066 399.479,27.836L400.511,28.27L406.499,28.29C406.967,29.027 407.434,29.763 407.901,30.5C401.663,33.109 409.345,36.523 409.33,37.616C409.265,42.382 401.881,42.567 401.491,42.665C399.73,43.241 399.923,43.197 398.308,44.332C398.112,44.62 398.077,44.501 395.48,47.638C388.479,47.084 388.623,46.788 381.577,46.885C386.222,41.846 383.833,40.801 383.431,41.078C383.016,41.365 383.756,41.819 379.5,46.006L380.48,47.169C378.472,47.079 376.463,46.989 374.455,46.899C351.386,45.332 351.506,43.435 349.567,43.943C348.042,44.343 337.066,47.221 331.419,51.625C324.821,48.275 322.528,61.727 317.032,53.986C316.405,53.103 312.175,52.519 304.546,55.722C301.941,54.533 302.509,53.236 299.788,53.701C299.028,53.335 298.269,52.969 297.509,52.603C296.857,52.63 296.726,51.316 281.55,54.932C280.491,54.906 273.441,54.735 268.324,54.427L268.352,53.51C268.398,53.177 268.444,52.843 268.491,52.51C267.52,52.087 266.549,51.665 265.578,51.243C260.166,46.221 273.644,45.886 274.476,45.865C279.764,48.575 280.355,49.625 284.775,45.842C288.308,42.817 290.65,50.291 293.525,48.543C298.816,45.327 299.174,47.064 305.45,46.19C309.313,45.652 313.4,39.197 319.278,41.905C324.226,44.184 324.221,42.79 329.519,41.564C330.146,41.419 343.343,38.364 336.488,37.551C333.757,37.227 320.211,36.2 312.463,35.928C313.548,35.547 312.413,34.613 313.5,34.231C313.802,34.125 314.205,33.983 317.5,34.16C317.948,34.184 317.824,34.178 322.569,31.754C321.092,30.349 321.214,30.499 320.421,28.584C325.396,28.565 322.076,25.517 321.62,24.471C321.452,24.086 321.201,23.511 324.723,20.225Z" style="fill:rgb(45,77,62);fill-opacity:0.99;"/>
            <path d="M712.705,42.99C718.207,43.105 718.043,43.234 718.507,43.224C715.16,46.957 714.916,46.603 706.377,50.237C697.121,54.809 697.107,54.506 688.233,60.053C675.998,68.094 666.237,74.012 664.3,75.186C660.267,77.891 659.453,77.058 657.576,81.473L657.705,83.201C648.382,83.192 646.804,81.903 641.763,78.143C639.15,75.054 639.048,75.201 637.802,71.333C636.76,68.098 625.451,70.225 620.325,67.842C618.372,66.904 615.482,63.081 606.523,68.639L598.547,68.983C592.064,68.175 591.668,69.542 586.308,65.859C585.706,65.446 585.322,67.211 577.495,63.509C573.27,61.51 567.197,64.568 565.62,64.099C564.81,63.858 557.21,61.599 555.774,60.273C553.406,58.087 556.426,58.429 562.501,55.502C569.775,52.843 569.951,54.983 577.529,53.585C577.554,53.581 579.344,53.81 577.542,48.444C583.115,48.753 583.194,46.519 588.461,48.641C591.228,50.197 591.223,50.149 591.548,50.442C594.322,50.532 595.576,51.047 595.083,48.394C594.516,45.345 596.539,47.129 601.443,47.085C603.765,46.67 606.086,46.255 608.408,45.84C612.376,56.196 619.827,52.319 620.458,53.567C621.738,56.105 627.655,60.43 628.352,60.94C628.528,63.231 629.214,63.554 639.23,66.193C643.458,72.835 664.608,59.263 669.612,56.584C670.624,54.51 670.271,54.3 668.359,53.093C682.579,50.047 684.482,48.145 685.509,47.118C687.14,47.082 688.77,47.046 690.4,47.011C691.773,46.541 693.146,46.072 694.519,45.602C697.88,44.466 709.188,44.421 709.483,44.416C710.491,44.117 711.499,43.818 712.507,43.519L712.705,42.99Z" style="fill:rgb(91,103,52);fill-opacity:1;"/>
            <path d="M747.495,42.458L749.483,42.291C759.96,43.573 759.852,43.319 770.5,43.506C772.17,43.796 773.841,44.086 775.511,44.376C776.135,44.275 776.759,44.174 777.383,44.073C780.108,44.621 808.13,50.26 811.435,50.978C832.127,57.081 831.938,56.94 852.282,63.973L854.391,64.765C865.127,69.22 865.142,68.46 876.554,71.229C872.836,74.983 874.378,76.439 879.275,77.901C882.906,82.784 870.907,80.155 870.494,80.125C874.494,74.008 864.43,76.763 853.302,71.917C853.068,71.815 842.912,69.534 829.369,64.765C830.747,61.824 830.897,61.836 830.719,61.427C829.396,58.374 828.648,60.668 826.343,62.844C818.97,60.585 819.138,60.645 811.627,58.235C804.099,55.716 797.101,56.582 783.496,52.487C783.337,50.081 782.933,49.883 780.453,50.46C777.306,47.31 776.852,49.486 772.948,51.727C772.148,51.568 771.349,51.409 770.549,51.25L771.835,52.736C769.435,54.873 769.474,54.643 767.815,57.387C766.665,58.037 765.957,58.438 755.79,68.693C747.139,77.419 749.579,79.021 750.505,79.178C751.285,79.665 752.066,80.153 752.846,80.64C750.984,84.112 751.331,84.147 749.474,87.529C747.799,87.572 747.844,87.524 746.491,88.641C744.25,87.781 738.91,90.151 737.737,91.636L736.953,92.661C736.586,91.607 736.218,90.554 735.851,89.5C726.562,84.186 725.921,85.074 722.529,80.476C725.794,79.102 726.46,80.618 728.909,77.688C729.647,79.371 729.526,79.288 729.647,79.371C730.043,79.64 733.979,82.32 735.294,81.336C737.75,79.499 733.163,75.878 739.695,73.734C738.959,80.101 745.84,79.771 745.885,74.505C745.928,69.562 746.003,69.685 745.842,68.358C745.814,68.129 745.99,67.905 745.962,67.676C745.358,63.291 748.109,65.251 751.706,62.908C757.672,62.586 758.471,61.865 758.907,61.471C762.24,58.463 757.639,60.37 753.326,59.704C752.323,59.139 752.335,58.756 751.526,59.473C749.863,62.21 748.56,62.193 747.332,59.277C753.45,53.671 752.911,53.307 759.634,48.698C757.715,47.484 757.645,47.51 755.647,48.63C751.484,43.674 751.204,51.13 729.157,66.087C727.529,67.646 727.566,67.4 725.923,68.986C723.597,70.218 723.544,71.786 718.687,70.272C717.684,67.376 718.772,67.582 719.988,64.987C732.526,52.272 732.874,52.86 747.495,42.458Z" style="fill:rgb(215,159,64);fill-opacity:1;"/>
            <path d="M862.551,57.614C864.709,57.266 864.71,57.538 865.633,59.469C867.319,64.787 885.933,68.373 888.144,65.148C889.299,63.462 889.546,64.42 891.5,65.103C892.173,64.468 892.846,63.834 893.519,63.199C904.37,62.614 903.609,65.898 904.512,65.844C910.4,65.487 909.607,58.377 927.554,62.265C933.081,63.462 946.161,60.789 949.216,65.708C951.613,69.566 952.384,69.42 956.417,67.345C966.853,61.976 967.506,65.717 968.354,65.246C973.501,62.389 975.692,65.423 978.487,65.245C989.24,64.558 989.254,63.791 999.523,67.406C1001.416,68.072 1005.95,64.973 1006.603,64.748C1022.446,59.297 1019.299,68.613 1018.638,74.146C1006.766,74.556 988.402,75.652 978.494,76.357L975.499,76.453C969.895,76.355 950.377,76.013 905.48,73.865C903.642,73.673 903.646,73.957 882.463,71.914L881.462,71.904C874.93,64.056 856.119,64.092 854.391,64.765L852.282,63.973C856.334,59.104 856.898,60.109 862.551,57.614Z" style="fill:rgb(40,68,54);fill-opacity:0.99;"/>
            <path d="M723.359,42.888C729.006,43.836 728.837,43.256 733.451,43.217C734.468,42.99 735.484,42.763 736.501,42.535L747.495,42.458C732.874,52.86 732.526,52.272 719.988,64.987C718.262,64.549 717.945,63.583 712.311,67.314C712.213,67.437 712.196,67.342 710.936,68.725C710.812,68.941 710.979,68.972 709.625,71.546C707.224,76.297 709.454,76.955 706.856,81.6C706.667,82.899 706.478,84.198 706.289,85.497C706.352,86.029 706.552,87.701 709.184,91.538C708.52,95.825 706.867,95.19 706.489,99.58L703.727,100.07C695.481,93.097 690.113,102.331 686.273,93.921C687.038,88.343 689.549,78.68 679.096,85.919C670.644,79.076 669.953,80.348 667.768,80.914C670.026,78.095 670.273,78.591 673.761,77.864C675.71,77.688 675.208,78.494 676.5,79.896C678.241,81.785 678.996,77.746 679.048,77.469C680.031,72.211 680.369,72.297 684.911,69.748C689.296,73.317 690.701,69.398 688.353,65.249C690.097,62.673 689.906,62.489 688.233,60.053C697.107,54.506 697.121,54.809 706.377,50.237C714.916,46.603 715.16,46.957 718.507,43.224C720.125,43.112 721.742,43 723.359,42.888Z" style="fill:rgb(172,122,53);fill-opacity:0.99;"/>
            <path d="M505.844,42.176C508.837,43.055 508.735,42.602 514.323,42.352C517.408,49.309 517.84,49.402 518.49,49.543C519.83,49.833 519.654,49.494 524.605,46.809C529.15,52.783 530.81,50.072 537.459,53.574C539.189,54.18 539.154,55.328 547.472,53.196C549.779,53.493 549.645,53.311 551.501,54.5C554.383,59.661 550.873,59.642 550.091,65.463C546.737,75.031 540.901,69.244 539.693,68.098C536.984,67.668 537.255,67.167 534.469,66.725C534.018,66.654 534.05,66.672 528.811,66.011L527.783,65.165C525.357,62.989 525.655,62.905 522.5,61.491C519.125,63.022 517.941,68.828 513.31,61.912C511.378,64.397 509.859,65.187 509.493,65.377C505.485,69.103 504.142,64.209 499.275,66.927C498.096,64.921 498.375,64.867 496.469,63.539C496.448,63.502 495.054,60.743 494.931,60.5C494.556,59.758 488.223,58.092 485.507,64.655C483.473,65.409 481.789,65.634 481.458,65.679C480.841,65.295 480.223,64.911 479.606,64.527C481.254,62.594 481.057,62.618 483.237,61.101C492.882,54.392 481.539,56.185 478.496,55.504C475.852,54.826 475.923,55.11 465.479,54.849C462.779,54.822 462.897,54.509 460.364,55.703C457.779,54.56 456.67,55.246 456.946,52.58C457.681,45.499 456.557,45.09 457.157,45.007C470.412,43.177 474.501,49.918 478.839,40.657C481.403,35.184 483.74,40.658 485.642,46.284C488.647,46.755 488.434,46.479 491.43,46.168C491.98,46.021 491.754,45.898 498.251,44.156C498.468,44.836 499.699,44.82 499.917,45.5C501.639,50.882 500.131,54.182 505.522,52.57C509.273,51.449 506.106,49.554 505.844,42.176Z" style="fill:rgb(67,91,49);fill-opacity:1;"/>
            <path d="M158.434,17.358C168.665,14.444 172.993,21.242 174.598,22.201C175.549,22.23 176.5,22.259 177.451,22.287L178.286,22.044C183.16,18.545 185.193,16.054 190.609,20.363C195.477,23.352 197.316,16.591 200.942,21.108C205.169,26.371 206.473,24.293 208.493,24.527C211.408,24.866 209.432,28.301 213.342,28.301C215.527,25.39 215.266,23.266 221.581,25.021C222.776,34.004 229.568,29.582 233.543,37.903L227.57,38.893C222.986,35.777 207.58,38.463 203.353,33.622C201.035,33.178 179.482,29.042 173.911,31.778C172.827,31.366 170.6,30.52 159.464,30.598C156.944,30.535 155.653,30.096 156.324,32.583C156.878,34.638 160.052,32.544 160.319,32.368L162.16,33.811L162.963,35.248C154.45,36.064 159.684,57.862 153.96,48.212C151.76,44.502 151.804,44.039 147.566,44.094C145.817,42.586 145.591,43.115 143.785,41.514C143.943,33.734 145.766,34.105 145.532,33.491C145.162,32.523 144.427,30.599 145.725,20.534C146.525,14.337 153.787,19.43 156.202,19.065C157.672,21.171 157.439,21.147 158.776,23.272C171.196,43.006 158.645,17.782 158.434,17.358Z" style="fill:rgb(53,88,75);fill-opacity:0.99;"/>
            <path d="M783.496,52.487C797.101,56.582 804.099,55.716 811.627,58.235C819.138,60.645 818.97,60.585 826.343,62.844C827.352,63.484 828.36,64.125 829.369,64.765C842.912,69.534 853.068,71.815 853.302,71.917C864.43,76.763 874.494,74.008 870.494,80.125C868.859,80.116 867.223,80.107 865.588,80.098C857.626,76.789 856.092,76.408 851.463,83.698C824.051,80.121 790.691,69.088 785.532,67.382C783.342,59.461 787.705,57.934 783.496,52.487Z" style="fill:rgb(238,179,70);"/>
            <path d="M598.547,68.983L606.523,68.639C606.694,69.975 606.153,69.885 606.849,71.18C608.395,74.062 609.214,73.146 610.794,75.752C608.775,77.524 608.501,78.075 608.375,78.328C607.836,79.409 607.609,78.887 604.553,78.75C602.079,78.64 603.414,79.946 603.513,83.374C594.528,83.068 586.025,82.73 584.505,82.67C573.484,83.411 565.18,83.383 563.499,83.377C507.452,83.184 507.601,83.305 500.504,82.989C504.093,76.528 505.953,71.808 509.613,78.307C511.91,81.205 513.329,83.042 514.385,79.458C514.513,79.025 515.046,77.218 517.448,74.716L521.498,74.987C526.165,75.387 530.831,75.788 535.498,76.189C544.133,75.583 543.954,75.589 552.52,74.861C553.686,74.984 553.611,74.938 563.466,75.04L569.498,75.007C578.14,73.651 578.537,74.733 581.778,71.995C589.397,69.321 593.108,72.419 593.852,73.041C588.766,74.7 586.049,77.88 587.747,78.709C588.276,78.967 588.969,78.222 589.497,78.48C591.328,78.324 592.383,79.276 592.527,76.419C597.269,76.093 596.281,78.782 596.427,78.462C596.991,77.232 597.165,75.65 597.193,75.399C597.3,74.42 597.122,74.403 598.095,74.083C600.528,73.282 598.874,72.607 597.5,70.628L598.547,68.983Z" style="fill:rgb(28,52,45);fill-opacity:0.99;"/>
            <path d="M374.448,52.969C401.545,55.441 406.114,55.216 408.87,55.081C409.088,55.172 410.366,55.707 411.406,56.592C411.825,60.217 411.854,60.192 411.858,60.507C411.873,61.561 411.343,61.336 411.356,62.338L410.604,62.611C409.488,63.655 409.597,63.551 408.605,64.576L408.321,65.443C400.907,62.698 402.202,67.799 397.267,70.09C390.701,73.138 384.681,59.445 372.184,67.076C367.373,70.014 366.98,64.823 361.503,66.507C354.822,61.815 355.173,61.439 354.5,61.243C346.996,59.06 347.799,55.817 340.011,56.85C339.924,56.714 339.839,56.862 338.481,55.535C338.21,55.441 338.337,55.259 335.299,53.88C340.799,51.629 360.923,52.567 374.448,52.969Z" style="fill:rgb(112,125,81);fill-opacity:1;"/>
            <path d="M882.463,71.914C903.646,73.957 903.642,73.673 905.48,73.865C950.377,76.013 969.895,76.355 975.499,76.453C976.972,83.32 979.41,80.725 981.5,80.821C982.771,80.879 983.677,84.648 979.237,82.973C970.121,79.534 965.973,89.434 965.487,90.594L964.512,90.663C961.426,89.62 961.486,89.654 961.426,89.598C960.743,89.409 960.978,89.169 960.315,88.985C960.157,88.941 960.315,88.985 958.296,88.618C956.45,85.078 955.534,86.678 951.476,86.604C950.479,86.291 949.483,85.978 948.486,85.665C947.021,86.068 947.1,85.815 945.582,86.253C944.455,84.76 944.567,84.879 943.454,83.543C942.999,83.176 943.028,83.263 941.491,82.615C938.943,82.858 939.125,82.604 936.504,83.529C933.18,83.618 933.067,84.526 930.462,82.673C929.826,82.419 929.19,82.165 928.554,81.911L927.601,82.657C921.078,77.222 906.713,82.33 906.418,82.369L904.522,81.568C902.992,82.504 903.012,82.439 902.604,84.234C892.926,83.313 886.606,84.549 891.414,78.46C891.963,77.763 892.127,76.849 882.463,71.914Z" style="fill:rgb(178,126,55);fill-opacity:0.99;"/>
            <path d="M270.532,35.975C273.514,35.907 276.497,35.839 279.48,35.771C276.86,40.841 277.733,41.153 274.476,45.865C273.644,45.886 260.166,46.221 265.578,51.243C264.058,51.279 264.202,51.154 262.818,51.787C255.197,47.291 244.823,43.642 244.654,43.778C239.399,48.001 237.905,45.159 232.852,49.762C226.594,43.442 223.552,52.471 227.5,53.381C227.859,53.463 227.513,52.748 231.765,51.629C231.597,52.203 230.913,54.547 230.343,58.969C227.607,57.336 227.68,56.524 224.647,57.847L223.545,58.884C222.538,57.462 223.811,57.385 223.232,55.678C222.164,52.528 220.451,58.922 220.355,59.278C219.707,59.444 219.059,59.609 218.41,59.774C218.413,59.448 218.234,59.536 217.285,55.851C216.917,47.016 205.301,56.033 203.703,45.508C205.582,43.037 205.765,43.535 208.5,42.501C209.893,46.145 209.294,47.385 213.195,47.425C213.252,47.449 213.762,49.702 216.345,47.462L216.669,46.598C219.464,50.978 220.313,50.11 222.433,49.346C226.264,44.69 221.536,46.328 221.387,46.377C220.424,46.119 219.462,45.86 218.5,45.601C218.99,45.194 219.907,45.78 220.397,45.373C220.574,45.226 218.794,45.352 220.292,42.5C220.93,41.286 221.597,41.18 220.445,40.207C222.82,39.769 225.195,39.331 227.57,38.893L233.543,37.903L235.507,37.556C253.694,36.554 253.475,36.2 270.532,35.975Z" style="fill:rgb(103,134,86);fill-opacity:0.99;"/>
            <path d="M143.785,41.514C145.591,43.115 145.817,42.586 147.566,44.094C137.885,54.915 170.473,55.6 174.485,55.99C178.086,57.308 177.959,57.172 181.285,58.883C181.405,56.607 181.037,56.403 181.84,55.942C185.294,53.957 184.412,53.275 183.423,49.376C184.866,47.085 184.771,46.905 187.385,46.543C188.567,50.288 187.575,51.629 191.541,52.128C197.759,52.91 191.672,35.817 202.041,42.738C202.603,43.33 203.164,43.922 203.726,44.514L203.703,45.508C205.301,56.033 216.917,47.016 217.285,55.851L216.248,55.699C214.211,53.171 191.073,57.794 191.711,62.464C191.992,64.522 191.148,64.018 188.547,65.63C187.533,65.632 186.518,65.634 185.503,65.635C184.955,65.734 184.408,65.834 183.86,65.933C165.115,60.069 150.512,59.958 147.57,59.936C144.727,60.882 144.78,60.736 142.38,62.628C141.327,60.365 142.322,57.925 142.288,57.537C142.218,56.749 135.645,56.319 137.934,54.864C144.606,50.626 142.173,49.093 143.785,41.514Z" style="fill:rgb(40,72,59);fill-opacity:0.99;"/>
            <path d="M797.394,39.275C799.609,37.943 799.46,37.89 799.651,37.788C803.105,35.957 815.007,41.675 820.902,48.011C821.76,48.933 825.256,44.173 828.406,47.6C832.279,51.812 847.55,54.784 848.85,53.98C854.172,50.686 855.464,57.149 860.405,53.358C875.306,41.925 878.567,61.306 882.473,60.39C888.386,59.003 887.956,61.19 893.519,63.199C892.846,63.834 892.173,64.468 891.5,65.103C889.546,64.42 889.299,63.462 888.144,65.148C885.933,68.373 867.319,64.787 865.633,59.469C866.343,57.754 867.053,56.04 867.763,54.325C863.736,54.55 864.407,55.603 862.551,57.614C856.898,60.109 856.334,59.104 852.282,63.973C831.938,56.94 832.127,57.081 811.435,50.978C811.436,50.482 811.451,45.673 810.313,44.874C808.301,43.461 807.723,46.81 805.915,45.039C805.327,44.463 803.831,42.999 797.394,39.275Z" style="fill:rgb(71,96,50);fill-opacity:0.99;"/>
            <path d="M719.988,64.987C718.772,67.582 717.684,67.376 718.687,70.272C719.013,71.081 721.622,77.558 722.529,80.476C725.921,85.074 726.562,84.186 735.851,89.5C736.218,90.554 736.586,91.607 736.953,92.661C735.319,96.288 735.504,98.061 735.554,98.542L733.77,98.848L732.887,99.756C732.798,100.729 732.709,101.701 732.62,102.673C731.78,103.063 724.466,106.458 721.455,105.747C716.789,104.645 713.431,108.519 714.163,103.575L713.399,102.615L713.266,101.872C711.404,96.223 714.02,94.894 709.184,91.538C706.552,87.701 706.352,86.029 706.289,85.497C710.087,82.829 710.561,83.46 713.002,79.497C711.398,76.31 710.604,76.277 712.166,73.201C713.665,70.252 714.097,70.084 712.311,67.314C717.945,63.583 718.262,64.549 719.988,64.987Z" style="fill:rgb(186,131,57);fill-opacity:0.99;"/>
            <path d="M315.667,23.342C314.365,27.441 314.83,27.484 312.453,31.053C311.751,31.061 311.822,31.177 309.622,32.346C308.648,32.016 308.555,31.037 307.381,32.361C305.817,34.056 305.994,33.905 304.5,35.704L302.501,35.7C294.827,35.723 287.153,35.747 279.48,35.771C276.497,35.839 273.514,35.907 270.532,35.975C253.475,36.2 253.694,36.554 235.507,37.556L233.543,37.903C229.568,29.582 222.776,34.004 221.581,25.021L224.511,25.154L227.462,25.581C229.079,26.793 229.15,26.611 229.277,26.726C229.68,27.321 230.083,27.915 230.486,28.51C233.049,31.701 232.804,31.788 236.484,33.556C238.149,33.909 239.813,34.263 241.478,34.616C255.729,34.319 256.287,35.506 258.177,33.189C268.463,20.577 274.384,35.012 281.294,29.251C287.893,23.751 288.64,25.563 289.183,25.101C300.467,15.488 304.194,26.853 304.681,27.109C310.887,30.374 311.077,18.056 315.667,23.342Z" style="fill:rgb(49,81,64);fill-opacity:0.99;"/>
            <path d="M614.648,73.316C619.46,76.277 619.598,79.681 627.391,75.302C631.398,73.052 630.721,79.017 636.516,79.331C642.356,79.648 641.738,78.151 641.763,78.143C646.804,81.903 648.382,83.192 657.705,83.201C662.886,85.573 663.075,84.248 667.768,80.914C669.953,80.348 670.644,79.076 679.096,85.919C680.467,88.754 680.296,88.778 679.597,91.773C679.345,91.961 677.318,93.475 675.69,92.211C666.971,85.442 643.614,92.534 640.918,88.292C639.163,85.531 632.086,87.275 603.513,83.374C603.414,79.946 602.079,78.64 604.553,78.75C607.609,78.887 607.836,79.409 608.375,78.328C608.501,78.075 608.775,77.524 610.794,75.752L611.662,75.528C612.657,74.791 613.652,74.053 614.648,73.316Z" style="fill:rgb(32,52,42);fill-opacity:0.99;"/>
            <path d="M408.321,65.443C407.779,71.991 407.768,71.948 407.735,72.515C407.108,83.327 402.202,79.228 391.5,79.227C369.907,79.225 368.324,81.712 364.229,75.654C364.238,75.415 364.343,72.759 364.231,72.658C363.487,71.988 345.27,76.445 358.149,66.689C359.982,67.176 359.909,67.411 361.503,66.507C366.98,64.823 367.373,70.014 372.184,67.076C384.681,59.445 390.701,73.138 397.267,70.09C402.202,67.799 400.907,62.698 408.321,65.443Z" style="fill:rgb(41,71,58);fill-opacity:0.98;"/>
            <path d="M491.603,66.618C492.911,66.445 494.219,66.273 495.526,66.1C496.776,66.376 498.025,66.651 499.275,66.927C501.065,68.929 502.908,71.183 517.448,74.716C515.046,77.218 514.513,79.025 514.385,79.458C513.329,83.042 511.91,81.205 509.613,78.307C505.953,71.808 504.093,76.528 500.504,82.989C491.503,82.433 475.669,82.397 473.508,82.393C468.633,81.524 446.543,81.16 452.809,78.86C457.289,77.215 456.607,76.535 459.029,72.482C462.316,69.53 462.23,69.747 462.498,69.497C465.508,73.966 465.2,74.107 465.561,74.395C468.163,76.476 469.618,64.365 476.595,72.355C480.148,76.424 480.771,76.494 485.601,74.151C486.151,74.221 492.246,75 492.496,73.5C492.587,72.952 491.831,73.063 491.603,66.618Z" style="fill:rgb(28,51,46);fill-opacity:0.99;"/>
            <path d="M174.758,33.201C180.023,38.488 180.804,36.589 184.473,36.227C184.793,36.196 184.769,36.264 188.463,36.721C188.558,41.687 187.699,41.453 187.385,46.543C184.771,46.905 184.866,47.085 183.423,49.376C178.438,50.057 178.988,45.333 174.343,47.19C174.351,47.214 177.659,53.257 174.485,55.99C170.473,55.6 137.885,54.915 147.566,44.094C151.804,44.039 151.76,44.502 153.96,48.212C159.684,57.862 154.45,36.064 162.963,35.248C163.461,36.067 169.459,45.925 174.758,33.201Z" style="fill:rgb(49,83,67);"/>
            <path d="M279.48,35.771C287.153,35.747 294.827,35.723 302.501,35.7L304.5,35.704L312.463,35.928C320.211,36.2 333.757,37.227 336.488,37.551C343.343,38.364 330.146,41.419 329.519,41.564C324.221,42.79 324.226,44.184 319.278,41.905C313.4,39.197 309.313,45.652 305.45,46.19C299.174,47.064 298.816,45.327 293.525,48.543C290.65,50.291 288.308,42.817 284.775,45.842C280.355,49.625 279.764,48.575 274.476,45.865C277.733,41.153 276.86,40.841 279.48,35.771Z" style="fill:rgb(86,121,84);"/>
            <path d="M374.455,46.899C376.463,46.989 378.472,47.079 380.48,47.169L381.577,46.885C388.623,46.788 388.479,47.084 395.48,47.638C402.334,48.359 402.155,48.17 408.692,49.588C408.517,52.427 408.141,52.336 408.87,55.081C406.114,55.216 401.545,55.441 374.448,52.969C360.923,52.567 340.799,51.629 335.299,53.88L334.405,53.61C334.182,53.429 334.188,53.543 331.419,51.625C337.066,47.221 348.042,44.343 349.567,43.943C351.506,43.435 351.386,45.332 374.455,46.899Z" style="fill:rgb(28,53,44);fill-opacity:1;"/>
            <path d="M1022.563,73.159C1022.238,75.98 1022.351,75.786 1022.626,78.661C1021.341,79.378 1021.466,79.304 1020.294,80.058C1018.326,79.713 1018.477,79.788 1016.52,80.58C1015.965,80.825 1013.272,82.017 1009.339,83.024C1007.791,82.881 1007.911,82.984 1006.497,83.482C1004.282,84.537 1000.829,85.836 1000.329,86.024C999.073,85.974 997.817,85.925 996.56,85.875C999.378,76.614 991.65,85.299 990.501,86.559C984.209,87.294 984.261,86.85 979.425,88.345C978.771,88.71 978.117,89.075 977.463,89.441C976.81,89.796 976.157,90.152 975.504,90.508C971.417,91.562 971.719,92.243 967.446,92.643L966.336,90.854L965.487,90.594C965.973,89.434 970.121,79.534 979.237,82.973C983.677,84.648 982.771,80.879 981.5,80.821C979.41,80.725 976.972,83.32 975.499,76.453L978.494,76.357C988.402,75.652 1006.766,74.556 1018.638,74.146C1022.3,73.087 1022.256,73.262 1022.563,73.159Z" style="fill:rgb(166,115,50);fill-opacity:0.98;"/>
            <path d="M551.505,37.312L557.502,37.35C558.474,37.481 562.689,38.047 566.811,45.334C572.611,55.589 573.328,43.729 574.61,42.677C575.01,42.348 576.031,42.012 577.542,48.444C579.344,53.81 577.554,53.581 577.529,53.585C569.951,54.983 569.775,52.843 562.501,55.502C555.93,54.114 553.612,50.696 559.717,47.923C567.094,44.572 554.819,40.034 555.159,42.236C556.217,49.079 555.038,49.077 555.166,49.657C555.917,53.049 552.94,51.528 551.501,54.5C549.645,53.311 549.779,53.493 547.472,53.196C548.781,50.637 549.079,51.042 551.109,49.113C555.359,46.778 552.531,45.689 552.356,45.332C553.057,41.02 551.408,41.02 547.016,41.433C544.343,41.684 546.225,45.759 542.429,44.856C536.145,43.362 538.338,47.147 537.459,53.574C530.81,50.072 529.15,52.783 524.605,46.809C525.863,44.987 525.458,45.051 525.983,42.623C528.013,33.242 531.256,40.127 531.225,40.576C530.288,54.065 538.205,35.145 551.505,37.312Z" style="fill:rgb(45,76,60);fill-opacity:0.99;"/>
            <path d="M478.496,55.504C481.539,56.185 492.882,54.392 483.237,61.101C481.057,62.618 481.254,62.594 479.606,64.527C479.495,64.669 479.559,64.675 478.49,66.485C478.736,66.486 478.674,66.362 481.458,65.679C481.789,65.634 483.473,65.409 485.507,64.655C489.239,65.189 489.138,65.286 492.534,63.682L495.45,63.564L496.469,63.539C498.375,64.867 498.096,64.921 499.275,66.927C498.025,66.651 496.776,66.376 495.526,66.1C494.219,66.273 492.911,66.445 491.603,66.618C491.831,73.063 492.587,72.952 492.496,73.5C492.246,75 486.151,74.221 485.601,74.151C476.411,70.072 477.528,63.126 468.667,67.685C466.167,69.964 465.846,68.96 462.498,69.497C462.23,69.747 462.316,69.53 459.029,72.482C452.907,68.179 455.35,58.96 460.546,57.55C475.106,57.772 477.565,60.725 478.496,55.504Z" style="fill:rgb(42,73,58);fill-opacity:1;"/>
            <path d="M658.503,52.572L659.468,53.063C661.966,54.006 661.844,54.075 664.585,54.223C665.539,54.601 666.492,54.979 667.446,55.357C664.279,56.482 664.356,56.26 647.621,62.812C646.944,63.068 646.989,63.128 639.23,66.193C629.214,63.554 628.528,63.231 628.352,60.94C631.85,61.138 631.808,60.617 633.306,57.41C640.437,42.142 648.174,49.886 658.503,52.572Z" style="fill:rgb(29,53,44);fill-opacity:0.99;"/>
            <path d="M232.852,49.762C237.905,45.159 239.399,48.001 244.654,43.778C244.823,43.642 255.197,47.291 262.818,51.787C259.214,56.707 255.811,50.202 252.095,55.089C247.914,55.791 248.08,55.876 247.728,55.922C244.583,54.06 244.117,54.611 243.912,54.852C243.707,55.094 243.038,55.885 246.994,57.345C247.26,57.453 248.28,57.866 250.386,58.5C247.52,62.917 231.906,59.328 230.343,58.969C230.913,54.547 231.597,52.203 231.765,51.629L232.852,49.762Z" style="fill:rgb(44,76,60);fill-opacity:0.99;"/>
            <path d="M755.647,48.63C754.371,49.758 728.329,72.773 741.554,64.6C742.088,64.269 741.982,64.206 747.332,59.277C748.56,62.193 749.863,62.21 751.526,59.473C751.586,60.618 751.646,61.763 751.706,62.908C748.109,65.251 745.358,63.291 745.962,67.676C743.627,68.531 743.859,68.506 742.106,70.009C735.819,71.515 733.244,75.088 728.909,77.688C726.46,80.618 725.794,79.102 722.529,80.476C721.622,77.558 719.013,71.081 718.687,70.272C723.544,71.786 723.597,70.218 725.923,68.986C728.957,70.73 727.411,72.872 729.498,72.77C733.439,72.577 729.452,66.534 729.157,66.087C751.204,51.13 751.484,43.674 755.647,48.63Z" style="fill:rgb(201,142,61);"/>
            <path d="M297.509,52.603C296.951,52.981 297.382,53.18 291.58,58.59C289.287,60.727 290.432,61.275 292.978,62.988C290.581,65.968 291.125,67.69 287.426,66.708C283.962,65.79 281.785,66.344 274.488,67.393C270.969,67.899 265.778,64.048 268.324,54.427C273.441,54.735 280.491,54.906 281.55,54.932C296.726,51.316 296.857,52.63 297.509,52.603Z" style="fill:rgb(42,66,46);fill-opacity:0.98;"/>
            <path d="M551.501,54.5C552.94,51.528 555.917,53.049 555.166,49.657C555.038,49.077 556.217,49.079 555.159,42.236C554.819,40.034 567.094,44.572 559.717,47.923C553.612,50.696 555.93,54.114 562.501,55.502C556.426,58.429 553.406,58.087 555.774,60.273C557.21,61.599 564.81,63.858 565.62,64.099C567.197,64.568 573.27,61.51 577.495,63.509C585.322,67.211 585.706,65.446 586.308,65.859C591.668,69.542 592.064,68.175 598.547,68.983L597.5,70.628C595.294,75.148 594.048,73.058 593.852,73.041C593.108,72.419 589.397,69.321 581.778,71.995C577.057,71.441 580.535,66.922 576.5,65.938C573.442,65.193 573.436,64.673 570.5,66.098C565.262,68.641 559.3,63.159 556.554,66.548C554.835,68.67 554.513,66.674 550.091,65.463C550.873,59.642 554.383,59.661 551.501,54.5Z" style="fill:rgb(42,70,52);fill-opacity:1;"/>
            <path d="M550.091,65.463C554.513,66.674 554.835,68.67 556.554,66.548C559.3,63.159 565.262,68.641 570.5,66.098C573.436,64.673 573.442,65.193 576.5,65.938C580.535,66.922 577.057,71.441 581.778,71.995C578.537,74.733 578.14,73.651 569.498,75.007C570.971,72.15 571.426,70.589 568.336,70.885C566.811,71.031 566.94,71.035 565.419,71.199C558.97,66.531 553.176,74.013 552.52,74.861C543.954,75.589 544.133,75.583 535.498,76.189C539.165,73.06 536.012,71.014 539.693,68.098C540.901,69.244 546.737,75.031 550.091,65.463Z" style="fill:rgb(38,68,57);"/>
            <path d="M620.325,67.842C625.451,70.225 636.76,68.098 637.802,71.333C639.048,75.201 639.15,75.054 641.763,78.143C641.738,78.151 642.356,79.648 636.516,79.331C630.721,79.017 631.398,73.052 627.391,75.302C619.598,79.681 619.46,76.277 614.648,73.316C613.025,70.732 613.343,69.222 610.483,70.496C609.345,71.156 609.246,71.158 609.616,72.464C610.374,73.581 611.499,75.282 611.662,75.528L610.794,75.752C609.214,73.146 608.395,74.062 606.849,71.18C606.153,69.885 606.694,69.975 606.523,68.639C615.482,63.081 618.372,66.904 620.325,67.842Z" style="fill:rgb(40,65,45);"/>
            <path d="M792.641,76.12L797.404,77.735C796.615,81.769 798.234,81.185 798.5,81.09C800.574,80.342 799.622,82.552 801.606,83.098C829.757,90.846 795.341,90.835 794.501,90.835C784.299,90.832 777.291,95.195 780.467,85.492C787.119,94.794 787.635,86.054 787.545,85.495C787.104,82.766 782.834,83.324 782.392,83.382L782.944,79.694C783.297,79.581 786.768,78.478 787.567,79.431C791.601,84.247 791.861,79.2 791.552,78.498C791.468,78.307 791.552,78.498 792.641,76.12Z" style="fill:rgb(234,164,50);"/>
            <path d="M203.353,33.622C207.58,38.463 222.986,35.777 227.57,38.893C225.195,39.331 222.82,39.769 220.445,40.207L214.419,41.158L210.63,41.982C210.392,41.334 207.977,34.763 202.041,42.738C191.672,35.817 197.759,52.91 191.541,52.128C187.575,51.629 188.567,50.288 187.385,46.543C187.699,41.453 188.558,41.687 188.463,36.721C190.561,36.681 201.089,37.275 203.353,33.622Z" style="fill:rgb(64,105,86);"/>
            <path d="M420.067,35.516C419.893,38.836 420.551,38.97 419.172,40.169C418.889,40.415 415.48,43.38 417.471,44.536C423.037,47.77 416.413,47.372 408.692,49.588C402.155,48.17 402.334,48.359 395.48,47.638C398.077,44.501 398.112,44.62 398.308,44.332C401.112,45.252 403.233,46.52 402.143,43.713C401.994,43.329 401.639,43.049 401.491,42.665C401.881,42.567 409.265,42.382 409.33,37.616C409.345,36.523 401.663,33.109 407.901,30.5C409.417,32.909 409.845,32.184 420.067,35.516Z" style="fill:rgb(44,76,60);fill-opacity:0.98;"/>
            <path d="M513.31,61.912C517.941,68.828 519.125,63.022 522.5,61.491C525.655,62.905 525.357,62.989 527.783,65.165C524.685,68.329 525.726,68.889 523.022,72.367C522.934,72.593 522.817,72.435 521.498,74.987L517.448,74.716C502.908,71.183 501.065,68.929 499.275,66.927C504.142,64.209 505.485,69.103 509.493,65.377C509.859,65.187 511.378,64.397 513.31,61.912Z" style="fill:rgb(38,68,58);"/>
            <path d="M797.394,39.275C803.831,42.999 805.327,44.463 805.915,45.039C807.723,46.81 808.301,43.461 810.313,44.874C811.451,45.673 811.436,50.482 811.435,50.978C808.13,50.26 780.108,44.621 777.383,44.073C778.586,42.95 783.004,38.827 797.394,39.275Z" style="fill:rgb(39,69,57);fill-opacity:0.99;"/>
            <path d="M647.897,73.136C648.918,72.053 688.995,49.964 692.398,51.775C696.5,53.957 655.868,73.582 652.537,75.19C649.968,74.646 650.231,74.435 647.897,73.136Z" style="fill:rgb(162,114,53);"/>
            <path d="M915.481,97.502C916.707,99.098 916.748,98.751 918.544,99.107L920.565,99.385C921.596,99.746 922.627,100.107 923.658,100.468C923.515,100.881 922.528,103.721 921.338,105.412C920.386,106.366 919.556,107.1 919.396,107.241C910.007,111.372 907.82,110.499 906.864,110.118C909.131,102.754 898.245,104.33 901.773,101.704C902.186,101.396 902.196,101.476 904.669,100.738C905.484,100.529 906.299,100.319 907.114,100.11C906.883,99.628 906.651,99.146 906.419,98.664L907.292,98.813C907.434,98.765 907.298,98.798 910.594,98.208C914.824,97.751 914.77,97.883 915.481,97.502Z" style="fill:rgb(136,95,39);fill-opacity:0.95;"/>
            <path d="M514.323,42.352C514.17,34.158 513.683,34.256 513.87,33.578C520.146,10.744 521.141,44.028 524.605,46.809C519.654,49.494 519.83,49.833 518.49,49.543C517.84,49.402 517.408,49.309 514.323,42.352Z" style="fill:rgb(45,76,60);fill-opacity:0.99;"/>
            <path d="M688.233,60.053C689.906,62.489 690.097,62.673 688.353,65.249C687.664,65.409 686.975,65.568 686.286,65.728C685.559,66.778 686.241,66.694 686.826,67.765C685.758,68.685 686.014,68.757 684.911,69.748C680.369,72.297 680.031,72.211 679.048,77.469C678.996,77.746 678.241,81.785 676.5,79.896C675.208,78.494 675.71,77.688 673.761,77.864C674.836,74.269 676.211,75.13 677.569,71.677C669.999,73.898 669.964,80.577 664.3,75.186C666.237,74.012 675.998,68.094 688.233,60.053Z" style="fill:rgb(170,121,53);"/>
            <path d="M813.396,90.592C813.912,90.732 814.428,90.872 814.943,91.011L815.664,91.35C818.659,94.492 817.963,94.745 817.941,99.56C817.931,101.935 816.695,101.343 805.5,101.413C795.636,101.475 801.003,92.325 806.723,94.079C807.98,94.328 807.941,94.469 808.764,93.579C809.34,92.213 809.263,92.364 810.434,91.408C812.489,90.5 812.32,90.562 812.489,90.5C813.144,90.259 812.962,90.751 813.396,90.592Z" style="fill:rgb(235,164,50);"/>
            <path d="M147.57,59.936C150.512,59.958 165.115,60.069 183.86,65.933C184.187,66.531 184.514,67.129 184.841,67.726L184.497,68.494C182.574,68.334 163.739,66.769 160.601,65.222C152.633,61.292 148.022,63.831 142.38,62.628C144.78,60.736 144.727,60.882 147.57,59.936Z" style="fill:rgb(52,87,75);fill-opacity:0.99;"/>
            <path d="M552.356,45.332C547.266,46.146 551.034,48.974 551.109,49.113C549.079,51.042 548.781,50.637 547.472,53.196C539.154,55.328 539.189,54.18 537.459,53.574C538.338,47.147 536.145,43.362 542.429,44.856C546.225,45.759 544.343,41.684 547.016,41.433C551.408,41.02 553.057,41.02 552.356,45.332Z" style="fill:rgb(45,76,62);"/>
            <path d="M783.496,52.487C787.705,57.934 783.342,59.461 785.532,67.382C778.181,64.509 778.302,64.838 771.139,61.295C777.002,56.008 776.048,54.759 783.496,52.487Z" style="fill:rgb(238,179,67);"/>
            <path d="M173.911,31.778C179.482,29.042 201.035,33.178 203.353,33.622C201.089,37.275 190.561,36.681 188.463,36.721C184.769,36.264 184.793,36.196 184.473,36.227C180.804,36.589 180.023,38.488 174.758,33.201L173.911,31.778Z" style="fill:rgb(234,179,72);"/>
            <path d="M780.453,50.46C782.933,49.883 783.337,50.081 783.496,52.487C776.048,54.759 777.002,56.008 771.139,61.295C770.623,61.89 768.445,64.402 764.205,68.287C757.7,73.757 757.693,73.554 752.846,80.64C752.066,80.153 751.285,79.665 750.505,79.178C757.493,70.331 758.153,71.157 765.348,62.469L766.332,61.413C767.063,60.328 767.793,59.242 768.524,58.157C775.517,56.28 774.042,53.89 780.453,50.46Z" style="fill:rgb(205,147,59);"/>
            <path d="M667.446,55.357C668.846,55.086 668.799,55.226 669.612,56.584C664.608,59.263 643.458,72.835 639.23,66.193C646.989,63.128 646.944,63.068 647.621,62.812C664.356,56.26 664.279,56.482 667.446,55.357Z" style="fill:rgb(166,121,54);"/>
            <path d="M779.363,74.294C779.578,74.406 781.03,73.027 782.944,79.694L782.392,83.382L780.847,84.705C780.731,84.338 779.568,80.666 778.99,80.265C773.502,76.459 779.95,87.794 773.449,88.815C772.652,86.14 773.189,85.451 771.502,85.489C769.738,85.528 770.214,85.021 769.774,83.41C769.17,81.2 772.32,77.717 772.283,77.404C770.936,65.932 776.662,75.774 776.761,76.133C778.492,75.747 778.697,75.962 779.363,74.294Z" style="fill:rgb(233,164,51);"/>
            <path d="M528.811,66.011C534.05,66.672 534.018,66.654 534.469,66.725C537.255,67.167 536.984,67.668 539.693,68.098C536.012,71.014 539.165,73.06 535.498,76.189C530.831,75.788 526.165,75.387 521.498,74.987C522.817,72.435 522.934,72.593 523.022,72.367C528.741,74.586 529.28,71.993 528.811,66.011Z" style="fill:rgb(38,68,57);"/>
            <path d="M505.844,42.176C506.106,49.554 509.273,51.449 505.522,52.57C500.131,54.182 501.639,50.882 499.917,45.5C499.699,44.82 498.468,44.836 498.251,44.156C500.605,37.73 501.449,36.754 503.544,37.387C503.907,37.497 504.173,37.182 505.844,42.176Z" style="fill:rgb(46,77,58);fill-opacity:0.99;"/>
            <path d="M677.569,71.677C676.211,75.13 674.836,74.269 673.761,77.864C670.273,78.591 670.026,78.095 667.768,80.914C663.075,84.248 662.886,85.573 657.705,83.201L657.576,81.473C659.453,77.058 660.267,77.891 664.3,75.186C669.964,80.577 669.999,73.898 677.569,71.677Z" style="fill:rgb(169,122,52);"/>
            <path d="M159.464,30.598C170.6,30.52 172.827,31.366 173.911,31.778L174.758,33.201C169.459,45.925 163.461,36.067 162.963,35.248L162.16,33.811C161.547,33.33 160.933,32.849 160.319,32.368C160.034,31.778 159.749,31.188 159.464,30.598Z" style="fill:rgb(74,111,80);"/>
            <path d="M468.667,67.685C477.528,63.126 476.411,70.072 485.601,74.151C480.771,76.494 480.148,76.424 476.595,72.355C469.618,64.365 468.163,76.476 465.561,74.395C465.2,74.107 465.508,73.966 462.498,69.497C465.846,68.96 466.167,69.964 468.667,67.685Z" style="fill:rgb(27,53,44);"/>
            <path d="M887.572,91.67C888.827,91.601 889.052,91.151 889.62,92.398C893.251,100.379 890.078,102.152 881.5,101.354C872.098,100.479 885.488,94.123 887.572,91.67Z" style="fill:rgb(183,132,56);"/>
            <path d="M682.502,46.458C683.504,46.678 684.507,46.898 685.509,47.118C684.482,48.145 682.579,50.047 668.359,53.093C667.101,53.47 665.843,53.847 664.585,54.223C661.844,54.075 661.966,54.006 659.468,53.063C660.118,52.778 660.768,52.494 661.419,52.209C662.098,51.927 662.777,51.646 663.456,51.364C665.596,50.932 665.356,50.608 665.531,50.577C669.188,49.553 669.038,49.619 672.493,48.465C677.44,47.019 677.253,46.73 682.502,46.458Z" style="fill:rgb(158,135,40);fill-opacity:0.98;"/>
            <path d="M854.391,64.765C856.119,64.092 874.93,64.056 881.462,71.904C879.826,71.679 878.19,71.454 876.554,71.229C865.142,68.46 865.127,69.22 854.391,64.765Z" style="fill:rgb(87,98,62);"/>
            <path d="M606.606,54.746C611.015,55.259 610.579,56.175 610.435,56.479C609.779,57.858 610.394,62.234 610.464,62.729C606.822,62.592 603.179,62.454 599.537,62.317C599.456,61.687 599.374,61.056 599.293,60.426C599.597,59.433 599.901,58.439 600.205,57.446C603.301,55.633 603.068,55.624 606.606,54.746Z" style="fill:rgb(81,104,51);"/>
            <path d="M174.343,47.19C178.988,45.333 178.438,50.057 183.423,49.376C184.412,53.275 185.294,53.957 181.84,55.942C181.037,56.403 181.405,56.607 181.285,58.883C177.959,57.172 178.086,57.308 174.485,55.99C177.659,53.257 174.351,47.214 174.343,47.19Z" style="fill:rgb(45,76,62);"/>
            <path d="M340.011,56.85C347.799,55.817 346.996,59.06 354.5,61.243C355.173,61.439 354.822,61.815 361.503,66.507C359.909,67.411 359.982,67.176 358.149,66.689C355.105,65.248 355.518,64.379 343.633,62.312C342.435,60.103 342.618,60.127 340.644,58.406L340.011,56.85Z" style="fill:rgb(100,116,34);fill-opacity:0.98;"/>
            <path d="M767.815,57.387C768.051,57.644 768.288,57.9 768.524,58.157C767.793,59.242 767.063,60.328 766.332,61.413C766.004,61.765 765.676,62.117 765.348,62.469C758.153,71.157 757.493,70.331 750.505,79.178C749.579,79.021 747.139,77.419 755.79,68.693C765.957,58.438 766.665,58.037 767.815,57.387Z" style="fill:rgb(224,160,57);"/>
            <path d="M324.723,20.225C321.201,23.511 321.452,24.086 321.62,24.471C322.076,25.517 325.396,28.565 320.421,28.584C318.736,27.098 317.773,27.296 317.796,29.542C317.833,33.16 316.023,31.282 312.453,31.053C314.83,27.484 314.365,27.441 315.667,23.342C315.817,23.358 317.545,23.54 317.545,23.54C319.065,20.749 318.668,18.533 324.723,20.225Z" style="fill:rgb(44,78,63);fill-opacity:0.99;"/>
            <path d="M755.647,48.63C757.645,47.51 757.715,47.484 759.634,48.698C752.911,53.307 753.45,53.671 747.332,59.277C741.982,64.206 742.088,64.269 741.554,64.6C728.329,72.773 754.371,49.758 755.647,48.63Z" style="fill:rgb(224,158,57);"/>
            <path d="M47.668,16.59C48.262,16.053 53.528,11.292 57.283,13.827C63.091,17.748 43.445,27.518 47.668,16.59Z" style="fill:rgb(87,122,85);"/>
            <path d="M679.096,85.919C689.549,78.68 687.038,88.343 686.273,93.921C682.907,92.507 683.096,92.216 679.597,91.773C680.296,88.778 680.467,88.754 679.096,85.919Z" style="fill:rgb(170,122,50);fill-opacity:0.98;"/>
            <path d="M406.499,28.29C415.268,28.652 415.256,28.016 418.526,29.49C418.6,29.659 419.075,30.736 419.369,31.632C419.807,32.074 419.635,31.984 420.067,35.516C409.845,32.184 409.417,32.909 407.901,30.5C407.434,29.763 406.967,29.027 406.499,28.29Z" style="fill:rgb(75,110,81);fill-opacity:0.98;"/>
            <path d="M297.509,52.603C298.269,52.969 299.028,53.335 299.788,53.701C299.025,57.726 301.62,56.937 302.576,57.566C297.757,60.43 297.928,60.363 292.978,62.988C290.432,61.275 289.287,60.727 291.58,58.59C297.382,53.18 296.951,52.981 297.509,52.603Z" style="fill:rgb(43,66,44);fill-opacity:0.99;"/>
            <path d="M320.421,28.584C321.214,30.499 321.092,30.349 322.569,31.754C317.824,34.178 317.948,34.184 317.5,34.16C314.205,33.983 313.802,34.125 313.5,34.231C312.413,34.613 313.548,35.547 312.463,35.928L304.5,35.704C305.994,33.905 305.817,34.056 307.381,32.361C308.128,32.356 308.875,32.351 309.622,32.346C311.822,31.177 311.751,31.061 312.453,31.053C316.023,31.282 317.833,33.16 317.796,29.542C317.773,27.296 318.736,27.098 320.421,28.584Z" style="fill:rgb(43,76,62);"/>
            <path d="M56.718,24.012C57.971,25.527 57.466,25.531 58.027,34.279C51.503,35.086 48.468,34.365 51.228,28.369C51.342,28.121 55.657,26.019 56.718,24.012Z" style="fill:rgb(44,77,60);"/>
            <path d="M865.588,80.098C862.055,81.121 863.723,83.148 860.5,84.771C857.917,86.071 852.146,83.95 851.463,83.698C856.092,76.408 857.626,76.789 865.588,80.098Z" style="fill:rgb(221,172,68);"/>
            <path d="M712.311,67.314C714.097,70.084 713.665,70.252 712.166,73.201C710.604,76.277 711.398,76.31 713.002,79.497C710.561,83.46 710.087,82.829 706.289,85.497C706.478,84.198 706.667,82.899 706.856,81.6C709.454,76.955 707.224,76.297 709.625,71.546C710.062,70.606 710.499,69.665 710.936,68.725C712.196,67.342 712.213,67.437 712.311,67.314Z" style="fill:rgb(180,130,54);"/>
            <path d="M169.803,43.704C169.938,46.842 170.544,46.58 173.654,47.668C172.452,49.364 170.72,56.59 163.74,49.321C163.634,49.211 163.74,49.321 163.127,47.507C163.553,47.063 165.608,44.919 169.803,43.704Z" style="fill:rgb(53,88,76);"/>
            <path d="M742.106,70.009C742.372,72.645 741.711,72.32 739.695,73.734C733.163,75.878 737.75,79.499 735.294,81.336C733.979,82.32 730.043,79.64 729.647,79.371C729.526,79.288 729.647,79.371 728.909,77.688C733.244,75.088 735.819,71.515 742.106,70.009Z" style="fill:rgb(199,143,58);"/>
            <path d="M465.479,54.849C475.923,55.11 475.852,54.826 478.496,55.504C477.565,60.725 475.106,57.772 460.546,57.55C460.485,56.934 460.424,56.318 460.364,55.703C462.897,54.509 462.779,54.822 465.479,54.849Z" style="fill:rgb(103,122,84);fill-opacity:1;"/>
            <path d="M565.419,71.199C563.774,72.85 563.887,72.761 563.466,75.04C553.611,74.938 553.686,74.984 552.52,74.861C553.176,74.013 558.97,66.531 565.419,71.199Z" style="fill:rgb(37,68,57);"/>
            <path d="M41.121,28.201C45.173,25.602 47.227,25.637 47.309,30.497C47.443,38.429 37.952,34.722 41.121,28.201Z" style="fill:rgb(44,77,60);"/>
            <path d="M53.542,56.023C54.02,55.739 58.082,53.328 58.064,50.737C58.05,48.75 57.749,48.423 58.449,48.32C61.093,47.93 60.445,52.687 60.455,52.695C63.067,54.69 61.639,47.303 64.526,48.45C68.684,50.102 60.804,56.121 60.505,56.47L53.542,56.023Z" style="fill:rgb(44,77,58);fill-opacity:0.98;"/>
            <path d="M745.962,67.676C745.99,67.905 745.814,68.129 745.842,68.358C746.003,69.685 745.928,69.562 745.885,74.505C745.84,79.771 738.959,80.101 739.695,73.734C741.711,72.32 742.372,72.645 742.106,70.009C743.859,68.506 743.627,68.531 745.962,67.676Z" style="fill:rgb(197,143,61);"/>
            <path d="M780.453,50.46C774.042,53.89 775.517,56.28 768.524,58.157C768.288,57.9 768.051,57.644 767.815,57.387C769.474,54.643 769.435,54.873 771.835,52.736C772.206,52.4 772.577,52.064 772.948,51.727C776.852,49.486 777.306,47.31 780.453,50.46Z" style="fill:rgb(221,169,72);"/>
            <path d="M709.184,91.538C714.02,94.894 711.404,96.223 713.266,101.872L711.469,101.634L710.495,101.563C709.786,101.324 709.077,101.085 708.368,100.846C707.742,100.424 707.115,100.002 706.489,99.58C706.867,95.19 708.52,95.825 709.184,91.538Z" style="fill:rgb(182,130,53);fill-opacity:0.96;"/>
            <path d="M606.606,54.746C603.068,55.624 603.301,55.633 600.205,57.446C599.901,58.439 599.597,59.433 599.293,60.426C599.374,61.056 599.456,61.687 599.537,62.317C597.247,62.168 597.775,61.45 596.807,60.221C596.239,55.35 606.511,46.218 606.606,54.746Z" style="fill:rgb(79,104,52);"/>
            <path d="M593.852,73.041C594.048,73.058 595.294,75.148 597.5,70.628C598.874,72.607 600.528,73.282 598.095,74.083C597.122,74.403 597.3,74.42 597.193,75.399C597.165,75.65 596.991,77.232 596.427,78.462C596.281,78.782 597.269,76.093 592.527,76.419C590.631,76.788 590.655,76.745 589.497,78.48C588.969,78.222 588.276,78.967 587.747,78.709C586.049,77.88 588.766,74.7 593.852,73.041Z" style="fill:rgb(26,54,45);"/>
            <path d="M43.585,42.673C48.229,41.992 49.274,42.259 49.752,42.382C49.744,47.174 51.266,49.269 46.501,49.252C44.802,47.148 45.189,46.765 42.589,45.792C42.921,44.753 43.253,43.713 43.585,42.673Z" style="fill:rgb(43,77,59);"/>
            <path d="M14.418,17.336C16.096,16.386 16.006,16.511 16.096,16.386C17.661,14.2 18.429,14.952 19.601,17.455L19.59,18.487C19.191,24.267 19.835,24.48 18.52,25.533C13.479,29.569 16.136,21.215 16.263,20.817L15.573,20.276C17.201,18.876 18.772,17.832 16.543,17.754C16.543,17.754 14.588,17.37 14.418,17.336Z" style="fill:rgb(44,77,58);"/>
            <path d="M220.445,40.207C221.597,41.18 220.93,41.286 220.292,42.5C218.794,45.352 220.574,45.226 220.397,45.373C219.907,45.78 218.99,45.194 218.5,45.601L217.539,45.706C216.51,46.326 216.515,46.202 216.345,47.462C213.762,49.702 213.252,47.449 213.195,47.425C215.421,44.58 215.816,44.454 214.419,41.158L220.445,40.207Z" style="fill:rgb(100,134,86);"/>
            <path d="M763.413,53.186L761.376,54.071C751.323,54.85 770.763,43.711 770.727,47.285C770.72,48.037 769.788,47.097 763.413,53.186Z" style="fill:rgb(234,178,72);"/>
            <path d="M362.797,32.377C364.885,33.968 363.954,34.396 364.827,36.753C362.714,37.662 362.665,37.541 361.541,39.512C360.236,39.459 360.162,39.876 359.262,38.842C358.327,37.768 357.646,37.871 357.465,37.763C358.114,31.84 358.816,31.835 359.234,32.066C361.196,33.155 361.5,34.279 362.797,32.377Z" style="fill:rgb(45,76,58);"/>
            <path d="M492.534,63.682C489.138,65.286 489.239,65.189 485.507,64.655C488.223,58.092 494.556,59.758 494.931,60.5C495.054,60.743 496.448,63.502 496.469,63.539L495.45,63.564C493.869,62.814 493.979,63.025 492.534,63.682Z" style="fill:rgb(43,64,46);"/>
            <path d="M14.418,17.336C14.588,17.37 16.543,17.754 16.543,17.754C18.772,17.832 17.201,18.876 15.573,20.276C11.99,24.305 12.843,24.679 11.303,29.8C11.115,29.545 10.375,28.539 9.66,26.196C9.443,21.908 10.705,22.404 14.418,17.336Z" style="fill:rgb(44,77,58);fill-opacity:0.98;"/>
            <path d="M42.502,42.502C42.449,42.156 40.868,31.814 44.433,38.567C44.815,39.291 44.449,40.402 45.068,40.938C46.965,42.581 45.378,38.285 50.447,36.351C54.501,34.804 49.834,38.236 49.752,42.382C49.274,42.259 48.229,41.992 43.585,42.673L42.502,42.502Z" style="fill:rgb(45,76,58);"/>
            <path d="M782.392,83.382C782.834,83.324 787.104,82.766 787.545,85.495C787.635,86.054 787.119,94.794 780.467,85.492L780.847,84.705L782.392,83.382Z" style="fill:rgb(235,165,48);"/>
            <path d="M210.63,41.982L214.419,41.158C215.816,44.454 215.421,44.58 213.195,47.425C209.294,47.385 209.893,46.145 208.5,42.501L210.63,41.982Z" style="fill:rgb(103,132,85);"/>
            <path d="M898.54,104.47C904.134,109.544 904.431,109.335 904.527,110.516C902.487,112.463 902.258,111.616 899.564,111.874C897.448,110.578 896.3,110.506 897.899,108.599C899.42,106.787 898.882,106.735 898.54,104.47Z" style="fill:rgb(181,130,66);fill-opacity:0.45;"/>
            <path d="M232.852,49.762L231.765,51.629C227.513,52.748 227.859,53.463 227.5,53.381C223.552,52.471 226.594,43.442 232.852,49.762Z" style="fill:rgb(102,135,86);"/>
            <path d="M210.63,41.982L208.5,42.501C205.765,43.535 205.582,43.037 203.703,45.508L203.726,44.514C203.164,43.922 202.603,43.33 202.041,42.738C207.977,34.763 210.392,41.334 210.63,41.982Z" style="fill:rgb(64,105,88);"/>
            <path d="M565.419,71.199C566.94,71.035 566.811,71.031 568.336,70.885C571.426,70.589 570.971,72.15 569.498,75.007L563.466,75.04C563.887,72.761 563.774,72.85 565.419,71.199Z" style="fill:rgb(37,68,56);"/>
            <path d="M303.379,32.639C299.328,31.38 294.754,34.069 294.465,29.466C294.387,28.218 295.097,28.883 300.505,28.902C302.654,28.91 301.985,29.753 303.379,32.639Z" style="fill:rgb(45,75,62);"/>
            <path d="M527.783,65.165L528.811,66.011C529.28,71.993 528.741,74.586 523.022,72.367C525.726,68.889 524.685,68.329 527.783,65.165Z" style="fill:rgb(35,70,55);"/>
            <path d="M917.461,65.047C921.015,65.284 921.529,64.212 923.791,67.003C924.5,69.5 924.579,69.308 924.5,69.5C922.913,73.356 919.774,64.639 918.521,68.487C913.407,84.194 917.39,65.326 917.461,65.047Z" style="fill:rgb(38,68,56);"/>
            <path d="M347.846,35.76C349.5,34.732 349.561,34.682 351.25,35.55C350.681,39.817 351.695,41.303 347.394,41.788C347.443,39.551 347.463,39.729 347.443,39.551C347.321,38.463 347.037,38.718 346.911,37.591L347.846,35.76Z" style="fill:rgb(43,77,58);"/>
            <path d="M34.558,42.664C37.822,42.473 37.839,42.03 40.808,43.754C37.118,45.402 36.052,44.56 35.336,48.5C30.297,45.275 33.704,43.932 34.558,42.664Z" style="fill:rgb(42,77,62);"/>
            <path d="M716.618,89.629C719.822,89.006 720.97,89.323 720.15,92.372C718.881,97.083 714.466,94.049 716.618,89.629Z" style="fill:rgb(182,131,56);"/>
            <path d="M822.426,89.609C822.643,89.959 829.786,97.082 822.43,95.8C821.144,95.576 821.457,93.391 821.203,92.767C820.322,90.606 819.999,89.713 822.426,89.609Z" style="fill:rgb(235,164,49);"/>
            <path d="M151.488,29.438C158.342,29.553 149.925,37.99 148.857,33.5C148.297,31.144 151.146,29.621 151.488,29.438Z" style="fill:rgb(52,89,71);"/>
            <path d="M522.526,53.556C524.662,53.471 524.772,53.501 525.459,55.384C522.449,57.015 523.289,57.821 520.5,59.907C519.249,57.704 519.895,57.769 520.567,55.531C521.22,54.873 521.873,54.214 522.526,53.556Z" style="fill:rgb(80,105,46);"/>
            <path d="M751.526,59.473L753.326,59.704C757.639,60.37 762.24,58.463 758.907,61.471C758.471,61.865 757.672,62.586 751.706,62.908C751.646,61.763 751.586,60.618 751.526,59.473Z" style="fill:rgb(200,141,60);"/>
            <path d="M812.5,106.458C809.57,107.838 809.662,107.855 806.5,107.996C807.618,103.991 807.876,103.309 812.05,103.998C812.791,104.12 812.525,106.26 812.5,106.458Z" style="fill:rgb(234,164,50);"/>
            <path d="M856.603,89.696L855.41,90.311L852.551,91.623C852.261,91.44 849.424,89.654 849.617,88.507C850.33,84.253 856.401,89.6 856.603,89.696Z" style="fill:rgb(233,161,54);"/>
            <path d="M996.56,85.875L995.501,86.507C993.834,86.524 992.168,86.542 990.501,86.559C991.65,85.299 999.378,76.614 996.56,85.875Z" style="fill:rgb(168,113,55);fill-opacity:0.96;"/>
            <path d="M784.13,97.929C788.26,100.193 788.814,101.456 785.478,104.804C781.191,104.102 783.922,101.61 784.081,100.486C784.186,100.083 784.142,100.115 784.13,97.929Z" style="fill:rgb(228,163,60);fill-opacity:0.48;"/>
            <path d="M860.417,101.731C867.204,101.57 866.897,100.614 867.466,100.651C872.452,100.981 865.018,101.451 863,105.938C860.895,104.341 862.47,103.258 860.417,101.731Z" style="fill:rgb(173,128,66);fill-opacity:0.3;"/>
            <path d="M401.006,36.376C396.667,36.574 396.582,36.916 396.333,36.636C394.065,34.088 401.954,28.813 401.006,36.376Z" style="fill:rgb(42,77,57);"/>
            <path d="M347.846,35.76L346.911,37.591C341.982,37.723 341.697,37.936 341.746,37.526C342.714,29.395 347.527,35.364 347.846,35.76Z" style="fill:rgb(41,78,62);"/>
            <path d="M300.855,42.565C304.047,35.709 307.119,42.716 305.959,43.5C303.48,45.175 303.418,44.128 300.855,42.565Z" style="fill:rgb(86,126,85);"/>
            <path d="M364.827,36.753C364.949,36.636 366.254,35.386 366.389,35.335C370.876,33.652 368.669,39.433 363.493,39.352C362.842,39.406 362.192,39.459 361.541,39.512C362.665,37.541 362.714,37.662 364.827,36.753Z" style="fill:rgb(42,77,61);"/>
            <path d="M773.449,88.815C773.365,89.362 773.031,91.537 769.61,94.564C768.461,95.58 765.212,91.258 773.449,88.815Z" style="fill:rgb(231,165,52);"/>
            <path d="M729.157,66.087C729.452,66.534 733.439,72.577 729.498,72.77C727.411,72.872 728.957,70.73 725.923,68.986C727.566,67.4 727.529,67.646 729.157,66.087Z" style="fill:rgb(201,145,59);"/>
            <path d="M610.483,70.496C613.343,69.222 613.025,70.732 614.648,73.316C613.652,74.053 612.657,74.791 611.662,75.528C611.499,75.282 610.374,73.581 609.616,72.464C609.905,71.808 610.194,71.152 610.483,70.496Z" style="fill:rgb(29,53,43);"/>
            <path d="M813.396,90.592C812.962,90.751 813.144,90.259 812.489,90.5C812.32,90.562 812.489,90.5 810.434,91.408C809.613,83.966 815.626,86.326 814.453,87.473C813.123,88.773 812.851,88.691 813.396,90.592Z" style="fill:rgb(235,164,48);"/>
            <path d="M75.606,24.982C78.754,25.412 80.729,28.63 76.405,33.5C76.283,28.84 76.569,28.977 75.911,27.367C75.81,26.572 75.708,25.777 75.606,24.982Z" style="fill:rgb(44,76,59);"/>
            <path d="M158.434,17.358C158.645,17.782 171.196,43.006 158.776,23.272C157.439,21.147 157.672,21.171 156.202,19.065C156.946,18.496 157.69,17.927 158.434,17.358Z" style="fill:rgb(53,89,74);fill-opacity:0.95;"/>
            <path d="M686.286,65.728C686.975,65.568 687.664,65.409 688.353,65.249C690.701,69.398 689.296,73.317 684.911,69.748C686.014,68.757 685.758,68.685 686.826,67.765C687.44,66.597 687.506,66.53 686.286,65.728Z" style="fill:rgb(170,122,49);"/>
            <path d="M791.084,99.974C790.512,96.222 790.727,95.271 791.65,94.693C794.714,92.77 795.504,96.477 791.084,99.974Z" style="fill:rgb(235,165,48);"/>
            <path d="M73.975,45.509C75.535,47.94 77.338,45.111 78.725,47.5C79.035,48.034 74.468,55.189 73.975,45.509Z" style="fill:rgb(44,76,60);"/>
            <path d="M867.763,54.325C867.053,56.04 866.343,57.754 865.633,59.469C864.71,57.538 864.709,57.266 862.551,57.614C864.407,55.603 863.736,54.55 867.763,54.325Z" style="fill:rgb(68,90,52);"/>
            <path d="M717.504,81.509C719.469,82.547 719.365,82.403 719.469,82.547C722.163,86.304 717.657,84.915 715.695,85.407C715.899,83.056 715.678,82.935 717.504,81.509Z" style="fill:rgb(185,131,53);"/>
            <path d="M0,23.5L0,21.5L5.137,21.052L6.666,23.373C4.444,23.415 2.222,23.458 0,23.5Z" style="fill:rgb(50,71,64);fill-opacity:0.47;"/>
            <path d="M217.539,45.706L218.5,45.601C219.462,45.86 220.424,46.119 221.387,46.377C219.812,48.503 219.955,49.762 222.433,49.346C220.313,50.11 219.464,50.978 216.669,46.598C216.959,46.301 217.249,46.004 217.539,45.706Z" style="fill:rgb(106,134,84);"/>
            <path d="M381.577,46.885L380.48,47.169L379.5,46.006C383.756,41.819 383.016,41.365 383.431,41.078C383.833,40.801 386.222,41.846 381.577,46.885Z" style="fill:rgb(43,75,61);"/>
            <path d="M828.638,92.409C830.566,93.451 830.968,91.047 832.625,92.445C835.385,94.773 829.993,97.305 828.638,92.409Z" style="fill:rgb(235,164,50);"/>
            <path d="M200.63,29.472C201.807,24.57 207.608,32.105 203.5,32.105C203.188,32.105 203.937,31.474 200.63,29.472Z" style="fill:rgb(53,90,71);"/>
            <path d="M826.343,62.844C828.648,60.668 829.396,58.374 830.719,61.427C830.897,61.836 830.747,61.824 829.369,64.765C828.36,64.125 827.352,63.484 826.343,62.844Z" style="fill:rgb(225,173,68);"/>
            <path d="M965.026,74.5C964.974,72.629 964.072,71.959 967.362,70.104C986.979,59.041 965.353,74.272 965.026,74.5Z" style="fill:rgb(34,70,58);"/>
            <path d="M299.788,53.701C302.509,53.236 301.941,54.533 304.546,55.722C302.755,57.787 302.701,57.39 302.576,57.566C301.62,56.937 299.025,57.726 299.788,53.701Z" style="fill:rgb(44,66,50);fill-opacity:0.31;"/>
            <path d="M29.394,34.343C32.017,32.448 32.211,32.467 32.499,32.493C34.379,32.669 32.183,40.822 29.394,34.343Z" style="fill:rgb(44,77,56);"/>
            <path d="M399.479,27.836C411.189,27.735 416.71,17.873 418.526,29.49C415.256,28.016 415.268,28.652 406.499,28.29L400.511,28.27L399.479,27.836Z" style="fill:rgb(74,96,78);fill-opacity:0.35;"/>
            <path d="M64.574,12.329C64.79,12.568 71.53,20.021 65.722,16.185C65.454,16.007 60.93,13.018 64.574,12.329Z" style="fill:rgb(41,77,61);"/>
            <path d="M74.584,15.545C77.724,12.937 81.292,17.663 76.228,19.165C76.076,17.158 75.749,17.414 74.584,15.545Z" style="fill:rgb(46,76,57);"/>
            <path d="M42.589,45.792C45.189,46.765 44.802,47.148 46.501,49.252C39.738,50.068 42.581,46.074 42.589,45.792Z" style="fill:rgb(44,76,63);"/>
            <path d="M705.57,64.597L705.059,66.522C704.991,67.135 704.923,67.747 704.855,68.36C704.64,68.142 698.219,61.66 705.57,64.597Z" style="fill:rgb(172,122,50);"/>
            <path d="M760.678,81.756C760.798,81.738 762.447,80.777 763.491,82.504C765.008,85.01 758.999,85.525 760.678,81.756Z" style="fill:rgb(231,165,51);"/>
            <path d="M190.253,26.463C190.416,26.306 192.296,24.5 192.296,24.5C192.647,24.471 198.039,27.285 190.436,28.5C190.375,27.821 190.314,27.142 190.253,26.463Z" style="fill:rgb(53,90,71);"/>
            <path d="M749.474,87.529C752.004,89.15 750.989,89.643 751.499,92.502C749.438,89.858 749.639,89.818 746.491,88.641C747.844,87.524 747.799,87.572 749.474,87.529Z" style="fill:rgb(191,146,63);fill-opacity:0.12;"/>
            <path d="M285.807,57.348C285.682,57.615 283.019,63.318 282.231,58.26C281.802,55.506 283.284,56.476 285.807,57.348Z" style="fill:rgb(44,66,43);"/>
            <path d="M247.728,55.922C248.08,55.876 247.914,55.791 252.095,55.089C251.984,55.373 251.202,57.372 250.386,58.5C248.28,57.866 247.26,57.453 246.994,57.345C247.239,56.871 247.483,56.397 247.728,55.922Z" style="fill:rgb(45,68,56);fill-opacity:0.16;"/>
            <path d="M221.387,46.377C221.536,46.328 226.264,44.69 222.433,49.346C219.955,49.762 219.812,48.503 221.387,46.377Z" style="fill:rgb(106,134,81);"/>
            <path d="M61.29,41.39C67.132,35.499 63.69,43.526 63.529,43.629C62.104,44.542 61.353,41.636 61.29,41.39Z" style="fill:rgb(41,77,61);"/>
            <path d="M705.57,64.597C707.392,63.72 707.356,63.14 708.308,63.931C708.563,64.144 712.052,68.947 705.059,66.522L705.57,64.597Z" style="fill:rgb(174,124,49);"/>
            <path d="M159.464,30.598C159.749,31.188 160.034,31.778 160.319,32.368C160.052,32.544 156.878,34.638 156.324,32.583C155.653,30.096 156.944,30.535 159.464,30.598Z" style="fill:rgb(120,137,83);"/>
            <path d="M33.437,14.68C35.952,19.979 32.444,18.871 32.246,18.609C30.427,16.197 33.144,14.828 33.437,14.68Z" style="fill:rgb(44,77,58);"/>
            <path d="M223.545,58.884L222.489,59.529C221.778,59.445 221.066,59.362 220.355,59.278C220.451,58.922 222.164,52.528 223.232,55.678C223.811,57.385 222.538,57.462 223.545,58.884Z" style="fill:rgb(62,74,55);fill-opacity:0.07;"/>
            <path d="M70.586,49.441C70.655,50.157 70.725,50.873 70.794,51.59C70.291,51.392 70.001,52.762 69.498,52.564C67.657,51.839 66.736,45.249 70.586,49.441Z" style="fill:rgb(45,76,58);"/>
            <path d="M339.215,33.6C339.787,31.16 338.973,30.697 340.819,29.967C341.572,29.67 343.091,31.635 342.35,32.438C340.8,34.117 340.739,34.007 340.635,34.172L339.215,33.6Z" style="fill:rgb(45,76,58);"/>
            <path d="M552.356,45.332C552.531,45.689 555.359,46.778 551.109,49.113C551.034,48.974 547.266,46.146 552.356,45.332Z" style="fill:rgb(42,77,62);"/>
            <path d="M175.791,41.696C180.552,37.282 179.012,45.265 177.5,44.553C177.259,44.44 177.373,44.342 175.791,41.696Z" style="fill:rgb(50,90,74);"/>
            <path d="M1023.999,73.5L1023.999,78.5L1022.626,78.661C1022.351,75.786 1022.238,75.98 1022.563,73.159L1023.999,73.5Z" style="fill:rgb(154,118,68);fill-opacity:0.15;"/>
            <path d="M589.324,59.583C590.296,53.857 592.519,57.197 592.501,57.5C592.368,59.763 591.572,59.131 589.324,59.583Z" style="fill:rgb(81,104,46);"/>
            <path d="M385.945,36.728C386.158,36.466 388.298,33.82 389.818,35.055C390.079,35.267 391.231,37.872 385.945,36.728Z" style="fill:rgb(43,78,57);"/>
            <path d="M911.481,90.483C912.094,90.99 912.708,91.496 913.321,92.003C910.325,94.571 910.304,95.253 909.552,94.532C908.77,93.782 911.253,90.76 911.481,90.483Z" style="fill:rgb(181,132,57);"/>
            <path d="M219.111,33.006C220.983,32.123 221.121,30.792 222.5,32.347C222.683,32.553 223.443,36.38 219.111,33.006Z" style="fill:rgb(50,90,75);"/>
            <path d="M401.491,42.665C401.639,43.049 401.994,43.329 402.143,43.713C403.233,46.52 401.112,45.252 398.308,44.332C399.923,43.197 399.73,43.241 401.491,42.665Z" style="fill:rgb(44,77,56);"/>
            <path d="M75.606,24.982C75.708,25.777 75.81,26.572 75.911,27.367C73.954,28.009 74.084,28.111 73.954,28.009C71.807,26.334 73.001,25.613 75.606,24.982Z" style="fill:rgb(42,77,62);"/>
            <path d="M787.38,104.763C791.484,103.95 791.472,104.207 791.457,104.534C791.381,106.13 790.795,105.723 788.158,107.192C788.142,106.988 787.974,107.237 787.38,104.763Z" style="fill:rgb(215,161,62);fill-opacity:0.16;"/>
            <path d="M668.359,53.093C670.271,54.3 670.624,54.51 669.612,56.584C668.799,55.226 668.846,55.086 667.446,55.357C666.492,54.979 665.539,54.601 664.585,54.223C665.843,53.847 667.101,53.47 668.359,53.093Z" style="fill:rgb(130,112,54);"/>
            <path d="M737.737,91.636C737.334,95.441 737.746,95.447 735.554,98.542C735.504,98.061 735.319,96.288 736.953,92.661L737.737,91.636Z" style="fill:rgb(157,122,55);fill-opacity:0.17;"/>
            <path d="M826.257,100.864C824.46,102.558 824.625,103.24 823.423,102.5C818.256,99.319 826,100.814 826.257,100.864Z" style="fill:rgb(235,164,47);"/>
            <path d="M790.729,57.523C786.914,62.627 787.559,57.009 787.702,56.805C788.151,56.164 790.509,57.407 790.729,57.523Z" style="fill:rgb(237,181,68);"/>
            <path d="M153.157,24.469C151.925,25.336 152.093,25.334 150.762,25.366C149.819,20.252 153.03,24.308 153.157,24.469Z" style="fill:rgb(52,88,71);"/>
            <path d="M799.599,104.289C804.139,104.923 803.112,106.283 802.882,106.5C801.095,108.186 799.713,104.585 799.599,104.289Z" style="fill:rgb(235,164,50);"/>
            <path d="M247.728,55.922C247.483,56.397 247.239,56.871 246.994,57.345C243.038,55.885 243.707,55.094 243.912,54.852C244.117,54.611 244.583,54.06 247.728,55.922Z" style="fill:rgb(46,75,59);fill-opacity:0.69;"/>
            <path d="M74.584,15.545C75.749,17.414 76.076,17.158 76.228,19.165C76.001,19.174 72.53,20.951 74.584,15.545Z" style="fill:rgb(43,77,59);"/>
            <path d="M733.77,98.848L735.554,98.542C734.037,100.673 734.777,101.136 732.62,102.673C732.709,101.701 732.798,100.729 732.887,99.756L733.77,98.848Z" style="fill:rgb(166,126,78);fill-opacity:0.15;"/>
            <path d="M78.614,3.62C78.696,3.397 80.704,-1.268 81.425,4.557C78.795,3.733 78.851,3.626 78.614,3.62Z" style="fill:rgb(53,67,61);fill-opacity:0.3;"/>
            <path d="M712.705,42.99C718.093,42.551 717.97,41.887 723.359,42.888C721.742,43 720.125,43.112 718.507,43.224C718.043,43.234 718.207,43.105 712.705,42.99Z" style="fill:rgb(120,114,65);fill-opacity:0.33;"/>
            <path d="M922.408,88.462C920.734,91.151 922.224,92.058 919.599,93.627C921.583,91.325 920.257,90.753 922.408,88.462Z" style="fill:rgb(164,121,63);fill-opacity:0.16;"/>
            <path d="M866.473,108.626C869.428,108.95 869.152,109.653 869.446,112.555C867.426,110.77 867.734,110.783 866.473,108.626Z" style="fill:rgb(154,117,71);fill-opacity:0.09;"/>
            <path d="M411.406,56.592C414.144,58.747 413.221,59.352 411.356,62.338C411.343,61.336 411.873,61.561 411.858,60.507C411.854,60.192 411.825,60.217 411.406,56.592Z" style="fill:rgb(110,117,87);fill-opacity:0.27;"/>
            <path d="M592.527,76.419C592.383,79.276 591.328,78.324 589.497,78.48C590.655,76.745 590.631,76.788 592.527,76.419Z" style="fill:rgb(30,51,46);"/>
            <path d="M335.679,33.39C335.577,33.552 331.948,39.308 333.284,33.42C333.66,31.761 334.185,32.415 335.679,33.39Z" style="fill:rgb(41,78,61);"/>
            <path d="M929.696,67.58C930.502,68.345 930.476,68.254 930.45,69.509C930.405,71.702 927.769,68.865 929.696,67.58Z" style="fill:rgb(37,68,57);"/>
            <path d="M347.528,48.545C346.689,50.371 347.281,51.151 345.5,50.897C342.791,50.51 345.116,49.47 347.528,48.545Z" style="fill:rgb(26,51,48);"/>
            <path d="M903.569,98.347L906.419,98.664C906.651,99.146 906.883,99.628 907.114,100.11C906.299,100.319 905.484,100.529 904.669,100.738C904.34,100.157 904.992,100.128 904.612,99.457C904.552,99.351 904.612,99.457 903.569,98.347Z" style="fill:rgb(136,94,48);fill-opacity:0.26;"/>
            <path d="M672.493,48.465C669.038,49.619 669.188,49.553 665.531,50.577C668.89,48.896 668.686,48.884 672.493,48.465Z" style="fill:rgb(126,115,53);fill-opacity:0.25;"/>
            <path d="M216.248,55.699L217.285,55.851C218.234,59.536 218.413,59.448 218.41,59.774C217.139,57.813 217.168,57.986 216.248,55.699Z" style="fill:rgb(102,117,94);fill-opacity:0.13;"/>
            <path d="M584.935,51.665C583.444,52.812 582.975,54.35 582.547,52.49C582.504,52.303 581.999,50.108 583.224,50.193C583.975,50.245 584.184,51.613 584.935,51.665Z" style="fill:rgb(80,103,54);"/>
            <path d="M185.503,65.635C186.518,65.634 187.533,65.632 188.547,65.63C188.213,65.845 185.31,67.711 184.497,68.494L184.841,67.726C185.061,67.029 185.282,66.332 185.503,65.635Z" style="fill:rgb(44,66,58);fill-opacity:0.25;"/>
            <path d="M900.552,91.627C903.49,89.025 903.717,93.042 903.5,93.191C903.28,93.342 903.3,93.328 900.552,91.627Z" style="fill:rgb(186,132,55);"/>
            <path d="M486.491,45.624C487.492,45.627 488.493,45.629 489.493,45.631C490.139,45.81 490.785,45.989 491.43,46.168C488.434,46.479 488.647,46.755 485.642,46.284L486.491,45.624Z" style="fill:rgb(107,119,70);fill-opacity:0.25;"/>
            <path d="M22.086,14.771C24.576,14.467 24.456,14.307 24.576,14.467C24.688,14.615 23.823,19.209 22.086,14.771Z" style="fill:rgb(44,77,59);"/>
            <path d="M340.644,58.406C342.618,60.127 342.435,60.103 343.633,62.312C341.749,60.646 341.769,60.809 340.644,58.406Z" style="fill:rgb(102,108,78);fill-opacity:0.21;"/>
            <path d="M682.502,46.458C687.61,46.634 687.488,46.378 690.4,47.011C688.77,47.046 687.14,47.082 685.509,47.118C684.507,46.898 683.504,46.678 682.502,46.458Z" style="fill:rgb(115,106,57);fill-opacity:0.33;"/>
            <path d="M608.408,45.84C606.086,46.255 603.765,46.67 601.443,47.085C604.678,45.42 604.631,45.868 608.408,45.84Z" style="fill:rgb(81,95,57);fill-opacity:0.35;"/>
            <path d="M721.289,101.427C724.882,97.251 722.697,102.503 722.639,102.5C722.065,102.467 721.863,101.46 721.289,101.427Z" style="fill:rgb(185,131,58);"/>
            <path d="M729.026,99.538C727.233,100.478 727.178,97.977 728.602,98.246C728.602,98.246 728.992,99.434 729.026,99.538Z" style="fill:rgb(185,133,54);fill-opacity:0.8;"/>
            <path d="M419.369,31.632C421.678,32.749 421.542,33.281 420.067,35.516C419.635,31.984 419.807,32.074 419.369,31.632Z" style="fill:rgb(77,103,79);fill-opacity:0.31;"/>
            <path d="M823.5,115.999L822.5,115.999C822.472,114.502 822.445,113.005 822.417,111.508C823.371,115.708 823.465,115.631 823.5,115.999Z" style="fill:rgb(156,117,55);fill-opacity:0.15;"/>
            <path d="M706.489,99.58C707.115,100.002 707.742,100.424 708.368,100.846L706.36,100.879L703.727,100.07L706.489,99.58Z" style="fill:rgb(150,118,68);fill-opacity:0.25;"/>
            <path d="M763.412,75.1C760.566,75.436 760.755,75.566 760.566,75.436C759.844,74.941 760.513,73.064 763.412,75.1Z" style="fill:rgb(232,164,46);"/>
            <path d="M487.496,78.53C485.5,80.5 485.724,80.483 485.5,80.5C485.276,80.517 483.685,78.912 487.496,78.53Z" style="fill:rgb(28,52,42);"/>
            <path d="M817.503,107.556C819.374,106.672 819.619,106.939 820.386,108.736C818.898,107.917 818.904,108.282 817.503,107.556Z" style="fill:rgb(170,128,64);fill-opacity:0.09;"/>
            <path d="M522.526,53.556C521.873,54.214 521.22,54.873 520.567,55.531C520.741,53.867 520.767,53.753 522.526,53.556Z" style="fill:rgb(76,105,51);"/>
            <path d="M479.606,64.527C480.223,64.911 480.841,65.295 481.458,65.679C478.674,66.362 478.736,66.486 478.49,66.485C479.559,64.675 479.495,64.669 479.606,64.527Z" style="fill:rgb(42,72,54);"/>
            <path d="M334.405,53.61L335.299,53.88C338.337,55.259 338.21,55.441 338.481,55.535C336.099,55.24 335.861,55.652 334.405,53.61Z" style="fill:rgb(96,110,83);fill-opacity:0.3;"/>
            <path d="M960.447,89.644L961.426,89.598C961.486,89.654 961.426,89.62 964.512,90.663C962.23,91.377 962.285,91.018 960.447,89.644Z" style="fill:rgb(137,101,53);fill-opacity:0.27;"/>
            <path d="M899.42,77.789C899.177,77.859 896.514,78.629 896.335,78.477C896.15,78.319 897.205,76.461 897.503,76.489C898.272,76.562 898.652,77.717 899.42,77.789Z" style="fill:rgb(197,143,63);"/>
            <path d="M361.599,42.29C363.858,42.371 363.984,42.044 364.151,42.695C364.674,44.733 363.378,43.214 361.599,42.29Z" style="fill:rgb(43,77,61);"/>
            <path d="M770.549,51.25C771.349,51.409 772.148,51.568 772.948,51.727C772.577,52.064 772.206,52.4 771.835,52.736L770.549,51.25Z" style="fill:rgb(207,155,62);"/>
            <path d="M236.484,33.556C238.149,33.909 239.813,34.263 241.478,34.616C239.813,34.263 238.149,33.909 236.484,33.556Z" style="fill:rgb(76,99,86);fill-opacity:0.33;"/>
            <path d="M908.435,103.853C908.606,103.823 919.036,102.962 910.195,105.118C910.195,105.118 908.576,103.954 908.435,103.853Z" style="fill:rgb(138,93,36);fill-opacity:0.85;"/>
            <path d="M996.56,85.875C997.817,85.925 999.073,85.974 1000.329,86.024C998.72,86.185 997.11,86.346 995.501,86.507L996.56,85.875Z" style="fill:rgb(137,104,59);fill-opacity:0.27;"/>
            <path d="M551.505,37.312C554.571,36.799 554.393,36.794 557.502,37.35L551.505,37.312Z" style="fill:rgb(66,86,71);fill-opacity:0.41;"/>
            <path d="M187.696,61.559C187.79,61.527 192.6,60.82 188.467,62.53C188.467,62.53 187.758,61.637 187.696,61.559Z" style="fill:rgb(40,71,59);fill-opacity:0.76;"/>
            <path d="M349.485,47.457C351.521,47.151 351.399,47.041 351.521,47.151C353.967,49.368 349.636,47.522 349.485,47.457Z" style="fill:rgb(26,50,47);"/>
            <path d="M338.481,55.535C339.839,56.862 339.924,56.714 340.011,56.85L340.644,58.406C339.19,57.063 339.416,57.137 338.481,55.535Z" style="fill:rgb(89,98,58);fill-opacity:0.19;"/>
            <path d="M462.81,50.409C462.703,50.259 460.211,46.798 462.5,48.129C462.659,48.221 462.5,48.129 462.81,50.409Z" style="fill:rgb(42,65,42);"/>
            <path d="M706.36,100.879L708.368,100.846C709.077,101.085 709.786,101.324 710.495,101.563C708.933,101.424 708.769,102.107 706.36,100.879Z" style="fill:rgb(134,101,54);fill-opacity:0.22;"/>
            <path d="M686.286,65.728C687.506,66.53 687.44,66.597 686.826,67.765C686.241,66.694 685.559,66.778 686.286,65.728Z" style="fill:rgb(169,121,52);"/>
            <path d="M943.454,83.543C944.567,84.879 944.455,84.76 945.582,86.253C944.037,85.123 944.307,85.088 943.454,83.543Z" style="fill:rgb(128,97,56);fill-opacity:0.3;"/>
            <path d="M183.86,65.933C184.408,65.834 184.955,65.734 185.503,65.635C185.282,66.332 185.061,67.029 184.841,67.726C184.514,67.129 184.187,66.531 183.86,65.933Z" style="fill:rgb(49,77,67);fill-opacity:0.25;"/>
            <path d="M757.507,94.496C757.729,94.535 760.285,94.989 760.285,94.989C760.533,95.648 758.457,95.733 758.705,96.392C757.968,95.376 758.242,95.462 757.507,94.496Z" style="fill:rgb(200,141,58);fill-opacity:0.23;"/>
            <path d="M941.491,82.615C939.829,82.92 938.166,83.224 936.504,83.529C939.125,82.604 938.943,82.858 941.491,82.615Z" style="fill:rgb(121,89,47);fill-opacity:0.3;"/>
            <path d="M389.778,49.247C389.303,49.505 388.956,49.964 388.48,50.222C387.3,50.863 386.735,50.5 387.413,49.448C387.516,49.289 387.413,49.448 389.778,49.247Z" style="fill:rgb(30,50,46);"/>
            <path d="M694.519,45.602C693.146,46.072 691.773,46.541 690.4,47.011C692.807,44.697 693.486,45.885 694.519,45.602Z" style="fill:rgb(96,91,58);fill-opacity:0.33;"/>
            <path d="M770.5,43.506C772.17,43.796 773.841,44.086 775.511,44.376C773.841,44.086 772.17,43.796 770.5,43.506Z" style="fill:rgb(132,106,65);fill-opacity:0.33;"/>
            <path d="M920.565,99.385L921.543,99.39C922.899,99.584 922.743,99.6 923.658,100.468C922.627,100.107 921.596,99.746 920.565,99.385Z" style="fill:rgb(112,85,45);fill-opacity:0.23;"/>
            <path d="M1016.52,80.58C1018.477,79.788 1018.326,79.713 1020.294,80.058C1019.036,80.232 1017.778,80.406 1016.52,80.58Z" style="fill:rgb(145,99,51);fill-opacity:0.27;"/>
            <path d="M492.534,63.682C493.979,63.025 493.869,62.814 495.45,63.564L492.534,63.682Z" style="fill:rgb(40,67,47);"/>
            <path d="M779.363,74.294C778.697,75.962 778.492,75.747 776.761,76.133C777.629,75.52 778.496,74.907 779.363,74.294Z" style="fill:rgb(232,164,52);"/>
            <path d="M659.693,51.949C660.268,52.035 660.844,52.122 661.419,52.209C660.768,52.494 660.118,52.778 659.468,53.063L658.503,52.572C658.9,52.364 659.296,52.157 659.693,51.949Z" style="fill:rgb(138,120,48);fill-opacity:0.47;"/>
            <path d="M659.693,51.949C660.947,51.754 662.202,51.559 663.456,51.364C662.777,51.646 662.098,51.927 661.419,52.209C660.844,52.122 660.268,52.035 659.693,51.949Z" style="fill:rgb(127,110,47);fill-opacity:0.31;"/>
            <path d="M912.529,68.603C914.513,68.976 914.42,68.844 914.513,68.976C915.54,70.429 914.117,69.397 912.529,68.603Z" style="fill:rgb(36,68,54);"/>
            <path d="M808.458,110.79C807.143,111.085 805.827,111.38 804.511,111.675C806.509,111.013 806.36,110.928 808.458,110.79Z" style="fill:rgb(141,102,40);fill-opacity:0.27;"/>
            <path d="M588.461,48.641C590.946,49.647 591.263,49.357 591.548,50.442C591.223,50.149 591.228,50.197 588.461,48.641Z" style="fill:rgb(81,93,62);fill-opacity:0.44;"/>
            <path d="M911.481,90.483C912.164,90.858 912.847,91.234 913.53,91.61L913.321,92.003C912.708,91.496 912.094,90.99 911.481,90.483Z" style="fill:rgb(181,132,56);"/>
            <path d="M921.338,105.412C920.691,106.022 920.043,106.631 919.396,107.241C919.556,107.1 920.386,106.366 921.338,105.412Z" style="fill:rgb(128,90,44);fill-opacity:0.34;"/>
            <path d="M839.505,106.782L836.5,107.5C837.808,106.378 837.748,106.615 839.505,106.782Z" style="fill:rgb(137,109,48);fill-opacity:0.17;"/>
            <path d="M958.296,88.618C960.315,88.985 960.157,88.941 960.315,88.985C960.978,89.169 960.743,89.409 961.426,89.598L960.447,89.644C959.158,89.408 959.314,89.47 958.296,88.618Z" style="fill:rgb(133,96,50);fill-opacity:0.25;"/>
            <path d="M927.601,82.657L929.497,82.58C928.523,82.928 927.55,83.277 926.576,83.626C926.918,83.303 927.26,82.98 927.601,82.657Z" style="fill:rgb(142,109,51);fill-opacity:0.13;"/>
            <path d="M979.425,88.345C978.586,89.171 978.729,89.169 977.463,89.441C978.117,89.075 978.771,88.71 979.425,88.345Z" style="fill:rgb(151,110,60);fill-opacity:0.13;"/>
            <path d="M76.41,40.473C76.903,41.552 77.3,41.539 76.468,42.374C76.449,41.741 76.429,41.107 76.41,40.473Z" style="fill:rgb(44,77,61);"/>
            <path d="M174.598,22.201C176.44,21.881 176.322,21.85 178.286,22.044L177.451,22.287C176.5,22.259 175.549,22.23 174.598,22.201Z" style="fill:rgb(69,94,80);fill-opacity:0.32;"/>
            <path d="M808.764,93.579C807.941,94.469 807.98,94.328 806.723,94.079L808.764,93.579Z" style="fill:rgb(235,164,50);"/>
            <path d="M928.554,81.911C929.19,82.165 929.826,82.419 930.462,82.673L929.497,82.58L927.601,82.657L928.554,81.911Z" style="fill:rgb(147,111,65);fill-opacity:0.18;"/>
            <path d="M751.526,59.473C752.335,58.756 752.323,59.139 753.326,59.704L751.526,59.473Z" style="fill:rgb(200,141,60);"/>
            <path d="M918.544,99.107C920.245,98.77 920.139,98.588 921.543,99.39L920.565,99.385L918.544,99.107Z" style="fill:rgb(102,86,47);fill-opacity:0.25;"/>
            <path d="M70.586,49.441C71.689,50.306 71.615,50.408 70.794,51.59C70.725,50.873 70.655,50.157 70.586,49.441Z" style="fill:rgb(45,76,60);"/>
            <path d="M853.414,100.228C854.971,99.925 855.224,100.02 855.384,101.564C854.727,101.119 854.07,100.674 853.414,100.228Z" style="fill:rgb(75,55,27);fill-opacity:0.1;"/>
            <path d="M410.604,62.611C409.937,63.266 409.271,63.921 408.605,64.576C409.597,63.551 409.488,63.655 410.604,62.611Z" style="fill:rgb(97,107,76);fill-opacity:0.31;"/>
            <path d="M361.541,39.512C362.192,39.459 362.842,39.406 363.493,39.352C362.516,40.057 362.445,40.556 361.541,39.512Z" style="fill:rgb(42,77,62);"/>
            <path d="M70.35,54.446C70.403,55.6 71.452,54.861 71.5,55.918C71.575,57.573 71.301,55.663 70.35,54.446Z" style="fill:rgb(42,77,61);"/>
            <path d="M224.647,57.847C223.826,59.106 224.05,59.208 222.489,59.529L223.545,58.884L224.647,57.847Z" style="fill:rgb(86,97,78);fill-opacity:0.18;"/>
            <path d="M711.469,101.634L713.266,101.872L713.399,102.615L712.537,102.441C712.181,102.172 711.825,101.903 711.469,101.634Z" style="fill:rgb(138,109,71);fill-opacity:0.13;"/>
            <path d="M783.412,97.618L784.13,97.929C784.142,100.115 784.186,100.083 784.081,100.486C783.858,99.53 783.635,98.574 783.412,97.618Z" style="fill:rgb(127,90,34);fill-opacity:0.07;"/>
            <path d="M307.381,32.361C308.555,31.037 308.648,32.016 309.622,32.346C308.875,32.351 308.128,32.356 307.381,32.361Z" style="fill:rgb(42,77,62);"/>
            <path d="M600.205,57.446C599.901,58.439 599.597,59.433 599.293,60.426C599.597,59.433 599.901,58.439 600.205,57.446Z" style="fill:rgb(81,105,51);"/>
            <path d="M610.483,70.496C610.194,71.152 609.905,71.808 609.616,72.464C609.246,71.158 609.345,71.156 610.483,70.496Z" style="fill:rgb(26,53,44);"/>
            <path d="M830.625,111.619C830.223,112.206 829.821,112.793 829.42,113.379C829.821,112.793 830.223,112.206 830.625,111.619Z" style="fill:rgb(157,116,64);fill-opacity:0.19;"/>
            <path d="M486.491,45.624C488.08,45.102 488.015,45.143 489.493,45.631C488.493,45.629 487.492,45.627 486.491,45.624Z" style="fill:rgb(81,89,56);fill-opacity:0.09;"/>
            <path d="M1006.497,83.482C1007.911,82.984 1007.791,82.881 1009.339,83.024L1006.497,83.482Z" style="fill:rgb(143,103,49);fill-opacity:0.27;"/>
            <path d="M907.292,98.813C908.908,98.097 908.772,97.902 910.594,98.208C907.298,98.798 907.434,98.765 907.292,98.813Z" style="fill:rgb(150,101,37);fill-opacity:0.98;"/>
            <path d="M812.699,109.656C812.31,110.29 811.921,110.924 811.532,111.558C811.632,111.066 811.608,111.244 812.699,109.656Z" style="fill:rgb(171,133,45);fill-opacity:0.17;"/>
            <path d="M217.539,45.706C217.249,46.004 216.959,46.301 216.669,46.598L216.345,47.462C216.515,46.202 216.51,46.326 217.539,45.706Z" style="fill:rgb(105,134,87);"/>
            <path d="M977.463,89.441C976.81,89.796 976.157,90.152 975.504,90.508C976.157,90.152 976.81,89.796 977.463,89.441Z" style="fill:rgb(135,93,48);fill-opacity:0.31;"/>
            <path d="M647.73,72.412C645.446,71.103 642.649,70.386 645.11,70.911C646.095,71.121 646.745,72.203 647.73,72.412Z" style="fill:rgb(100,103,54);"/>
            <path d="M948.486,85.665C949.483,85.978 950.479,86.291 951.476,86.604C950.479,86.291 949.483,85.978 948.486,85.665Z" style="fill:rgb(124,94,48);fill-opacity:0.32;"/>
            <path d="M918.477,94.465C917.821,94.815 917.166,95.165 916.511,95.514C917.166,95.165 917.821,94.815 918.477,94.465Z" style="fill:rgb(143,109,49);fill-opacity:0.25;"/>
            <path d="M736.501,42.535C735.484,42.763 734.468,42.99 733.451,43.217C734.468,42.99 735.484,42.763 736.501,42.535Z" style="fill:rgb(129,105,62);fill-opacity:0.35;"/>
            <path d="M224.511,25.154C226.102,24.934 225.964,25.005 227.462,25.581L224.511,25.154Z" style="fill:rgb(73,100,75);fill-opacity:0.44;"/>
            <path d="M710.936,68.725C710.499,69.665 710.062,70.606 709.625,71.546C710.979,68.972 710.812,68.941 710.936,68.725Z" style="fill:rgb(177,127,55);"/>
            <path d="M712.507,43.519C711.499,43.818 710.491,44.117 709.483,44.416C710.491,44.117 711.499,43.818 712.507,43.519Z" style="fill:rgb(90,90,58);fill-opacity:0.36;"/>
            <path d="M229.277,26.726C229.68,27.321 230.083,27.915 230.486,28.51C230.083,27.915 229.68,27.321 229.277,26.726Z" style="fill:rgb(73,94,75);fill-opacity:0.37;"/>
            <path d="M339.215,33.6L340.635,34.172L339.224,34.626L339.215,33.6Z" style="fill:rgb(46,76,60);"/>
            <path d="M966.336,90.854L967.446,92.643C966.62,91.881 966.623,92.087 966.336,90.854Z" style="fill:rgb(127,96,52);fill-opacity:0.31;"/>
            <path d="M712.537,102.441L713.399,102.615L714.163,103.575C713.621,103.197 713.079,102.819 712.537,102.441Z" style="fill:rgb(93,73,44);fill-opacity:0.1;"/>
        </g>
    </g>
</svg>
