<?xml version="1.0" encoding="UTF-8" standalone="no"?>
<!DOCTYPE svg PUBLIC "-//W3C//DTD SVG 1.1//EN" "http://www.w3.org/Graphics/SVG/1.1/DTD/svg11.dtd">
<svg width="100%" height="100%" viewBox="0 0 3844 864" version="1.1" xmlns="http://www.w3.org/2000/svg" xmlns:xlink="http://www.w3.org/1999/xlink" xml:space="preserve" xmlns:serif="http://www.serif.com/" style="fill-rule:evenodd;clip-rule:evenodd;stroke-linejoin:round;stroke-miterlimit:2;">
    <g transform="matrix(1,0,0,1,3.642322,4.316095)">
        <g id="layer_10.webp" transform="matrix(3.75,0,0,3.75,0,0)">
            <path d="M346.5,0L1010.5,0C1015,0 1020.319,-2.59 1023.999,0L1023.999,22.5C1016.34,23.433 1017.165,26.222 1009.53,26.877C1000.941,27.613 992.922,20.473 990.668,19.281C987.581,17.647 993.289,15.039 995.682,20.424C996.278,20.72 996.875,21.017 997.472,21.313C1003.112,21.277 1000.433,15.727 999.25,14.897C996.005,12.619 983.367,14.684 972.422,12.948C963.329,11.506 970.5,23.362 969.308,24.254C959.206,31.807 949.422,15.436 896.531,29.566C896.38,29.606 892.112,33.772 901.508,33.841C979.523,34.407 979.358,27.818 979.55,27.749C982.965,35.269 984.196,34.69 992.509,34.853C1008.248,36.563 1007.992,37.196 1023.999,37.5L1023.999,43.5C943.84,38.299 934.886,47.636 921.521,45.013C916.386,44.006 909.899,41.536 906.349,42.689C892.235,32.075 884.366,32.354 871.495,32.268C850.704,35.795 848.598,33.5 835.567,50.055C826.525,48.175 826.635,47.883 817.482,49.306C817.278,49.338 814.953,49.699 815.628,47.528C818.406,38.59 813.772,39.065 813.145,33.556C812.243,25.629 810.05,26.91 803.54,22.42C803.537,20.632 803.653,20.686 802.754,19.232C796.57,17.269 796.037,23.134 790.469,19.565C783.474,10.38 765.13,23.948 763.727,23.169C752.111,16.721 747.841,22.921 752.168,25.928C753.331,26.737 752.332,29.864 734.487,26.811C721.052,21.249 684.393,26.054 666.5,23.602C656.241,22.197 667.361,26.001 667.57,26.046C673.944,27.423 703.553,24.734 705.696,27.424C707.577,29.785 724.015,30.108 725.624,30.14C725.639,30.908 725.655,31.676 725.67,32.445C729.682,34.826 755.687,37.906 759.141,30.349C764.129,19.436 762.482,33.389 762.543,33.438C764.252,34.815 776.103,34.891 777.288,34.899C777.19,35.653 777.02,36.964 768.383,38.241C767.742,38.229 758.494,38.051 763.121,44.274C762.626,45.037 762.13,45.8 761.635,46.563C761.149,48.848 760.662,51.133 760.176,53.418L759.615,56.536C758.898,63.109 759.808,63.003 759.696,63.553C758.531,69.234 755.188,69.495 759.674,79.431C754.621,83.198 708.136,80.089 685.518,82.899C681.63,83.381 671.844,84.597 636.548,83.099C616.864,82.264 616.845,79.075 597.53,82.91L594.498,82.403C590.413,81.842 590.605,82.271 586.535,81.682L585.5,81.502C571.4,84.177 571.357,79.718 406.107,80.315C410.613,70.257 409.734,67.943 408.061,60.778C406.052,57.532 403.852,57.255 406.533,54.541C430.675,32.623 398.223,10.661 395.866,21.654C396.158,22.2 396.45,22.747 396.742,23.293L397.503,24.459C396.363,25.244 396.534,25.237 396.388,26.538C390.703,15.166 387.334,19.001 386.416,17.577C378.44,5.218 376.775,6.838 362.567,3.204C356.81,1.732 351.398,6.546 346.5,0Z" style="fill:rgb(99,173,182);fill-opacity:1;"/>
            <path d="M244.421,4.828C252.319,2.169 252.294,3.684 260.511,4.518C260.105,8.447 260.547,8.788 264.45,9.689C275.768,12.304 276.025,11.621 285.42,18.559C285.432,19.17 285.444,19.78 285.455,20.391C285.42,20.388 277.535,18.789 272.735,20.84C272.114,21.105 271.981,22.78 273.466,22.682C273.988,22.648 308.962,20.925 279.698,24.651C275.637,25.168 310.379,37.691 296.348,18.603C290.858,11.134 336.426,7.617 342.477,28.507C344.304,34.815 356.477,28.579 359.245,51.552C359.675,55.122 379.659,52.029 368.755,75.53C368.01,76.867 367.266,78.205 366.522,79.542C368.183,79.729 393.833,82.624 387.333,77.713C387.113,77.547 387.126,77.564 384.54,75.694L388.889,71.976C396.202,74.462 386.876,85.675 394.201,83C402.831,79.849 395.191,63.073 394.478,61.508C394.407,61.352 394.478,61.508 394.488,59.37C396.962,60.315 396.89,60.277 398.297,62.63C410.795,83.541 389.345,94.866 389.311,95.507C389.247,96.721 392.247,100.073 402.117,87.325C408.934,91.666 410.527,89.554 414.887,96.24C417.641,100.464 497.588,95.99 502.512,96.577C499.598,99.899 490.926,102.176 489.805,105.662C489.135,107.745 487.368,103.351 486.769,105.374C486.108,107.607 486.919,107.307 488.645,109.789C466.334,119.589 456.09,125.666 453.382,127.272C434.197,138.419 433.001,146.028 428.155,138.757C422.834,130.772 412.151,137.832 410.82,129.465C408.163,112.759 404.009,110.324 402.513,109.448C395.125,117.743 372.782,109.111 379.674,115.279C380.78,116.268 392.35,112.218 398.624,118.45C399.201,120.003 403.067,130.392 391.737,137.976C384.243,134.284 383.924,136.684 375.482,136.411C375.367,136.408 375.482,136.411 374.231,137.113C372.883,136.455 371.919,135.986 355.483,136.722C355.312,136.729 355.483,136.722 353.469,137.45C351.467,136.68 351.386,136.785 326.695,138.849C323.92,139.081 320.121,143.365 319.662,143.882C313.213,145.138 313.528,148.429 307.5,146.154C306.174,145.653 306.293,146.286 303.506,148.464C299.046,148.491 301.47,139.401 305.321,137.193C311.348,133.737 318.988,118.461 309.276,109.949C308.304,109.233 307.333,108.517 306.362,107.801C302.931,106.251 302.55,106.573 302.429,105.525C301.901,100.958 300.147,102.604 295.518,102.765C286.889,103.065 289.037,109.01 280.554,109.859C279.82,107.2 278.831,106.198 281.583,105.71C282.962,105.465 284.166,106.64 284.886,102.81C288.216,105.682 287.285,101.928 287.365,101.773C284.233,95.535 282.473,98.496 275.5,99.448C270.342,100.152 270.612,98.786 265.5,98.705C192.611,97.553 192.225,91.889 186.682,94.91C183.586,96.598 185.507,100.296 176.816,100.584C175.285,93.51 165.562,93.733 171.815,89.885C180.118,84.774 178.608,83.32 185.644,76.575C190.694,75.312 190.376,74.221 190.007,69.182C190.201,67.685 190.074,66.286 182.533,66.985C184.036,64.578 183.712,64.409 186.402,63.326C189.096,65.798 190.94,66.518 191.181,62.743C190.96,58.514 189.193,60.001 187.532,59.465C182.833,58.625 182.958,58.272 182.548,58.247C167.444,57.329 185.968,56.027 186.318,56.003C186.814,55.968 189.146,54.85 183.618,50.402C188.229,47.809 188.237,47.294 188.245,46.826C185.191,46.747 185.399,46.684 182.282,46.815C178.098,45.785 174.442,44.715 178.654,42.803C184.725,40.047 175.499,35.578 165.51,36.644C160.214,37.21 159.786,27.61 159.368,25.663C162.334,25.376 162.901,26.221 166.52,21.515C169.712,17.365 178.535,19.774 176.954,16.362C175.884,14.053 174.843,8.529 203.673,6.638C206.343,8.489 206.067,8.712 207.475,8.749C228.343,9.296 228.46,7.539 248.515,13.16C249.23,13.361 252.529,11.538 244.421,4.828Z" style="fill:rgb(144,194,194);fill-opacity:1;"/>
            <path d="M402.513,109.448C404.009,110.324 408.163,112.759 410.82,129.465C412.151,137.832 422.834,130.772 428.155,138.757C433.001,146.028 434.197,138.419 453.382,127.272C460.762,131.382 464.106,126.155 477.496,127.56C479.733,127.795 479.361,124.837 505.477,124.841C528.906,124.845 531.62,120.525 532.813,118.626C532.899,118.49 532.813,118.626 534.313,117.288C536.573,120.342 559.815,116.407 558.202,122.46C556.913,127.296 563.041,124.774 571.385,125.974C582.953,127.639 562.475,130.54 561.617,130.662C560.954,131.75 561.671,131.595 562.513,132.344C569.042,132.003 576.152,132.429 580.719,124.145C581.235,123.768 581.751,123.39 582.267,123.012L582.502,122.503C583.302,122.584 583.149,122.261 592.528,121.816C595.89,121.657 609.775,123.349 619.689,117.228C624.819,122.38 628.321,121.15 636.24,127.844C638.067,129.388 638.216,130.865 642.496,132.462C636.355,137.95 633.763,127.677 614.424,136.287C598.799,143.244 522.152,140.208 521.879,140.736C519.364,145.616 561.53,148.133 545.481,148.447C473.155,149.862 381.452,140.854 453.487,148.181C506.742,153.598 530.729,153.991 537.463,154.101C535.544,156.023 535.86,157.1 530.523,156.883C526.889,156.734 526.796,156.468 526.249,157.059C523.286,160.261 521.347,157.212 518.83,160.723C515.986,164.687 515.174,162.881 510.431,162.942C499.492,165.42 499.236,165.294 498.358,164.863C491.376,161.433 491.369,161.833 483.508,162.081C475.049,146.03 461.983,151.966 458.918,159.309C457.841,159.132 455.586,158.762 445.419,161.233C440.237,162.492 445.935,168.48 444.911,169.687C444.526,170.141 443.731,168.871 438.59,173.609C431.54,174.045 432.909,176.939 426.404,180.418C426.083,180.453 415.556,181.588 423.595,183.316C423.781,183.356 423.595,183.316 425.857,184.052C437.934,190.22 448.236,179.218 454.255,187.402C449.142,192.94 447.457,187.507 440.435,188.352C431.29,189.453 431.5,189.061 422.466,188.878C408.24,188.591 408.412,188.694 394.114,188.51C392.52,187.925 389.482,187.556 389.074,187.507C389.309,187.368 391.811,185.887 391.855,185.534C392.199,182.767 390.668,184.924 388.203,185.939C381.357,181.095 378.203,187.977 372.402,186.873C368.676,186.165 368.676,180.169 358.683,185.857C354.425,188.28 353.544,184.907 349.476,187.465C344.176,190.798 346.594,185.94 346.799,185.792C352.128,181.946 350.538,180.782 348.46,174.517C350.795,171.81 350.676,171.417 354.366,171.357C356.287,170.164 356.213,170.471 358.391,170.013C358.675,170.047 358.959,170.082 359.243,170.116C359.241,166.487 358.281,166.956 355.545,164.467C352.289,161.505 360.205,161.581 360.493,161.452C364.939,159.47 368.868,162.123 370.426,156.552C362.478,150.655 346.363,153.656 344.298,154.041C342.553,153.149 342.628,153.287 342.553,153.149C341.322,150.887 340.809,151.938 338.463,153.117C335.819,152.96 336.015,152.772 333.92,151.274C331.566,144.735 343.35,149.716 354.441,146.332C356.17,145.804 377.496,147.279 379.498,147.417C380.876,145.402 381.994,143.968 379.507,144.195C379.105,144.232 379.146,143.916 374.486,143.764C343.338,142.747 381.967,140.997 383.497,140.563C383.505,142.882 384.584,141.906 386.591,140.821C389.345,139.621 389.215,139.758 391.737,137.976C403.067,130.392 399.201,120.003 398.624,118.45C392.35,112.218 380.78,116.268 379.674,115.279C372.782,109.111 395.125,117.743 402.513,109.448Z" style="fill:rgb(196,214,184);fill-opacity:1;"/>
            <path d="M558.518,94.472C560.482,96.182 562.446,97.892 564.41,99.602C565.784,99.12 604.018,97.23 610.518,99.168C641.817,98.069 641.862,99.231 644.507,98.599C646.132,99.133 645.963,99.038 647.527,98.644C648.565,98.556 656.506,97.887 660.506,97.52C746.543,101.233 758.299,93.568 765.603,98.509C766.427,104.87 763.039,103.033 757.795,106.855C753.744,109.807 754.685,110.412 753.022,115.266C748.81,119.731 738.232,118.907 745.432,123.613C745.894,123.915 750.278,126.781 741.475,129.271C734.298,130.134 733.729,132.044 730.31,128.766C719.309,118.219 711.177,124.42 695.538,119.363C690.809,117.834 679.632,121.428 676.7,119.152C659.682,105.939 644.763,111.008 646.565,129.502C645.711,130.896 645.752,130.751 644.595,131.738L642.496,132.462C638.216,130.865 638.067,129.388 636.24,127.844C628.321,121.15 624.819,122.38 619.689,117.228C616.956,114.245 611.522,104.32 590.491,110.471C578.876,113.867 582.45,121.956 582.502,122.503L582.267,123.012C581.655,123.271 581.043,123.53 580.43,123.789C579.969,123.599 574.663,121.408 574.663,121.408C570.563,113.648 565.786,123.828 563.897,121.203C558.007,113.016 552.006,111.608 534.313,117.288C532.813,118.626 532.899,118.49 532.813,118.626C531.62,120.525 528.906,124.845 505.477,124.841C479.361,124.837 479.733,127.795 477.496,127.56C464.106,126.155 460.762,131.382 453.382,127.272C456.09,125.666 466.334,119.589 488.645,109.789C508.79,99.367 508.725,99.332 510.479,98.439C530.19,90.869 534.088,85.003 558.518,94.472Z" style="fill:rgb(156,199,183);"/>
            <path d="M759.674,79.431C762.152,82.439 761.756,82.645 764.901,85.031C770.55,89.317 766.261,90.556 765.56,97.519L765.603,98.509C758.299,93.568 746.543,101.233 660.506,97.52C656.506,97.887 648.565,98.556 647.527,98.644C646.52,98.629 645.513,98.614 644.507,98.599C641.862,99.231 641.817,98.069 610.518,99.168C604.018,97.23 565.784,99.12 564.41,99.602C562.446,97.892 560.482,96.182 558.518,94.472C534.088,85.003 530.19,90.869 510.479,98.439C508.966,97.088 509.101,96.334 502.512,96.577C497.588,95.99 417.641,100.464 414.887,96.24C410.527,89.554 408.934,91.666 402.117,87.325L406.107,80.315C571.357,79.718 571.4,84.177 585.5,81.502C585.845,81.562 586.19,81.622 586.535,81.682C590.605,82.271 590.413,81.842 594.498,82.403C596.006,83.153 595.898,83.002 597.53,82.91C616.845,79.075 616.864,82.264 636.548,83.099C671.844,84.597 681.63,83.381 685.518,82.899C708.136,80.089 754.621,83.198 759.674,79.431Z" style="fill:rgb(133,191,185);"/>
            <path d="M617.942,148.126C620.989,151.41 617.862,151.379 613.709,152.76C604.659,149.448 585.316,156.797 581.877,161.777C570.406,178.393 591.482,173.454 601.593,176.347C600.873,176.684 600.154,177.02 599.434,177.357C576.952,177.033 577.114,176.021 554.53,176.861C538.73,179.204 538.812,179.085 537.466,179.391C512.452,185.084 553.035,186.264 554.506,186.307C546.994,196.323 531.292,188.086 534.59,195.905C533.017,196.544 522.871,200.664 513.389,196.87C514.909,194.387 514.852,194.366 515.031,194.189C515.74,193.484 516.002,194.284 516.735,193.487C517.682,192.458 508.812,191.828 505.503,193.907C489.789,196.046 490.655,198.997 473.567,202.832C468.615,203.943 468.156,203.288 465.426,207.426C465.016,208.048 458.146,210.288 457.5,210.499C441.248,215.798 441.521,210.34 425.495,204.509C413.544,200.16 412.504,194.495 403.774,201.935C397.962,206.888 391.315,203.294 391.615,199.502C388.198,194.825 388.873,188.433 388.977,187.452L389.074,187.507C389.482,187.556 392.52,187.925 394.114,188.51C408.412,188.694 408.24,188.591 422.466,188.878C431.5,189.061 431.29,189.453 440.435,188.352C447.457,187.507 449.142,192.94 454.255,187.402C448.236,179.218 437.934,190.22 425.857,184.052C425.914,182.056 425.744,182.218 426.404,180.418C432.909,176.939 431.54,174.045 438.59,173.609C438.247,176.625 439.551,176.656 438.393,179.423C435.456,186.443 444.529,179.197 446.393,176.476C448.509,173.387 449.223,174.629 458.637,173.75C459.107,173.706 457.902,171.751 463.696,170.7C464.558,170.543 462.538,169.653 466.463,160.105C471.803,160.163 472.599,157.846 479.628,163.374C479.626,163.643 479.597,166.453 480.388,166.651C481.339,166.889 481.201,166.544 492.554,168.073C494.029,168.272 507.85,170.134 510.431,162.942C515.174,162.881 515.986,164.687 518.83,160.723C521.347,157.212 523.286,160.261 526.249,157.059C526.796,156.468 526.889,156.734 530.523,156.883C535.86,157.1 535.544,156.023 537.463,154.101C548.219,153.793 548.258,155.073 558.544,151.644C560.719,150.919 560.715,151.245 585.516,150.72C587.439,150.717 596.15,150.704 609.523,149.656C610.841,149.637 612.16,149.617 613.478,149.598C614.966,149.107 616.454,148.616 617.942,148.126Z" style="fill:rgb(204,214,175);fill-opacity:0.99;"/>
            <path d="M613.709,152.76C606.174,155.471 606.227,155.469 605.571,155.688C602.463,156.722 602.519,156.409 599.473,157.417C587.083,161.516 589.264,166.175 590.472,165.438C592.509,164.195 608.75,154.285 619.493,158.51C623.357,160.03 612.411,162.437 616.599,163.277C626.482,165.259 636.415,152.356 636.37,159.297C613.26,167.814 644.299,162.876 711.483,165.896C718.967,166.232 730.418,165.79 739.504,167.052C736.414,169.997 735.7,170.072 735.285,170.117C685.346,175.419 789.783,172.946 794.526,172.834C818.588,172.264 835.659,162.456 839.121,179.473C840.93,188.365 806.948,187.586 805.378,186.785C790.613,179.25 789.57,187.439 735.508,186.397C607.588,183.932 607.726,188.437 554.506,186.307C553.035,186.264 512.452,185.084 537.466,179.391C538.812,179.085 538.73,179.204 554.53,176.861C577.114,176.021 576.952,177.033 599.434,177.357C601.008,181.201 602.065,179.379 602.174,179.141C603.14,177.022 601.83,176.619 601.593,176.347C591.482,173.454 570.406,178.393 581.877,161.777C585.316,156.797 604.659,149.448 613.709,152.76Z" style="fill:rgb(230,231,192);"/>
            <path d="M760.176,53.418C761.147,54.644 760.97,54.695 762.5,55.133C763.44,55.402 763.01,55.741 762.678,61.748C774.929,67.098 775.374,64.755 788.499,66.488C796.848,67.589 821.737,68.064 830.425,70.765C833.687,73.7 834.075,72.559 838.502,72.448C841,72.385 840.252,74.321 842.606,74.273C844.119,74.242 843.859,73.726 846.082,71.69C848.245,76.481 850.089,74.485 854.06,77.976C859.527,82.782 860.876,78.4 867.344,80.874C876.729,84.462 876.976,84.755 876.774,85.574C876.068,88.441 877.977,87.771 878.675,90.428C879.431,93.304 880.172,92.593 882.341,94.678C882.577,94.904 885.367,97.282 884.84,91.446C882.827,69.169 873.433,76.456 851.558,71.142C851.661,70.983 851.717,71.126 853.087,69.339C872.034,73.548 872.254,69.704 925.515,70.835C927.971,73.408 929.706,72.944 928.6,76.346C894.247,63.242 883.431,89.716 889.48,89.579C892.164,89.519 892.277,81.283 898.275,82.475C898.136,82.87 894.267,93.855 899.547,87.55C903.516,82.812 905.651,87.548 910.804,83.904C919.236,77.942 915.487,93.941 918.499,93.465C927.759,92.004 930.645,90.777 933.451,101.523C934.281,104.698 943.237,101.049 944.825,111.505C937.023,111.46 897.459,106.161 892.489,106.208C869.377,106.431 810.543,100.19 765.56,97.519C766.261,90.556 770.55,89.317 764.901,85.031C761.756,82.645 762.152,82.439 759.674,79.431C755.188,69.495 758.531,69.234 759.696,63.553C759.808,63.003 758.898,63.109 759.615,56.536L760.176,53.418Z" style="fill:rgb(159,208,198);"/>
            <path d="M1023.999,152.5L1023.999,157.5C1014.094,161.114 1006.208,159.566 972.498,160.701C941.823,155.526 941.356,154.694 939.545,156.637C936.976,159.393 940.541,160.463 938.49,163.602C931.92,163.263 897.353,166.832 860.495,165.77C831.019,163.6 831.073,161.077 801.796,164.657C800.308,156.898 794.516,163.568 789.259,157.72C788.418,156.785 761.157,150.144 768.508,164.41C754.676,163.9 749.704,164.377 739.504,167.052C730.418,165.79 718.967,166.232 711.483,165.896C644.299,162.876 613.26,167.814 636.37,159.297C636.415,152.356 626.482,165.259 616.599,163.277C612.411,162.437 623.357,160.03 619.493,158.51C608.75,154.285 592.509,164.195 590.472,165.438C589.264,166.175 587.083,161.516 599.473,157.417C602.519,156.409 602.463,156.722 605.571,155.688C606.227,155.469 606.174,155.471 613.709,152.76C617.862,151.379 620.989,151.41 617.942,148.126C561.521,144.824 629.472,146.049 630.489,146.076C661.283,148.051 665.555,147.033 665.202,156.525C665.032,161.092 682.945,156.524 684.436,156.144C687.289,155.416 711.156,157.542 702.638,152.386C695.026,147.778 721.25,152.787 724.556,144.702L731.505,144.796C729.632,143.789 723.789,140.647 705.512,139.257C683.24,137.564 710.901,136.857 716.489,136.09C716.8,136.893 717.111,137.697 717.422,138.501C720.093,139.833 724.221,141.892 754.503,142.596C756.339,144.449 755.883,144.949 758.416,145.536C760.91,147.126 775.244,146.364 789.504,145.986C788.492,147.386 788.485,147.184 787.5,148.757C787.117,149.368 784.268,148.959 783.544,149.572C780.178,152.424 786.481,156.831 789.512,150.5C789.678,150.557 791.594,151.21 791.594,151.21C820.458,150.614 887.878,158.063 912.424,154.058C921.235,152.62 921.196,152.812 1023.999,152.5Z" style="fill:rgb(203,215,176);"/>
            <path d="M1023.999,165.5L1023.999,192.5C981.562,187.102 947.689,193.566 925.511,192.682C923.154,192.589 923.902,195.054 921.486,194.574C919.131,194.106 910.884,192.469 891.53,192.85C888.685,192.906 888.434,194.567 888.104,194.75C881.009,190.032 874.614,197.454 863.51,196.076C860.479,195.7 853.691,192.205 845.584,194.746C843.052,193.933 843.48,193.169 839.466,192.889C839.702,192.709 842.317,190.715 842.375,190.578C842.723,189.739 844.13,186.351 852.494,185.448C863.262,184.284 852.123,175.656 860.495,165.77C897.353,166.832 931.92,163.263 938.49,163.602C960.218,163.635 959.946,166.801 981.505,165.747C984.653,165.593 1009.992,160.564 1023.999,165.5Z" style="fill:rgb(228,225,167);"/>
            <path d="M1023.999,215.5L1023.999,227.5C1021.05,227.859 1021.288,227.908 1018.5,228.999L1017.5,228.999C1014.778,226.98 1014.69,226.599 1011.448,227.751C1004.355,227.082 1004.179,227.674 1003.792,227.197C1000.175,222.737 996.767,225.377 994.485,224.539C978.657,218.732 974.025,229.747 968.76,226.154C965.85,224.168 950.388,221.827 949.832,221.155C945.015,215.331 922.229,216.74 921.8,216.192C914.797,207.246 891.451,221.602 846.42,227.217C842.424,227.715 842.61,226.795 838.459,226.862C807.102,227.366 807.214,225.288 804.54,225.758C797.046,227.076 791.249,223.769 778.563,225.899C770.64,227.229 768.74,227.988 768.128,222.674C768.465,219.967 769.361,219.987 768.228,217.618C764.756,210.357 777.539,212.938 779.393,211.301C785.081,206.277 786.452,209.551 793.328,206.167C808.217,198.838 822.587,209.344 845.584,194.746C853.691,192.205 860.479,195.7 863.51,196.076C874.614,197.454 881.009,190.032 888.104,194.75C889.447,199.082 888.013,199.847 887.382,202.482C886.371,206.709 908.404,200.58 917.422,205.663C926.071,210.538 929.169,205.794 936.508,206.442C951.083,207.731 950.725,209.745 965.515,209.737C967.776,209.572 993.251,207.71 993.72,212.461C994.123,216.541 1012.641,215.421 1023.999,215.5Z" style="fill:rgb(251,236,176);fill-opacity:0.98;"/>
            <path d="M839.466,192.889C843.48,193.169 843.052,193.933 845.584,194.746C822.587,209.344 808.217,198.838 793.328,206.167C786.452,209.551 785.081,206.277 779.393,211.301C777.539,212.938 764.756,210.357 768.228,217.618C769.361,219.987 768.465,219.967 768.128,222.674C764.264,222.523 763.642,220.818 761.53,223.555C760.556,223.22 759.582,222.885 758.609,222.551C758.747,223.097 758.885,223.643 759.023,224.19C757.38,225.698 757.15,225.417 755.442,223.879C755.274,220.102 755.3,220.306 754.351,216.592C753.612,213.302 754.41,212.738 752.627,212.259C739.182,208.65 734.112,209.317 732.501,209.528C718.628,211.351 718.692,210.553 673.492,211.16C632.654,211.709 632.1,209.654 625.125,213.791C614.324,207.806 614.016,208.621 601.56,208.009C601.244,207.994 600.834,207.973 599.473,204.653C590.756,204.211 590.102,198.772 583.23,204.152C582.328,204.858 581.129,202.202 570.213,210.13C568.484,211.386 560.389,213.37 559.516,213.584C558.456,213.843 559.1,211.553 546.592,209.242C543.737,208.715 543.865,208.417 543.03,205.764C542.278,203.373 533.023,203.145 538.532,198.528C539.338,198.232 540.935,199.305 541.134,196.763C547.639,201.135 549.594,195.977 554.537,195.824C573.077,195.252 572.946,195.867 574.49,195.459C586.261,192.349 586.496,196.026 598.472,194.262C606.882,193.023 628.735,197.762 649.505,194.53C663.463,192.358 680.486,194.365 680.492,194.365C716.596,190.354 722.781,197.587 742.477,194.28L743.503,194.296C745.087,194.84 744.936,194.974 746.49,194.62C749.881,194.165 750.209,194.227 750.528,194.288C761.711,196.427 764.395,194.306 769.508,193.921C771.263,193.789 789.704,192.401 791.479,192.901C806.451,197.128 807.918,190.143 839.466,192.889Z" style="fill:rgb(242,229,159);fill-opacity:0.99;"/>
            <path d="M1023.999,114.5L1023.999,132.5C1021.974,132.202 1021.97,132.656 998.478,130.771C996.313,127.279 995.471,128.873 991.497,129.224L990.511,129.184C989.51,129.245 988.508,129.307 987.506,129.368L982.503,129.382C980.366,128.947 980.494,129.048 978.466,129.223C930.626,126.319 930.185,128.607 924.831,125.149C923.323,124.176 923.411,124.499 921.459,124.225C917.489,123.942 909.553,124.241 908.518,124.28C896.38,123.09 896.408,124.598 884.506,122.472C876.91,121.115 876.561,123.896 869.452,120.75C863.916,118.3 861.199,119.293 860.522,119.54C856.278,119.431 855.118,119.694 854.66,119.798C853.505,119.559 854.533,118.602 853.5,118.389C853.257,118.339 853.31,118.531 850.444,118.928C847.11,119.389 821.067,118.456 818.514,118.365C816.838,118.391 815.162,118.418 813.486,118.445C802.919,118.53 760.821,116.694 757.396,115.234C755.126,115.832 755.314,115.657 753.022,115.266C754.685,110.412 753.744,109.807 757.795,106.855C763.039,103.033 766.427,104.87 765.603,98.509L765.56,97.519C810.543,100.19 869.377,106.431 892.489,106.208C897.459,106.161 937.023,111.46 944.825,111.505C945.582,112.986 945.87,112.575 947.502,112.506C948.095,113.012 954.706,118.649 957.085,110.73C962.414,111.322 1011.711,116.798 1023.999,114.5Z" style="fill:rgb(177,212,192);"/>
            <path d="M1023.999,132.5L1023.999,145.5C1021.547,145.567 945.3,147.65 993.488,142.427C1037.72,137.633 965.046,142.516 957.503,142.642C921.563,143.242 917.698,141.371 920.552,140.587C920.595,140.575 1028.462,137.685 938.499,135.897C904.512,135.221 853.252,137.89 866.673,130.744C867.272,130.425 885.612,125.821 876.518,126.34C850.822,127.806 848.311,133.135 847.267,135.35C846.398,137.194 766.399,134.572 815.491,139.646C859.504,144.194 865.24,140.082 862.198,142.262C861.732,142.597 839.481,146.001 805.549,140.771C783.797,137.418 709.225,142.118 759.363,135.074C789.344,130.862 732.15,135.302 722.583,135.171C722.26,134.915 721.937,134.659 721.614,134.403C725.741,131.959 725.919,133.214 730.877,132.976C740.124,131.543 746.265,132.799 741.475,129.271C750.278,126.781 745.894,123.915 745.432,123.613C738.232,118.907 748.81,119.731 753.022,115.266C755.314,115.657 755.126,115.832 757.396,115.234C760.821,116.694 802.919,118.53 813.486,118.445C812.02,123.858 812.448,137.252 814.498,130.499C815.219,128.123 817.157,128.259 815.647,126.434C814.902,125.533 816.454,123.893 816.775,123.812C822.74,122.297 818.909,120.21 818.514,118.365C821.067,118.456 847.11,119.389 850.444,118.928C853.31,118.531 853.257,118.339 853.5,118.389C854.533,118.602 853.505,119.559 854.66,119.798C851.718,121.064 851.734,121.136 848.499,120.49C845.979,119.987 847.026,123.261 849.486,122.553C854.375,121.147 856.321,124.037 857.387,121.415L858.47,120.354C859.154,120.083 859.838,119.812 860.522,119.54C861.199,119.293 863.916,118.3 869.452,120.75C876.561,123.896 876.91,121.115 884.506,122.472C896.408,124.598 896.38,123.09 908.518,124.28C911.306,128.176 912.158,126.534 916.575,128.341C918.912,129.296 917.713,126.66 921.459,124.225C923.411,124.499 923.323,124.176 924.831,125.149C930.185,128.607 930.626,126.319 978.466,129.223L982.503,129.382L987.506,129.368L990.511,129.184L991.497,129.224C998.012,130.914 997.931,130.603 998.478,130.771C1021.97,132.656 1021.974,132.202 1023.999,132.5Z" style="fill:rgb(187,215,190);"/>
            <path d="M768.508,164.41C780.235,166.859 780.675,164.581 791.463,169.565C796.732,171.999 801.277,165.411 801.796,164.657C831.073,161.077 831.019,163.6 860.495,165.77C852.123,175.656 863.262,184.284 852.494,185.448C844.13,186.351 842.723,189.739 842.375,190.578C842.317,190.715 839.702,192.709 839.466,192.889C807.918,190.143 806.451,197.128 791.479,192.901C789.704,192.401 771.263,193.789 769.508,193.921C764.395,194.306 761.711,196.427 750.528,194.288C750.209,194.227 749.881,194.165 746.49,194.62C744.49,194.129 744.708,194.07 742.477,194.28C722.781,197.587 716.596,190.354 680.492,194.365C680.486,194.365 663.463,192.358 649.505,194.53C628.735,197.762 606.882,193.023 598.472,194.262C586.496,196.026 586.261,192.349 574.49,195.459C572.946,195.867 573.077,195.252 554.537,195.824C549.594,195.977 547.639,201.135 541.134,196.763C541.018,196.652 540.981,196.775 539.319,195.921C538.419,195.805 534.968,195.895 534.59,195.905C531.292,188.086 546.994,196.323 554.506,186.307C607.726,188.437 607.588,183.932 735.508,186.397C789.57,187.439 790.613,179.25 805.378,186.785C806.948,187.586 840.93,188.365 839.121,179.473C835.659,162.456 818.588,172.264 794.526,172.834C789.783,172.946 685.346,175.419 735.285,170.117C735.7,170.072 736.414,169.997 739.504,167.052C749.704,164.377 754.676,163.9 768.508,164.41Z" style="fill:rgb(227,225,167);fill-opacity:1;"/>
            <path d="M1023.999,145.5L1023.999,152.5C921.196,152.812 921.235,152.62 912.424,154.058C887.878,158.063 820.458,150.614 791.594,151.21C791.594,151.21 789.678,150.557 789.512,150.5C799.806,146.363 839.104,148.154 866.494,148.099C910.885,148.011 950.774,144.485 919.527,144.841C857.318,145.55 822.034,144.857 797.499,145.767C796.517,144.626 795.535,143.485 794.552,142.344C774.408,142.312 774.594,142.384 754.503,142.596C724.221,141.892 720.093,139.833 717.422,138.501C720.296,137.205 720.312,137.386 722.583,135.171C732.15,135.302 789.344,130.862 759.363,135.074C709.225,142.118 783.797,137.418 805.549,140.771C839.481,146.001 861.732,142.597 862.198,142.262C865.24,140.082 859.504,144.194 815.491,139.646C766.399,134.572 846.398,137.194 847.267,135.35C848.311,133.135 850.822,127.806 876.518,126.34C885.612,125.821 867.272,130.425 866.673,130.744C853.252,137.89 904.512,135.221 938.499,135.897C1028.462,137.685 920.595,140.575 920.552,140.587C917.698,141.371 921.563,143.242 957.503,142.642C965.046,142.516 1037.72,137.633 993.488,142.427C945.3,147.65 1021.547,145.567 1023.999,145.5Z" style="fill:rgb(252,252,212);"/>
            <path d="M644.595,131.738C653.546,136.594 664.348,130.007 688.552,134.591C685.428,140.646 690.172,140.958 724.556,144.702C721.25,152.787 695.026,147.778 702.638,152.386C711.156,157.542 687.289,155.416 684.436,156.144C682.945,156.524 665.032,161.092 665.202,156.525C665.555,147.033 661.283,148.051 630.489,146.076C629.472,146.049 561.521,144.824 617.942,148.126C616.454,148.616 614.966,149.107 613.478,149.598L609.523,149.656C596.15,150.704 587.439,150.717 585.516,150.72C560.715,151.245 560.719,150.919 558.544,151.644C548.258,155.073 548.219,153.793 537.463,154.101C530.729,153.991 506.742,153.598 453.487,148.181C381.452,140.854 473.155,149.862 545.481,148.447C561.53,148.133 519.364,145.616 521.879,140.736C522.152,140.208 598.799,143.244 614.424,136.287C633.763,127.677 636.355,137.95 642.496,132.462L644.595,131.738Z" style="fill:rgb(214,226,194);"/>
            <path d="M339.5,0L346.5,0C351.398,6.546 356.81,1.732 362.567,3.204C376.775,6.838 378.44,5.218 386.416,17.577C387.334,19.001 390.703,15.166 396.388,26.538C397.562,29.864 404.107,42.978 393.891,53.76C392.687,54.76 392.261,54.197 391.668,55.606C391.622,55.716 391.668,55.606 390.515,56.55C386.109,58.873 385.766,59.705 387.813,64.344C389.496,68.161 390.152,68.061 388.889,71.976L384.54,75.694C380.998,74.976 384.748,70.454 380.385,67.706C374.737,64.15 370.546,80.473 368.755,75.53C379.659,52.029 359.675,55.122 359.245,51.552C356.477,28.579 344.304,34.815 342.477,28.507C336.426,7.617 290.858,11.134 296.348,18.603C310.379,37.691 275.637,25.168 279.698,24.651C308.962,20.925 273.988,22.648 273.466,22.682C271.981,22.78 272.114,21.105 272.735,20.84C277.535,18.789 285.42,20.388 285.455,20.391C285.444,19.78 285.432,19.17 285.42,18.559C276.025,11.621 275.768,12.304 264.45,9.689C260.547,8.788 260.105,8.447 260.511,4.518C265.853,4.009 265.997,2.694 269.232,4.893C276.797,10.037 277.437,7.8 286.503,8.434C290.251,8.843 290.229,8.926 290.55,8.876C302.625,7.003 302.409,9.352 303.419,9.148C307.019,8.421 339.801,1.799 346.714,24.427C348.363,29.824 350.019,28.259 355.351,29.969C379.374,37.676 373.564,49.909 374.946,51.057C387.382,61.389 386.967,44.336 383.005,37.78C362.998,4.669 356.206,9.678 351.552,9.96C345.799,10.308 342.749,3.685 339.5,0Z" style="fill:rgb(191,221,225);"/>
            <path d="M790.469,19.565C785.626,20.08 785.672,19.617 781.681,20.912C770.665,24.487 786.647,22.317 787.648,23.326C789.993,25.69 790.307,24.618 793.518,24.881C805.855,25.892 801.687,31.158 803.668,34.403C805.728,37.778 802.403,37.938 803.316,41.572C803.547,42.489 808.178,42.061 804.053,48.286C800.116,54.228 809.274,49.483 810.24,50.74C812.746,53.999 802.951,55.591 802.944,55.695C802.566,61.291 823.937,46.774 839.621,63.42C834.18,66.72 836.727,70.81 830.425,70.765C821.737,68.064 796.848,67.589 788.499,66.488C775.374,64.755 774.929,67.098 762.678,61.748C763.01,55.741 763.44,55.402 762.5,55.133C760.97,54.695 761.147,54.644 760.176,53.418C760.662,51.133 761.149,48.848 761.635,46.563C762.13,45.8 762.626,45.037 763.121,44.274C763.562,43.916 763.184,43.781 763.522,43.508C763.745,43.327 763.734,43.348 766.389,41.346C772.869,43.21 772.77,39.876 779.517,40.631C787.918,41.572 782.669,32.291 777.288,34.899C776.103,34.891 764.252,34.815 762.543,33.438C762.482,33.389 764.129,19.436 759.141,30.349C755.687,37.906 729.682,34.826 725.67,32.445C726.581,32.079 727.492,31.713 728.402,31.348C730.362,30.897 731.435,31.711 731.169,29.588L731.478,28.135C732.481,27.694 733.484,27.252 734.487,26.811C752.332,29.864 753.331,26.737 752.168,25.928C747.841,22.921 752.111,16.721 763.727,23.169C765.13,23.948 783.474,10.38 790.469,19.565Z" style="fill:rgb(150,205,200);fill-opacity:1;"/>
            <path d="M1023.999,192.5L1023.999,206.5C1022.243,207.524 1022.773,207.963 1023.999,209.5L1023.999,215.5C1012.641,215.421 994.123,216.541 993.72,212.461C993.251,207.71 967.776,209.572 965.515,209.737C950.725,209.745 951.083,207.731 936.508,206.442C929.169,205.794 926.071,210.538 917.422,205.663C908.404,200.58 886.371,206.709 887.382,202.482C888.013,199.847 889.447,199.082 888.104,194.75C888.434,194.567 888.685,192.906 891.53,192.85C910.884,192.469 919.131,194.106 921.486,194.574C923.902,195.054 923.154,192.589 925.511,192.682C947.689,193.566 981.562,187.102 1023.999,192.5Z" style="fill:rgb(242,229,158);"/>
            <path d="M871.495,32.268C884.366,32.354 892.235,32.075 906.349,42.689C913.976,50.822 914.315,50.803 917.123,62.552C917.262,63.822 917.402,65.091 917.541,66.361C861.421,64.785 857.617,66.863 853.087,69.339C851.717,71.126 851.661,70.983 851.558,71.142C849.02,69.571 848.858,69.7 848.817,69.445C847.43,60.934 849.571,58.857 835.567,50.055C848.598,33.5 850.704,35.795 871.495,32.268Z" style="fill:rgb(150,205,201);"/>
            <path d="M482.602,53.205C502.851,63.567 503.982,60.509 653.485,67.802C693.818,69.77 744.695,67.323 704.471,72.115C686.391,73.588 686.602,73.676 668.526,73.583C668.408,73.582 668.526,73.583 667.353,74.487C668.155,74.698 671.465,75.567 677.529,76.506C668.646,80.759 599.366,76.588 592.583,76.18L591.544,75.479C592.719,73.54 593.669,74.523 594.504,72.497L596.283,72.78C597.019,72.296 597.756,71.813 598.493,71.329C600.985,71.307 635.956,70.997 629.515,68.496C628.795,68.217 610.24,69.081 608.565,69.16C597.35,69.682 596.95,68.259 592.627,71.233C575.904,70.828 432.444,73.461 547.315,69.282C547.793,68.994 548.271,68.706 548.749,68.419C543.115,66.38 489.996,67.546 486.514,65.475C477.662,60.208 473.887,66.804 469.348,58.559C475.425,54.5 476.266,56.686 482.602,53.205Z" style="fill:rgb(191,221,225);"/>
            <path d="M1023.999,93.5L1023.999,114.5C1011.711,116.798 962.414,111.322 957.085,110.73C956.771,110.333 956.457,109.937 956.143,109.541C952.25,96.35 946.628,101.622 942.827,97.233C942.033,96.316 942.439,96.28 942.175,88.464C944.482,89.283 944.291,89.323 944.482,89.283C952.986,87.52 952.794,87.205 961.496,86.674C980.296,88.965 979.982,91.203 981.569,90.792C983.101,90.396 994.146,87.539 1001.358,90.832C1011.118,95.289 1011.423,92.928 1023.999,93.5Z" style="fill:rgb(159,209,199);"/>
            <path d="M1023.999,43.5L1023.999,52.5C997.14,53.264 997.282,51.735 970.498,52.735C969.502,52.787 903.004,56.42 958.435,55.906C996.38,55.554 950.24,58.421 949.498,58.467C947.622,58.584 915.669,60.57 926.395,62.703C978.937,73.151 985.831,59.263 1003.51,67.783C1001.45,67.895 1001.674,68.228 999.495,68.347C998.462,68.403 998.538,68.385 986.573,68.861C981.805,64.994 944.623,70.613 944.5,70.69L943.371,70.048C944.472,68.275 942.696,67.767 917.541,66.361C917.402,65.091 917.262,63.822 917.123,62.552C914.315,50.803 913.976,50.822 906.349,42.689C909.899,41.536 916.386,44.006 921.521,45.013C934.886,47.636 943.84,38.299 1023.999,43.5Z" style="fill:rgb(112,181,184);"/>
            <path d="M176.816,100.584C185.507,100.296 183.586,96.598 186.682,94.91C192.225,91.889 192.611,97.553 265.5,98.705C270.612,98.786 270.342,100.152 275.5,99.448C282.473,98.496 284.233,95.535 287.365,101.773C286.539,102.119 285.712,102.465 284.886,102.81C284.166,106.64 282.962,105.465 281.583,105.71C278.831,106.198 279.82,107.2 280.554,109.859C276.515,111.853 276.919,117.926 276.76,118.529C275.899,119.181 275.899,118.825 275.008,119.5C274.897,119.584 275.008,119.5 273.733,120.692C272.087,118.296 272.08,118.323 271.956,118.105C271.545,117.386 272.038,117.465 271.725,116.916C270.338,117.397 270.238,116.471 253.424,118.117C247.379,118.709 244.164,118.607 232.543,115.244C226.826,114.236 226.919,114.766 221.257,115.663C218.488,112.452 219.78,110.766 215.528,110.047C216.546,109.254 216.513,109.449 217.5,108.513C219.665,106.458 217.165,106.794 214.105,106.678C213.51,106.054 210.309,102.698 204.469,101.843C188.458,99.498 175.058,109.352 176.816,100.584Z" style="fill:rgb(162,202,194);fill-opacity:0.99;"/>
            <path d="M625.125,213.791C632.1,209.654 632.654,211.709 673.492,211.16C718.692,210.553 718.628,211.351 732.501,209.528C734.112,209.317 739.182,208.65 752.627,212.259C754.41,212.738 753.612,213.302 754.351,216.592C750.539,216.982 753.796,219.599 753.356,221.436C752.908,223.301 753.868,222.725 755.442,223.879C752.674,224.591 752.533,225.832 750.257,223.915C748.395,222.345 748.111,223.648 720.499,217.472L717.552,217.639C711.853,217.253 712.651,219.422 713.029,219.525C713.399,219.625 713.384,219.506 717.816,219.27C721,219.438 720.755,220.096 721.709,220.568C718.43,223.713 713.427,218.973 690.379,226.007C677.104,230.058 669.034,223.437 654.469,221.734C652.884,221.549 653.231,220.507 635.606,215.221C633.55,214.604 627.367,215.521 625.125,213.791Z" style="fill:rgb(252,237,179);fill-opacity:0.97;"/>
            <path d="M1023.999,22.5L1023.999,37.5C1007.992,37.196 1008.248,36.563 992.509,34.853C996.161,26.771 989.817,31.163 989.414,31.226C984.413,32.008 984.44,30.926 984.451,30.525C984.588,25.184 981.7,23.786 979.55,27.749C979.358,27.818 979.523,34.407 901.508,33.841C892.112,33.772 896.38,29.606 896.531,29.566C949.422,15.436 959.206,31.807 969.308,24.254C970.5,23.362 963.329,11.506 972.422,12.948C983.367,14.684 996.005,12.619 999.25,14.897C1000.433,15.727 1003.112,21.277 997.472,21.313L995.682,20.424C993.289,15.039 987.581,17.647 990.668,19.281C992.922,20.473 1000.941,27.613 1009.53,26.877C1017.165,26.222 1016.34,23.433 1023.999,22.5Z" style="fill:rgb(109,180,184);"/>
            <path d="M295.5,0L339.5,0C342.749,3.685 345.799,10.308 351.552,9.96C356.206,9.678 362.998,4.669 383.005,37.78C386.967,44.336 387.382,61.389 374.946,51.057C373.564,49.909 379.374,37.676 355.351,29.969C350.019,28.259 348.363,29.824 346.714,24.427C339.801,1.799 307.019,8.421 303.419,9.148C302.409,9.352 302.625,7.003 290.55,8.876C290.229,8.926 290.251,8.843 286.503,8.434C286.787,7.983 287.653,6.607 289.018,2.263C289.54,2.434 293.176,3.629 295.5,0Z" style="fill:rgb(129,186,194);"/>
            <path d="M1023.999,68.5L1023.999,83.5C1016.645,83.211 1016.829,83.856 1009.53,83.982C1007.136,82.062 1006.888,82.106 1004.603,83.875C1002.527,84.502 1002.458,83.515 977.496,84.449C977.25,84.458 977.496,84.449 974.434,84.151C977.583,82.139 977.374,81.9 977.685,81.826C985.285,80.031 977.591,73.409 977.446,75.475C977.378,76.46 977.201,78.985 968.437,83.901C964.461,84.253 964.003,83.374 961.496,86.674C952.794,87.205 952.986,87.52 944.482,89.283C944.291,89.323 944.482,89.283 942.175,88.464C945.066,85.278 945.112,85.472 949.446,84.428C960.519,81.762 938.993,84.159 933.119,78.907C931.101,77.102 931.042,77.452 928.6,76.346C929.706,72.944 927.971,73.408 925.515,70.835C934.47,71.1 934.29,71.156 943.371,70.048L944.5,70.69C952.706,73.049 974.96,69.948 986.573,68.861C998.538,68.385 998.462,68.403 999.495,68.347C1001.674,68.228 1001.45,67.895 1003.51,67.783C1013.779,69.51 1013.696,68.806 1023.999,68.5Z" style="fill:rgb(122,185,184);"/>
            <path d="M646.565,129.502C644.763,111.008 659.682,105.939 676.7,119.152C679.632,121.428 690.809,117.834 695.538,119.363C711.177,124.42 719.309,118.219 730.31,128.766C733.729,132.044 734.298,130.134 741.475,129.271C746.265,132.799 740.124,131.543 730.877,132.976C730.155,132.85 730.234,131.38 729.513,131.254C728.643,131.103 728.697,131.308 718.503,131.974C694.36,133.263 690.897,134.055 688.552,134.591C664.348,130.007 653.546,136.594 644.595,131.738C645.752,130.751 645.711,130.896 646.565,129.502Z" style="fill:rgb(196,214,184);"/>
            <path d="M790.469,19.565C796.037,23.134 796.57,17.269 802.754,19.232C800.957,21.119 800.981,22.203 803.54,22.42C810.05,26.91 812.243,25.629 813.145,33.556C813.772,39.065 818.406,38.59 815.628,47.528C814.953,49.699 817.278,49.338 817.482,49.306C826.635,47.883 826.525,48.175 835.567,50.055C849.571,58.857 847.43,60.934 848.817,69.445C848.858,69.7 849.02,69.571 851.558,71.142C873.433,76.456 882.827,69.169 884.84,91.446C885.367,97.282 882.577,94.904 882.341,94.678C880.172,92.593 879.431,93.304 878.675,90.428C877.977,87.771 876.068,88.441 876.774,85.574C876.976,84.755 876.729,84.462 867.344,80.874C860.876,78.4 859.527,82.782 854.06,77.976C850.089,74.485 848.245,76.481 846.082,71.69C842.713,67.55 843.037,67.513 839.621,63.42C823.937,46.774 802.566,61.291 802.944,55.695C802.951,55.591 812.746,53.999 810.24,50.74C809.274,49.483 800.116,54.228 804.053,48.286C808.178,42.061 803.547,42.489 803.316,41.572C802.403,37.938 805.728,37.778 803.668,34.403C801.687,31.158 805.855,25.892 793.518,24.881C790.307,24.618 789.993,25.69 787.648,23.326C786.647,22.317 770.665,24.487 781.681,20.912C785.672,19.617 785.626,20.08 790.469,19.565Z" style="fill:rgb(211,228,201);"/>
            <path d="M59.5,0C58.398,2.536 58.452,2.353 56.634,4.592C55.402,5.941 53.037,8.397 52.722,8.725C46.843,14.468 48.179,18.4 38.678,19.669C37.355,21.035 35.869,22.433 35.62,22.668C31.949,25.624 28.482,25.537 29.938,19.597C30.575,17 28.124,17.993 27.55,15.488C31.567,10.43 30.982,9.891 30.492,9.725C29.76,9.476 29.876,9.811 26.401,13.193C26.075,13.565 25.749,13.937 25.423,14.308C13.701,23.451 12.705,22.937 11.567,22.349C5.817,19.379 6.384,24.496 0,25.5L0,18.5C0.545,18.169 22.605,4.796 5.599,12.826C2.752,14.171 2.989,14.359 0,15.5L0,13.5C0,9 -2.185,3.934 0,0L59.5,0Z" style="fill:rgb(92,170,180);fill-opacity:0.99;"/>
            <path d="M928.6,76.346C931.042,77.452 931.101,77.102 933.119,78.907C938.993,84.159 960.519,81.762 949.446,84.428C945.112,85.472 945.066,85.278 942.175,88.464C942.439,96.28 942.033,96.316 942.827,97.233C946.628,101.622 952.25,96.35 956.143,109.541C955.605,110.035 954.438,111.106 947.502,112.506C945.87,112.575 945.582,112.986 944.825,111.505C943.237,101.049 934.281,104.698 933.451,101.523C930.645,90.777 927.759,92.004 918.499,93.465C915.487,93.941 919.236,77.942 910.804,83.904C905.651,87.548 903.516,82.812 899.547,87.55C894.267,93.855 898.136,82.87 898.275,82.475C892.277,81.283 892.164,89.519 889.48,89.579C883.431,89.716 894.247,63.242 928.6,76.346Z" style="fill:rgb(212,228,201);"/>
            <path d="M221.257,115.663C226.919,114.766 226.826,114.236 232.543,115.244C244.164,118.607 247.379,118.709 253.424,118.117C270.238,116.471 270.338,117.397 271.725,116.916C272.038,117.465 271.545,117.386 271.956,118.105C272.08,118.323 272.087,118.296 273.733,120.692C275.008,119.5 274.897,119.584 275.008,119.5C275.899,118.825 275.899,119.181 276.76,118.529C276.873,122.475 281.056,123.576 277.36,125.241C271.127,128.047 271.777,129.004 265.617,131.675C262.128,129.37 259.935,128.061 259.926,132.366C260.184,132.419 260.144,132.471 262.926,133.722C262.537,140.234 251.29,146.501 243.47,138.862C245.522,137.941 245.347,138.018 247.548,137.349C246.507,133.382 247.863,133.475 247.122,129.5C246.182,124.446 241.682,137.272 240.461,138.571C239.49,138.1 238.519,137.63 237.548,137.159C239.258,135.611 238.773,135.313 237.257,133.63C232.888,132.262 233.099,131.926 231.028,127.723C228.068,121.717 221.32,123.678 221.257,115.663Z" style="fill:rgb(177,212,192);fill-opacity:0.96;"/>
            <path d="M149.5,0L215.5,0C209.62,3.645 209.278,2.74 203.673,6.638C174.843,8.529 175.884,14.053 176.954,16.362C178.535,19.774 169.712,17.365 166.52,21.515C162.901,26.221 162.334,25.376 159.368,25.663C157.907,24.321 157.913,24.453 157.671,22.523C168.046,17.093 168.07,16.272 167.428,15.56C166.798,14.862 166.878,16.176 156.421,19.683C153.263,17.469 145.873,15.647 153.873,9.851C166.863,0.438 148.199,11.912 145.451,9.567C141.952,6.582 142.316,5.523 145.725,2.673C147.979,1.966 147.667,1.806 149.5,0Z" style="fill:rgb(93,170,181);fill-opacity:1;"/>
            <path d="M616.505,49.332C617.707,49.397 624.46,49.765 631.511,50.424L635.547,51.091C635.304,51.518 636.177,52.086 635.934,52.513C634.372,55.256 633.157,51.508 596.502,53.531C582.075,54.328 565.47,62.479 577.92,54.826C583.409,51.453 571.227,51.119 570.567,51.101C566.488,51.044 525.091,50.47 519.664,48.117C515.877,46.475 517.359,40.659 536.5,40.631C593.547,40.549 591.725,51.467 596.553,50.811C606.483,49.461 606.321,49.338 616.505,49.332Z" style="fill:rgb(138,192,196);"/>
            <path d="M319.662,143.882C316.519,146.771 316.636,150.677 319.098,148.17C325.402,141.747 321.379,150.182 321.256,150.397C319.247,153.917 328.136,152.581 328.498,152.603C332.241,152.826 332.188,153.058 332.5,152.981C333.729,152.68 332.701,151.573 333.92,151.274C336.015,152.772 335.819,152.96 338.463,153.117C340.918,155.278 341.118,154.996 344.298,154.041C346.363,153.656 362.478,150.655 370.426,156.552C368.868,162.123 364.939,159.47 360.493,161.452C360.205,161.581 352.289,161.505 355.545,164.467C358.281,166.956 359.241,166.487 359.243,170.116L358.391,170.013C356.213,170.471 356.287,170.164 354.366,171.357C350.676,171.417 350.795,171.81 348.46,174.517C347.292,172.771 347.309,172.793 347.289,172.773C346.072,171.765 346.285,171.758 345.474,171.518C345.33,171.286 344.036,169.196 343.357,168.832C329.013,161.149 329.83,154.557 313.5,159.5C307.102,161.437 302.898,155.386 304.818,153.775C307.773,151.295 306.886,150.261 303.506,148.464C306.293,146.286 306.174,145.653 307.5,146.154C313.528,148.429 313.213,145.138 319.662,143.882Z" style="fill:rgb(187,215,190);fill-opacity:0.98;"/>
            <path d="M1023.999,61.5L1023.999,68.5C1013.696,68.806 1013.779,69.51 1003.51,67.783C985.831,59.263 978.937,73.151 926.395,62.703C915.669,60.57 947.622,58.584 949.498,58.467C950.24,58.421 996.38,55.554 958.435,55.906C903.004,56.42 969.502,52.787 970.498,52.735C965.357,56.96 972.03,56.14 986.308,55.781C999.729,59.078 966.54,59.903 964.787,59.946C964.728,60.434 964.668,60.922 964.609,61.409C970.985,63.033 1008.716,59.147 1023.999,61.5Z" style="fill:rgb(148,204,200);"/>
            <path d="M353.469,137.45C355.483,136.722 355.312,136.729 355.483,136.722C371.919,135.986 372.883,136.455 374.231,137.113C375.482,136.411 375.367,136.408 375.482,136.411C383.924,136.684 384.243,134.284 391.737,137.976C389.215,139.758 389.345,139.621 386.591,140.821C385.56,140.735 384.529,140.649 383.497,140.563C381.967,140.997 343.338,142.747 374.486,143.764C379.146,143.916 379.105,144.232 379.507,144.195C381.994,143.968 380.876,145.402 379.498,147.417C377.496,147.279 356.17,145.804 354.441,146.332C343.35,149.716 331.566,144.735 333.92,151.274C332.701,151.573 333.729,152.68 332.5,152.981C332.188,153.058 332.241,152.826 328.498,152.603C328.136,152.581 319.247,153.917 321.256,150.397C321.379,150.182 325.402,141.747 319.098,148.17C316.636,150.677 316.519,146.771 319.662,143.882C320.121,143.365 323.92,139.081 326.695,138.849C351.386,136.785 351.467,136.68 353.469,137.45Z" style="fill:rgb(186,215,189);"/>
            <path d="M648.542,53.702C654.8,52.985 745.916,55.108 751.052,58.388C750.825,58.675 750.599,58.963 750.372,59.25C722.232,61.053 722.393,59.713 693.495,58.896C692.479,58.849 676.855,55.974 681.538,61.794C676.995,61.775 649.628,62.197 630.459,58.669C595.25,52.188 640.462,57.615 648.542,53.702Z" style="fill:rgb(175,214,215);"/>
            <path d="M395.866,21.654C398.223,10.661 430.675,32.623 406.533,54.541C403.852,57.255 406.052,57.532 408.061,60.778C409.734,67.943 410.613,70.257 406.107,80.315L402.117,87.325C392.247,100.073 389.247,96.721 389.311,95.507C389.345,94.866 410.795,83.541 398.297,62.63C396.89,60.277 396.962,60.315 394.488,59.37L392.67,58.258C391.952,57.688 391.233,57.119 390.515,56.55C391.668,55.606 391.622,55.716 391.668,55.606C392.261,54.197 392.687,54.76 393.891,53.76C395.084,57.204 402.018,57.915 404.772,41.543C406.958,28.543 398.866,25.048 397.503,24.459L396.742,23.293L395.866,21.654Z" style="fill:rgb(192,221,225);"/>
            <path d="M1023.999,157.5L1023.999,165.5C1009.992,160.564 984.653,165.593 981.505,165.747C959.946,166.801 960.218,163.635 938.49,163.602C940.541,160.463 936.976,159.393 939.545,156.637C941.356,154.694 941.823,155.526 972.498,160.701C1006.208,159.566 1014.094,161.114 1023.999,157.5Z" style="fill:rgb(204,215,175);"/>
            <path d="M619.689,117.228C609.775,123.349 595.89,121.657 592.528,121.816C583.149,122.261 583.302,122.584 582.502,122.503C582.45,121.956 578.876,113.867 590.491,110.471C611.522,104.32 616.956,114.245 619.689,117.228Z" style="fill:rgb(175,204,180);"/>
            <path d="M1023.999,83.5L1023.999,93.5C1011.423,92.928 1011.118,95.289 1001.358,90.832C994.146,87.539 983.101,90.396 981.569,90.792C979.982,91.203 980.296,88.965 961.496,86.674C964.003,83.374 964.461,84.253 968.437,83.901C971.536,84.466 971.321,84.645 974.434,84.151C977.496,84.449 977.25,84.458 977.496,84.449C1002.458,83.515 1002.527,84.502 1004.603,83.875C1007.131,84.565 1006.993,84.324 1009.53,83.982C1016.829,83.856 1016.645,83.211 1023.999,83.5Z" style="fill:rgb(133,191,185);"/>
            <path d="M789.504,145.986C792.169,145.913 794.834,145.84 797.499,145.767C822.034,144.857 857.318,145.55 919.527,144.841C950.774,144.485 910.885,148.011 866.494,148.099C839.104,148.154 799.806,146.363 789.512,150.5C786.481,156.831 780.178,152.424 783.544,149.572C784.268,148.959 787.117,149.368 787.5,148.757C788.485,147.184 788.492,147.386 789.504,145.986Z" style="fill:rgb(200,217,184);"/>
            <path d="M917.541,66.361C942.696,67.767 944.472,68.275 943.371,70.048C934.29,71.156 934.47,71.1 925.515,70.835C872.254,69.704 872.034,73.548 853.087,69.339C857.617,66.863 861.421,64.785 917.541,66.361Z" style="fill:rgb(210,228,202);"/>
            <path d="M458.918,159.309C462.115,161.498 462.24,160.32 466.463,160.105C462.538,169.653 464.558,170.543 463.696,170.7C457.902,171.751 459.107,173.706 458.637,173.75C449.223,174.629 448.509,173.387 446.393,176.476C444.529,179.197 435.456,186.443 438.393,179.423C439.551,176.656 438.247,176.625 438.59,173.609C443.731,168.871 444.526,170.141 444.911,169.687C445.935,168.48 440.237,162.492 445.419,161.233C455.586,158.762 457.841,159.132 458.918,159.309Z" style="fill:rgb(203,214,174);"/>
            <path d="M768.508,164.41C761.157,150.144 788.418,156.785 789.259,157.72C794.516,163.568 800.308,156.898 801.796,164.657C801.277,165.411 796.732,171.999 791.463,169.565C780.675,164.581 780.235,166.859 768.508,164.41Z" style="fill:rgb(216,224,188);"/>
            <path d="M226.5,0L289.5,0C289.339,0.754 289.178,1.509 289.018,2.263C287.653,6.607 286.787,7.983 286.503,8.434C277.437,7.8 276.797,10.037 269.232,4.893C265.997,2.694 265.853,4.009 260.511,4.518C252.294,3.684 252.319,2.169 244.421,4.828C240.325,4.058 240.477,3.398 236.542,3.92C230.833,4.678 231.217,3.195 226.5,0Z" style="fill:rgb(94,170,180);"/>
            <path d="M215.5,0L226.5,0C231.217,3.195 230.833,4.678 236.542,3.92C240.477,3.398 240.325,4.058 244.421,4.828C252.529,11.538 249.23,13.361 248.515,13.16C228.46,7.539 228.343,9.296 207.475,8.749C206.067,8.712 206.343,8.489 203.673,6.638C209.278,2.74 209.62,3.645 215.5,0Z" style="fill:rgb(176,215,216);"/>
            <path d="M911.2,207.875L910.5,208.865C898.431,211.268 764.166,211.073 803.435,208.286C814.608,207.494 905.979,207.19 911.2,207.875Z" style="fill:rgb(243,229,161);"/>
            <path d="M1023.999,56.5L1023.999,61.5C1008.716,59.147 970.985,63.033 964.609,61.409C964.668,60.922 964.728,60.434 964.787,59.946C966.54,59.903 999.729,59.078 986.308,55.781C987.562,53.976 987.958,52.768 1023.999,56.5Z" style="fill:rgb(112,182,184);"/>
            <path d="M534.313,117.288C552.006,111.608 558.007,113.016 563.897,121.203C565.786,123.828 570.563,113.648 574.663,121.408C574.663,121.408 579.969,123.599 580.43,123.789L580.719,124.145C576.152,132.429 569.042,132.003 562.513,132.344C562.214,131.783 561.915,131.222 561.617,130.662C562.475,130.54 582.953,127.639 571.385,125.974C563.041,124.774 556.913,127.296 558.202,122.46C559.815,116.407 536.573,120.342 534.313,117.288Z" style="fill:rgb(227,230,192);"/>
            <path d="M718.503,131.974C718.982,132.427 718.942,132.36 721.614,134.403C717.066,135.959 717.121,135.987 716.489,136.09C710.901,136.857 683.24,137.564 705.512,139.257C723.789,140.647 729.632,143.789 731.505,144.796L724.556,144.702C690.172,140.958 685.428,140.646 688.552,134.591C690.897,134.055 694.36,133.263 718.503,131.974Z" style="fill:rgb(252,252,212);"/>
            <path d="M731.478,28.135L731.169,29.588C728.898,29.775 729.144,29.971 726.748,30.135C726.374,30.136 725.999,30.138 725.624,30.14C724.015,30.108 707.577,29.785 705.696,27.424C703.553,24.734 673.944,27.423 667.57,26.046C667.361,26.001 656.241,22.197 666.5,23.602C684.393,26.054 721.052,21.249 734.487,26.811C733.484,27.252 732.481,27.694 731.478,28.135Z" style="fill:rgb(129,195,195);"/>
            <path d="M653.379,123.263C679.264,118.605 678.63,125.509 678.141,127.458C677.186,131.261 656.388,130.651 654.479,130.595C656.48,124.942 655.877,124.469 653.379,123.263Z" style="fill:rgb(216,224,190);"/>
            <path d="M390.515,56.55C391.233,57.119 391.952,57.688 392.67,58.258C393.276,58.628 393.882,58.999 394.488,59.37C394.478,61.508 394.407,61.352 394.478,61.508C395.191,63.073 402.831,79.849 394.201,83C386.876,85.675 396.202,74.462 388.889,71.976C390.152,68.061 389.496,68.161 387.813,64.344C385.766,59.705 386.109,58.873 390.515,56.55Z" style="fill:rgb(177,215,217);"/>
            <path d="M580.476,59.769C611.239,61.946 665.556,62.267 657.113,65.074C657.045,65.097 579.206,62.117 577.426,61.818C577.039,61.753 570.101,60.589 573.588,58.775C573.824,58.653 579.927,59.677 580.476,59.769Z" style="fill:rgb(160,209,210);"/>
            <path d="M397.503,24.459C398.866,25.048 406.958,28.543 404.772,41.543C402.018,57.915 395.084,57.204 393.891,53.76C404.107,42.978 397.562,29.864 396.388,26.538C396.534,25.237 396.363,25.244 397.503,24.459Z" style="fill:rgb(112,181,184);"/>
            <path d="M1023.999,52.5L1023.999,56.5C987.958,52.768 987.562,53.976 986.308,55.781C972.03,56.14 965.357,56.96 970.498,52.735C997.282,51.735 997.14,53.264 1023.999,52.5Z" style="fill:rgb(140,200,197);"/>
            <path d="M458.918,159.309C461.983,151.966 475.049,146.03 483.508,162.081C481.646,163.484 481.775,163.488 479.628,163.374C472.599,157.846 471.803,160.163 466.463,160.105C462.24,160.32 462.115,161.498 458.918,159.309Z" style="fill:rgb(216,223,189);"/>
            <path d="M368.755,75.53C370.546,80.473 374.737,64.15 380.385,67.706C384.748,70.454 380.998,74.976 384.54,75.694C387.126,77.564 387.113,77.547 387.333,77.713C393.833,82.624 368.183,79.729 366.522,79.542C367.266,78.205 368.01,76.867 368.755,75.53Z" style="fill:rgb(140,192,196);"/>
            <path d="M570.469,173.07C549.822,172.93 551.384,166.575 552.793,165.995C560.48,162.831 584.251,169.905 570.469,173.07Z" style="fill:rgb(227,230,191);"/>
            <path d="M483.508,162.081C491.369,161.833 491.376,161.433 498.358,164.863C499.236,165.294 499.492,165.42 510.431,162.942C507.85,170.134 494.029,168.272 492.554,168.073C481.201,166.544 481.339,166.889 480.388,166.651C479.597,166.453 479.626,163.643 479.628,163.374C481.775,163.488 481.646,163.484 483.508,162.081Z" style="fill:rgb(215,223,189);"/>
            <path d="M415.549,158.754C416.476,158.691 420.103,157.26 423.123,159.891C430.494,166.314 431.667,164.024 432.15,164.684C434.323,167.655 423.304,167.451 422.502,167.436C417.472,167.343 419.46,161.945 414.579,162.856C399.213,165.725 415.22,158.826 415.549,158.754Z" style="fill:rgb(214,224,189);"/>
            <path d="M502.512,96.577C509.101,96.334 508.966,97.088 510.479,98.439C508.725,99.332 508.79,99.367 488.645,109.789C486.919,107.307 486.108,107.607 486.769,105.374C487.368,103.351 489.135,107.745 489.805,105.662C490.926,102.176 499.598,99.899 502.512,96.577Z" style="fill:rgb(146,196,183);"/>
            <path d="M464.481,48.478C468.56,48.296 468.422,48.262 472.474,48.636C475.85,50.159 479.226,51.682 482.602,53.205C476.266,56.686 475.425,54.5 469.348,58.559C467.791,55.542 466.233,52.524 464.676,49.507L464.481,48.478Z" style="fill:rgb(176,214,216);"/>
            <path d="M709.588,65.017C699.665,60.67 711.303,62.29 711.557,62.363C728.099,67.094 751.102,66.678 752.029,67.919C755.357,72.377 712.948,65.557 709.588,65.017Z" style="fill:rgb(176,217,220);"/>
            <path d="M651.5,46.48C639.916,45.799 632.939,49.638 631.511,50.424C624.46,49.765 617.707,49.397 616.505,49.332C620.908,45.043 621.862,48.855 625.5,48.054C627.975,47.509 628.591,48.81 629.819,46.563C632.032,42.515 640.888,49.428 642.51,43.507C642.621,43.105 648.136,39.27 651.5,46.48Z" style="fill:rgb(97,173,181);"/>
            <path d="M358.625,180.793C359.822,171.473 363.386,173.575 364.428,171.432C364.568,171.144 368.525,163.015 367.899,169.428C367.842,170.012 369.151,169.68 369.818,176.513C370.397,182.435 366.753,179.187 358.625,180.793Z" style="fill:rgb(194,214,181);"/>
            <path d="M704.471,72.115C703.783,73.936 703.506,73.648 703.23,75.399C702.872,77.678 679.28,74.118 677.529,76.506C671.465,75.567 668.155,74.698 667.353,74.487C668.526,73.583 668.408,73.582 668.526,73.583C686.602,73.676 686.391,73.588 704.471,72.115Z" style="fill:rgb(123,184,181);"/>
            <path d="M986.573,68.861C974.96,69.948 952.706,73.049 944.5,70.69C944.623,70.613 981.805,64.994 986.573,68.861Z" style="fill:rgb(143,201,199);"/>
            <path d="M393.633,145.392C394.816,137.332 421.34,146.475 415.17,152.205C414.063,153.232 415.433,147.588 397.479,145.634C396.197,145.553 394.915,145.472 393.633,145.392Z" style="fill:rgb(178,212,191);"/>
            <path d="M839.621,63.42C843.037,67.513 842.713,67.55 846.082,71.69C843.859,73.726 844.119,74.242 842.606,74.273C840.252,74.321 841,72.385 838.502,72.448C834.075,72.559 833.687,73.7 830.425,70.765C836.727,70.81 834.18,66.72 839.621,63.42Z" style="fill:rgb(151,206,199);"/>
            <path d="M754.503,142.596C774.594,142.384 774.408,142.312 794.552,142.344C792.955,142.877 791.357,143.41 789.76,143.944L787.913,143.956C760.678,144.843 760.644,144.747 758.416,145.536C755.883,144.949 756.339,144.449 754.503,142.596Z" style="fill:rgb(198,216,186);"/>
            <path d="M592.627,71.233C596.95,68.259 597.35,69.682 608.565,69.16C610.24,69.081 628.795,68.217 629.515,68.496C635.956,70.997 600.985,71.307 598.493,71.329C596.97,71.47 597.177,71.61 596.283,72.78L594.504,72.497C593.878,72.075 593.253,71.654 592.627,71.233Z" style="fill:rgb(172,212,212);"/>
            <path d="M458.733,51.267C451.86,45.897 451.276,44.618 443.454,48.38C431.981,53.898 454.258,35.046 461.023,48.844C461.14,49.084 464.124,61.355 458.733,51.267Z" style="fill:rgb(183,218,223);"/>
            <path d="M794.552,142.344C795.535,143.485 796.517,144.626 797.499,145.767C794.834,145.84 792.169,145.913 789.504,145.986C775.244,146.364 760.91,147.126 758.416,145.536C760.644,144.747 760.678,144.843 787.913,143.956C788.529,143.952 789.144,143.948 789.76,143.944C791.357,143.41 792.955,142.877 794.552,142.344Z" style="fill:rgb(244,247,206);"/>
            <path d="M777.288,34.899C782.669,32.291 787.918,41.572 779.517,40.631C772.77,39.876 772.869,43.21 766.389,41.346C767.284,40.328 767.128,40.376 768.383,38.241C777.02,36.964 777.19,35.653 777.288,34.899Z" style="fill:rgb(147,204,199);"/>
            <path d="M979.55,27.749C981.7,23.786 984.588,25.184 984.451,30.525C984.44,30.926 984.413,32.008 989.414,31.226C989.817,31.163 996.161,26.771 992.509,34.853C984.196,34.69 982.965,35.269 979.55,27.749Z" style="fill:rgb(108,180,183);"/>
            <path d="M508.508,111.347C478.745,111.317 526.545,104.976 525.837,114.626C525.734,116.033 525.125,113.089 508.508,111.347Z" style="fill:rgb(217,228,195);"/>
            <path d="M813.486,118.445C815.162,118.418 816.838,118.391 818.514,118.365C818.909,120.21 822.74,122.297 816.775,123.812C816.454,123.893 814.902,125.533 815.647,126.434C817.157,128.259 815.219,128.123 814.498,130.499C812.448,137.252 812.02,123.858 813.486,118.445Z" style="fill:rgb(187,214,190);"/>
            <path d="M351.519,107.687C365.647,107.167 366.434,107.477 365.983,108.544C365.219,110.351 364.432,108.791 356.379,110.055C351.756,110.781 351.952,110.857 347.499,111.635C323.004,115.917 351.085,107.806 351.519,107.687Z" style="fill:rgb(181,214,190);"/>
            <path d="M968.437,83.901C977.201,78.985 977.378,76.46 977.446,75.475C977.591,73.409 985.285,80.031 977.685,81.826C977.374,81.9 977.583,82.139 974.434,84.151C971.321,84.645 971.536,84.466 968.437,83.901Z" style="fill:rgb(120,186,185);"/>
            <path d="M653.379,123.263C655.877,124.469 656.48,124.942 654.479,130.595C651.257,129.914 651.448,130.086 648.203,129.749C648.259,124.044 650.018,124.955 653.379,123.263Z" style="fill:rgb(215,223,187);"/>
            <path d="M247.548,137.349C245.347,138.018 245.522,137.941 243.47,138.862C242.467,138.765 241.464,138.668 240.461,138.571C241.682,137.272 246.182,124.446 247.122,129.5C247.863,133.475 246.507,133.382 247.548,137.349Z" style="fill:rgb(177,213,190);fill-opacity:1;"/>
            <path d="M187.532,59.465C189.193,60.001 190.96,58.514 191.181,62.743C188.586,62.853 188.724,62.5 186.402,63.326C183.712,64.409 184.036,64.578 182.533,66.985C173.072,65.853 184.658,64.12 187.532,59.465Z" style="fill:rgb(143,190,195);fill-opacity:0.76;"/>
            <path d="M693.495,58.896C688.991,63.702 688.112,61.382 681.538,61.794C676.855,55.974 692.479,58.849 693.495,58.896Z" style="fill:rgb(152,200,198);"/>
            <path d="M908.518,124.28C909.553,124.241 917.489,123.942 921.459,124.225C917.713,126.66 918.912,129.296 916.575,128.341C912.158,126.534 911.306,128.176 908.518,124.28Z" style="fill:rgb(186,217,190);"/>
            <path d="M190.007,69.182C190.376,74.221 190.694,75.312 185.644,76.575C184.485,73.636 182.921,71.803 190.007,69.182Z" style="fill:rgb(131,174,175);fill-opacity:0.47;"/>
            <path d="M505.503,193.907C508.812,191.828 517.682,192.458 516.735,193.487C516.002,194.284 515.74,193.484 515.031,194.189C514.852,194.366 514.909,194.387 513.389,196.87C509.099,196.514 509.717,194.941 505.503,193.907Z" style="fill:rgb(205,214,177);fill-opacity:0.77;"/>
            <path d="M589.555,172.514C579.747,174.261 584.922,164.134 586.497,166.505C586.795,166.954 586.536,166.933 589.555,172.514Z" style="fill:rgb(216,225,188);"/>
            <path d="M156.421,19.683C166.878,16.176 166.798,14.862 167.428,15.56C168.07,16.272 168.046,17.093 157.671,22.523C157.284,20.889 157.311,21.023 156.421,19.683Z" style="fill:rgb(91,153,154);fill-opacity:0.04;"/>
            <path d="M956.143,109.541C956.457,109.937 956.771,110.333 957.085,110.73C954.706,118.649 948.095,113.012 947.502,112.506C954.438,111.106 955.605,110.035 956.143,109.541Z" style="fill:rgb(177,213,191);"/>
            <path d="M861.588,40.807C856.036,39.976 854.176,48.981 853.598,43.5C853.481,42.388 860.868,31.551 861.588,40.807Z" style="fill:rgb(149,205,197);"/>
            <path d="M854.66,119.798C855.118,119.694 856.278,119.431 860.522,119.54C859.838,119.812 859.154,120.083 858.47,120.354C858.109,120.708 857.748,121.061 857.387,121.415C856.321,124.037 854.375,121.147 849.486,122.553C847.026,123.261 845.979,119.987 848.499,120.49C851.734,121.136 851.718,121.064 854.66,119.798Z" style="fill:rgb(183,215,187);"/>
            <path d="M393.633,145.392C394.915,145.472 396.197,145.553 397.479,145.634C397.798,147.432 397.833,147.29 397.798,147.432C396.832,151.318 386.586,148.547 393.633,145.392Z" style="fill:rgb(194,215,180);"/>
            <path d="M130.5,0L143.5,0C137.896,2.148 132.361,4.939 130.5,0Z" style="fill:rgb(87,161,168);fill-opacity:0.73;"/>
            <path d="M768.383,38.241C767.128,40.376 767.284,40.328 766.389,41.346C763.734,43.348 763.745,43.327 763.522,43.508C763.184,43.781 763.562,43.916 763.121,44.274C758.494,38.051 767.742,38.229 768.383,38.241Z" style="fill:rgb(134,198,193);"/>
            <path d="M718.503,131.974C728.697,131.308 728.643,131.103 729.513,131.254C730.234,131.38 730.155,132.85 730.877,132.976C725.919,133.214 725.741,131.959 721.614,134.403C718.942,132.36 718.982,132.427 718.503,131.974Z" style="fill:rgb(238,248,212);"/>
            <path d="M787.638,102.667C793.695,98.608 788.779,104.526 788.655,104.654C788.549,104.763 788.981,110.308 786.707,109.147C783.69,107.607 787.311,103.076 787.638,102.667Z" style="fill:rgb(176,213,189);"/>
            <path d="M668.9,58.42C656.79,61.793 656.217,58.599 656.913,57.938C659.933,55.073 668.001,58.085 668.9,58.42Z" style="fill:rgb(152,197,196);"/>
            <path d="M0,18.5L0,15.5C2.989,14.359 2.752,14.171 5.599,12.826C22.605,4.796 0.545,18.169 0,18.5Z" style="fill:rgb(99,167,173);fill-opacity:0.09;"/>
            <path d="M607.851,101.749C608.312,105.851 603.495,104.5 602.375,104.782C598.125,105.852 603.473,99.347 607.851,101.749Z" style="fill:rgb(146,197,181);"/>
            <path d="M972.54,213.145C976.412,212.461 976.315,212.839 976.621,212.72C979.06,211.777 978.379,213.384 979.684,215.589C979.991,216.109 978.607,218.995 972.54,213.145Z" style="fill:rgb(251,239,180);"/>
            <path d="M356.663,123.669C356.907,132.915 352.198,127.983 352.178,127.511C352.158,127.039 352.118,126.08 356.663,123.669Z" style="fill:rgb(178,213,190);"/>
            <path d="M474.475,182.399C474.456,180.285 473.875,179.915 475.719,178.954C476.989,178.292 481.468,184.225 474.475,182.399Z" style="fill:rgb(202,216,175);"/>
            <path d="M754.351,216.592C755.3,220.306 755.274,220.102 755.442,223.879C753.868,222.725 752.908,223.301 753.356,221.436C753.796,219.599 750.539,216.982 754.351,216.592Z" style="fill:rgb(248,235,175);fill-opacity:0.7;"/>
            <path d="M449.484,152.369C449.261,152.368 438.825,150.193 448.522,149.753C448.744,149.743 457.722,150.197 449.484,152.369Z" style="fill:rgb(224,231,191);"/>
            <path d="M265.617,131.675C263.72,132.863 263.867,132.761 263.72,132.863C263.183,133.236 263.446,133.361 262.926,133.722C260.144,132.471 260.184,132.419 259.926,132.366C259.935,128.061 262.128,129.37 265.617,131.675Z" style="fill:rgb(177,206,187);fill-opacity:0.52;"/>
            <path d="M214.105,106.678C217.165,106.794 219.665,106.458 217.5,108.513C216.513,109.449 216.546,109.254 215.528,110.047C213.232,109.45 213.612,108.919 214.105,106.678Z" style="fill:rgb(168,200,193);fill-opacity:0.43;"/>
            <path d="M745.548,37.829C749.625,38.039 748.776,39.335 748.621,39.572C747.188,41.761 738.833,39.777 745.548,37.829Z" style="fill:rgb(145,203,198);"/>
            <path d="M289.5,0L295.5,0C293.176,3.629 289.54,2.434 289.018,2.263C289.178,1.509 289.339,0.754 289.5,0Z" style="fill:rgb(125,184,189);"/>
            <path d="M721.614,134.403C721.937,134.659 722.26,134.915 722.583,135.171C720.312,137.386 720.296,137.205 717.422,138.501C717.111,137.697 716.8,136.893 716.489,136.09C717.121,135.987 717.066,135.959 721.614,134.403Z" style="fill:rgb(221,229,194);"/>
            <path d="M338.463,153.117C340.809,151.938 341.322,150.887 342.553,153.149C342.628,153.287 342.553,153.149 344.298,154.041C341.118,154.996 340.918,155.278 338.463,153.117Z" style="fill:rgb(191,215,186);"/>
            <path d="M182.282,46.815C185.399,46.684 185.191,46.747 188.245,46.826C188.237,47.294 188.229,47.809 183.618,50.402C183.536,50.107 183.478,50.212 182.282,46.815Z" style="fill:rgb(133,181,182);fill-opacity:0.37;"/>
            <path d="M426.404,180.418C425.744,182.218 425.914,182.056 425.857,184.052C423.595,183.316 423.781,183.356 423.595,183.316C415.556,181.588 426.083,180.453 426.404,180.418Z" style="fill:rgb(198,215,180);"/>
            <path d="M842.773,50.505C845.959,45.195 847.949,51.246 846.532,51.536C843.5,52.158 843.777,51.279 842.773,50.505Z" style="fill:rgb(147,206,196);"/>
            <path d="M26.401,13.193C29.876,9.811 29.76,9.476 30.492,9.725C30.982,9.891 31.567,10.43 27.55,15.488C27.167,14.723 26.784,13.958 26.401,13.193Z" style="fill:rgb(97,168,176);fill-opacity:0.29;"/>
            <path d="M1017.5,228.999L1012.5,228.999L1011.448,227.751C1014.69,226.599 1014.778,226.98 1017.5,228.999Z" style="fill:rgb(223,215,156);fill-opacity:0.5;"/>
            <path d="M382.504,147.539C386.39,145.992 386.289,145.42 386.584,145.627C386.878,145.835 388.985,150.395 382.504,147.539Z" style="fill:rgb(194,214,181);"/>
            <path d="M902.586,79.784C902.614,77.601 902.659,77.259 905.53,76.69C912.287,75.351 902.897,79.642 902.586,79.784Z" style="fill:rgb(205,222,196);"/>
            <path d="M237.257,133.63C238.773,135.313 239.258,135.611 237.548,137.159C237.29,137.149 233.258,136.996 234.701,135.631C235.972,134.428 236.148,134.958 237.257,133.63Z" style="fill:rgb(185,204,192);fill-opacity:0.38;"/>
            <path d="M566.331,90.45C569.472,85.993 570.687,90.586 570.066,91.195C568.317,92.909 567.877,92.41 566.331,90.45Z" style="fill:rgb(131,193,182);"/>
            <path d="M780.476,159.597C780.238,159.993 775.457,167.951 775.483,162.49C775.488,161.511 780.045,159.762 780.476,159.597Z" style="fill:rgb(216,223,192);"/>
            <path d="M717.552,217.639C717.64,218.183 717.728,218.727 717.816,219.27C713.384,219.506 713.399,219.625 713.029,219.525C712.651,219.422 711.853,217.253 717.552,217.639Z" style="fill:rgb(251,240,175);fill-opacity:0.36;"/>
            <path d="M961.307,215.679C960.247,221.34 958.218,217.831 958.198,217.541C958.022,215.089 958.971,215.496 961.307,215.679Z" style="fill:rgb(251,239,180);"/>
            <path d="M191.181,62.743C190.94,66.518 189.096,65.798 186.402,63.326C188.724,62.5 188.586,62.853 191.181,62.743Z" style="fill:rgb(125,156,157);fill-opacity:0.13;"/>
            <path d="M601.593,176.347C601.83,176.619 603.14,177.022 602.174,179.141C602.065,179.379 601.008,181.201 599.434,177.357C600.154,177.02 600.873,176.684 601.593,176.347Z" style="fill:rgb(228,231,188);"/>
            <path d="M572.401,105.651C573.918,112.267 569.971,106.668 570.022,106.5C570.46,105.076 570.794,105.689 572.401,105.651Z" style="fill:rgb(143,198,185);"/>
            <path d="M221.645,55.104C220.485,57.563 220.693,57.626 220.485,57.563C220.257,57.494 217.446,56.647 218.463,55.38C219.549,54.028 221.418,54.988 221.645,55.104Z" style="fill:rgb(139,194,197);"/>
            <path d="M991.497,129.224C995.471,128.873 996.313,127.279 998.478,130.771C997.931,130.603 998.012,130.914 991.497,129.224Z" style="fill:rgb(180,215,189);"/>
            <path d="M668.563,90.531C670.912,87.662 671.937,91.769 670.563,91.798C668.869,91.833 668.675,90.602 668.563,90.531Z" style="fill:rgb(134,192,182);"/>
            <path d="M1004.603,83.875C1006.888,82.106 1007.136,82.062 1009.53,83.982C1006.993,84.324 1007.131,84.565 1004.603,83.875Z" style="fill:rgb(124,185,179);"/>
            <path d="M731.169,29.588C731.435,31.711 730.362,30.897 728.402,31.348C727.851,30.943 727.3,30.539 726.748,30.135C729.144,29.971 728.898,29.775 731.169,29.588Z" style="fill:rgb(130,192,190);"/>
            <path d="M388.203,185.939C390.668,184.924 392.199,182.767 391.855,185.534C391.811,185.887 389.309,187.368 389.074,187.507L388.977,187.452L388.203,185.939Z" style="fill:rgb(170,183,161);fill-opacity:0.33;"/>
            <path d="M1023.999,227.5C1022.166,228 1020.333,228.499 1018.5,228.999C1021.288,227.908 1021.05,227.859 1023.999,227.5Z" style="fill:rgb(204,197,139);fill-opacity:0.17;"/>
            <path d="M802.754,19.232C803.653,20.686 803.537,20.632 803.54,22.42C800.981,22.203 800.957,21.119 802.754,19.232Z" style="fill:rgb(136,189,179);"/>
            <path d="M358.577,83.574C358.053,87.847 356.422,86.013 356.294,85.793C355.091,83.726 358.308,83.69 358.577,83.574Z" style="fill:rgb(152,200,193);"/>
            <path d="M383.497,140.563C384.529,140.649 385.56,140.735 386.591,140.821C384.584,141.906 383.505,142.882 383.497,140.563Z" style="fill:rgb(190,214,183);"/>
            <path d="M378.636,155.772C384.007,155.591 379.767,157.968 379.58,158.025C377.986,158.51 379.164,157.364 378.636,155.772Z" style="fill:rgb(195,214,179);"/>
            <path d="M300.548,97.78C299.919,98.073 298.07,99.637 297.5,99.41C293.989,98.013 300.272,97.79 300.548,97.78Z" style="fill:rgb(158,202,196);"/>
            <path d="M725.624,30.14C725.999,30.138 726.374,30.136 726.748,30.135C727.3,30.539 727.851,30.943 728.402,31.348C727.492,31.713 726.581,32.079 725.67,32.445C725.655,31.676 725.639,30.908 725.624,30.14Z" style="fill:rgb(116,182,183);"/>
            <path d="M287.365,101.773C287.285,101.928 288.216,105.682 284.886,102.81C285.712,102.465 286.539,102.119 287.365,101.773Z" style="fill:rgb(165,199,194);fill-opacity:0.63;"/>
            <path d="M1023.999,206.5L1023.999,209.5C1022.773,207.963 1022.243,207.524 1023.999,206.5Z" style="fill:rgb(240,232,155);"/>
            <path d="M56.634,4.592C55.111,7.109 55.164,7.013 52.722,8.725C53.037,8.397 55.402,5.941 56.634,4.592Z" style="fill:rgb(72,134,136);fill-opacity:0.23;"/>
            <path d="M258.235,133.361C258.367,134.34 259.342,133.395 259.491,134.5C259.506,134.608 259.56,135.01 258.517,135.451C256.935,136.119 257.844,134.997 258.235,133.361Z" style="fill:rgb(174,214,193);fill-opacity:0.75;"/>
            <path d="M609.523,149.656L613.478,149.598C612.16,149.617 610.841,149.637 609.523,149.656Z" style="fill:rgb(205,218,183);"/>
            <path d="M26.401,13.193C26.784,13.958 27.167,14.723 27.55,15.488C26.841,15.095 26.132,14.701 25.423,14.308C25.749,13.937 26.075,13.565 26.401,13.193Z" style="fill:rgb(61,99,105);fill-opacity:0.08;"/>
            <path d="M38.678,19.669C37.399,21.6 37.453,21.495 35.62,22.668C35.869,22.433 37.355,21.035 38.678,19.669Z" style="fill:rgb(81,133,139);fill-opacity:0.24;"/>
            <path d="M598.493,71.329C597.756,71.813 597.019,72.296 596.283,72.78C597.177,71.61 596.97,71.47 598.493,71.329Z" style="fill:rgb(187,223,226);"/>
            <path d="M306.362,107.801C307.333,108.517 308.304,109.233 309.276,109.949C307.43,109.385 307.705,109.206 306.362,107.801Z" style="fill:rgb(120,141,135);fill-opacity:0.19;"/>
            <path d="M617.555,140.276C620.512,139.611 620.471,140.145 620.453,140.376C620.453,140.376 618.636,140.556 618.478,140.571L617.555,140.276Z" style="fill:rgb(213,227,191);"/>
            <path d="M561.617,130.662C561.915,131.222 562.214,131.783 562.513,132.344C561.671,131.595 560.954,131.75 561.617,130.662Z" style="fill:rgb(201,219,189);"/>
            <path d="M742.477,194.28C744.708,194.07 744.49,194.129 746.49,194.62L743.503,194.296L742.477,194.28Z" style="fill:rgb(232,227,160);"/>
            <path d="M978.466,129.223C980.494,129.048 980.366,128.947 982.503,129.382L978.466,129.223Z" style="fill:rgb(181,214,189);"/>
            <path d="M756.464,50.427C757.936,50.4 758.857,48.933 758.5,50.389C758.461,50.548 758.5,50.389 756.464,50.427Z" style="fill:rgb(109,179,182);"/>
            <path d="M392.559,196.419C393.203,197.511 392.773,197.371 392.123,198.501L392.559,196.419Z" style="fill:rgb(176,181,157);fill-opacity:0.24;"/>
            <path d="M743.503,194.296L746.49,194.62C744.936,194.974 745.087,194.84 743.503,194.296Z" style="fill:rgb(235,228,160);"/>
            <path d="M594.498,82.403L597.53,82.91C595.898,83.002 596.006,83.153 594.498,82.403Z" style="fill:rgb(127,189,187);"/>
            <path d="M644.507,98.599C645.513,98.614 646.52,98.629 647.527,98.644C645.963,99.038 646.132,99.133 644.507,98.599Z" style="fill:rgb(139,194,185);"/>
            <path d="M452.51,62.625C453.481,62.676 454.451,62.728 455.421,62.78C453.915,62.959 454.087,62.983 452.51,62.625Z" style="fill:rgb(116,183,181);"/>
            <path d="M987.506,129.368C988.508,129.307 989.51,129.245 990.511,129.184L987.506,129.368Z" style="fill:rgb(181,214,189);"/>
            <path d="M345.474,171.518C346.285,171.758 346.072,171.765 347.289,172.773C346.684,172.355 346.079,171.936 345.474,171.518Z" style="fill:rgb(153,166,154);fill-opacity:0.11;"/>
            <path d="M760.445,218.543C760.512,220.001 762.013,221.1 760.534,220.483C760.534,220.483 760.452,218.698 760.445,218.543Z" style="fill:rgb(243,230,160);fill-opacity:0.8;"/>
            <path d="M580.43,123.789C581.043,123.53 581.655,123.271 582.267,123.012C581.751,123.39 581.235,123.768 580.719,124.145L580.43,123.789Z" style="fill:rgb(178,206,183);"/>
            <path d="M373.44,99.211C374.536,98.845 374.344,99.092 375.5,99.477L373.44,99.211Z" style="fill:rgb(158,200,197);"/>
            <path d="M567.647,53.767L569.687,53.693C568.605,54.042 568.761,54.085 567.647,53.767Z" style="fill:rgb(102,177,185);"/>
            <path d="M762.678,61.748C762.123,62.213 762.91,62.54 762.268,63.078C761.47,63.748 762.308,62.947 762.678,61.748Z" style="fill:rgb(152,206,201);"/>
            <path d="M787.913,143.956L789.76,143.944C789.144,143.948 788.529,143.952 787.913,143.956Z" style="fill:rgb(240,244,205);"/>
        </g>
    </g>
</svg>
