<?xml version="1.0" encoding="UTF-8" standalone="no"?>
<!DOCTYPE svg PUBLIC "-//W3C//DTD SVG 1.1//EN" "http://www.w3.org/Graphics/SVG/1.1/DTD/svg11.dtd">
<svg width="100%" height="100%" viewBox="0 0 3840 274" version="1.1" xmlns="http://www.w3.org/2000/svg" xmlns:xlink="http://www.w3.org/1999/xlink" xml:space="preserve" xmlns:serif="http://www.serif.com/" style="fill-rule:evenodd;clip-rule:evenodd;stroke-linejoin:round;stroke-miterlimit:2;">
    <g transform="matrix(1,0,0,1,0,-743.621101)">
        <g id="layer_8.webp" transform="matrix(3.75,0,0,3.75,0,740)">
            <path d="M1023.999,27.5L1023.999,46.5C1022.597,46.539 1011.537,46.843 1006.501,47.687C1003.203,45.326 1003.199,44.467 999.426,45.908C995.221,46.704 967.422,50.287 964.432,49.83C964.384,49.823 950.596,44.764 947.491,44.711C940.958,44.601 940.993,45.251 937.353,43.876C937.153,38.227 930.733,39.012 927.451,42.799C918.913,37.516 918.292,41.55 905.553,42.79C870.75,46.179 871.168,51.331 858.487,48.885C858.336,48.855 839.967,53.913 849.461,46.473C849.678,46.302 849.591,46.253 851.221,43.5C851.311,41.5 851.402,39.499 851.493,37.499C853.034,35.766 853.353,36.027 853.325,33.63C852.835,33.338 850.49,30.277 851.774,33.69C851.37,34.371 850.966,35.052 850.561,35.733C850.204,36.656 849.847,37.579 849.49,38.502C849.62,40.064 850.234,47.483 833.461,49.767C832.266,49.93 831.012,45.729 828.352,44.897C826.335,44.266 826.401,44.431 825.103,42.704C824.821,42.039 824.539,41.375 824.258,40.71C818.949,39.214 819.331,37.77 812.527,37.933C813.136,35.536 812.667,35.507 810.433,34.69C771.816,31.727 771.776,32.435 768.471,31.802C766.806,31.483 766.806,34.105 764.519,36.518C761.44,39.766 761.003,38.614 754.499,38.494C754.18,38.512 753.861,38.53 753.541,38.548C748.253,43.319 740.584,40.836 739.506,40.487C733.968,38.694 735.483,44.106 729.624,44.894C728.981,45.18 728.339,45.467 727.697,45.753C723.936,48.831 722.781,45.404 718.711,47.937C711.449,52.458 711.045,47.957 703.487,47.688C699.525,47.546 687.842,46.762 686.482,46.671C687.848,40.732 697.355,47.744 703.702,39.552C703.977,39.603 711.06,40.907 706.495,37.453C706.349,37.343 706.495,37.453 704.447,38.456C703.471,37.983 703.462,37.575 702.622,38.344C701.88,38.186 700.157,39.905 696.494,34.434C698.177,34.187 699.86,33.94 701.543,33.693C704.206,33.574 706.869,33.455 709.533,33.335C714.91,29.602 714.873,29.564 715.379,29.369C715.627,29.034 715.875,28.7 716.123,28.366C717.16,22.113 716.634,22.033 718.467,18.102C725.536,18.24 725.518,18.011 727.486,18.541C751.443,24.995 751.702,24.149 753.583,25.2C755.431,24.833 757.279,24.465 759.128,24.098C760.912,22.843 768.708,21.793 770.119,23.817C774.424,29.991 775.928,26.655 783.454,26.113C796.688,25.159 796.476,26.506 809.608,26.149C812.737,27.738 820.201,31.53 853.471,26.186C886.192,21.852 903.314,13.8 910.5,13.284C921.141,14.896 921.023,14.555 931.546,16.101C944.822,18.052 944.377,19.22 957.515,21.453C957.187,21.73 958.292,23.357 951.367,25.047C947.93,25.885 909.103,31.393 932.514,31.233C940.817,31.176 940.813,32.054 948.435,30.169C952.945,29.474 952.848,29.585 957.475,30.133C953.826,35.813 957.312,35.919 957.571,35.57C957.838,35.21 958.023,34.962 958.403,30.034C965.314,28.119 965.794,31.024 972.192,28.019C973.962,29.347 974.222,29.484 973.229,31.465C973.058,31.807 971.706,34.505 974.646,36.031C977.808,37.672 973.843,27.89 978.524,30.455C979.253,30.855 983.038,29.749 983.076,27.503C983.114,25.256 982.875,25.421 983.472,23.076C1003.896,23.592 1003.467,27.032 1023.999,27.5Z" style="fill:rgb(167,193,199);fill-opacity:0.98;"/>
            <path d="M119.55,29.921L120.434,30.1C123.295,30.075 123.078,29.909 125.814,29.089C142.35,40.094 145.333,37.836 144.058,36.89C139.653,33.622 139.434,34.095 135.507,30.124C153.107,27.262 152.962,26.666 154.489,26.419C171.379,23.691 170.722,34.041 187.456,31.173C190.451,33.499 190.664,32.62 194.5,32.156C217.744,27.681 218.114,28.284 227.58,33.156C229.855,33.49 245.11,31.544 277.564,42.34C278.189,42.584 287.802,46.332 284.415,47.193C281.433,47.951 281.471,47.611 278.667,48.673C273.494,44.679 269.53,48.34 263.673,47.891L261.484,47.519C261.998,56.5 262.243,57.271 262.5,58.08L261.191,59.807C253.354,55.63 241.273,56.735 239.532,56.895C238.398,56.998 227.836,57.965 225.568,59.611C215.373,67.008 214.348,62.075 191.455,57.925C191.441,57.882 189.817,47.461 188.517,47.692C183.749,48.536 185.444,50.145 185.671,50.359C189.169,53.679 185.479,53.603 182.5,54.846C182.89,51.288 182.839,51.386 182.123,47.822C181.633,47.802 181.142,47.783 180.651,47.763C178.919,48.445 176.547,49.076 179.845,51.317L178.5,52.676C175.351,51.269 175.558,50.989 174.469,47.618C172.065,44.971 172.157,44.631 171.882,44.769C170.607,45.411 171.646,45.553 173.647,47.74C170.295,52.151 169.532,51.11 165.462,54.978C154.349,52.478 134.459,54.262 130.36,50.871C129.381,49.427 128.402,47.982 127.422,46.537C129.738,43.223 130.614,45.167 134.498,44.493C146.076,42.484 130.85,42.677 130.499,42.681C129.805,40.098 130.121,40.133 131.182,37.739C130.29,37.325 129.399,36.912 128.507,36.499C128.273,36.294 128.379,35.844 128.145,35.639C128.007,35.518 125.953,33.723 126.648,37.375C126.609,38.217 126.57,39.058 126.53,39.899C122.137,36.978 122.076,38.872 121.804,38.88C121.419,38.892 120.08,38.934 118.455,35.43L119.581,33.529C119.62,32.069 119.148,32.398 117.657,32.712C117.616,31.967 117.575,31.221 117.534,30.476L119.55,29.921Z" style="fill:rgb(143,176,194);fill-opacity:0.99;"/>
            <path d="M464.542,34.216C479.243,34.893 478.987,35.779 493.494,37.078C493.603,37.154 497.179,39.261 497.5,39.45C511.927,47.947 511.041,49.363 512.452,49.702C525.082,52.732 543.728,48.711 546.384,48.138C546.59,51.209 546.352,51.147 546.59,51.209C549.336,51.921 548.986,50.293 547.551,47.881C560.174,42.42 561.338,45.261 572.465,37.251C585.337,35.433 585.191,38.79 584.569,39.555C584.366,39.805 577.891,41.334 579.526,43.484C580.114,44.257 588.658,44.888 588.067,48.063C584.177,48.975 584.363,48.69 580.483,48.394C578.22,48.222 581.919,53.597 582.183,53.982C586.872,55.658 586.143,56.575 586.503,56.836C574.829,58.211 575.159,59.077 563.621,60.872C518.085,67.958 517.444,65.731 514.224,68.093C513.347,68.101 512.471,68.109 511.594,68.117C510.575,68.051 509.555,67.985 508.536,67.919C501.096,69.833 501.225,69.628 493.499,69.331C494.286,66.988 495.418,66.321 493.5,65.968C490.622,65.438 464.974,64.837 462.493,64.779C457.331,64.658 454.703,63.259 455.551,68.391C455.296,68.191 452.624,66.104 452.291,65.993C450.483,65.392 432.82,59.516 429.544,58.91C430.064,57.218 429.06,56.964 430.5,55.802C430.571,55.745 431.111,55.308 431.5,55.265C447.273,53.496 447.162,63.203 475.451,57.312C485.905,51.413 518.386,48.816 497.546,49.192C486.953,49.383 487.219,48.349 477.837,43.145C475.799,41.309 475.903,41.431 473.575,40.193C467.47,37.665 465.102,34.877 464.542,34.216Z" style="fill:rgb(157,180,181);fill-opacity:0.99;"/>
            <path d="M220.505,23.513C227.976,29.28 232.906,32.282 235.336,26.092C240.827,23.749 241.883,25.873 246.644,27.084C247.351,27.264 253.619,28.859 255.335,29.832C284.47,46.364 344.424,43.005 362.516,43.277C365.798,43.284 391.594,43.336 403.491,41.281C400.465,47.163 400.34,46.994 399.07,47.88C398.744,47.589 399.637,46.883 399.311,46.592C399.311,46.592 397.546,47.26 397.393,47.318L396.63,47.781C393.082,48.704 394.076,50.176 390.791,51.795L389.978,50.456C388.188,48.331 388.561,44.839 387.487,47.499C386.153,50.8 387.268,50.719 389.584,53.426C393.676,53.845 393.456,53.163 396.813,50.798L398.5,50.5C403.293,51.317 397.796,52.543 397.313,54.5C396.759,56.75 417.685,54.836 418.313,56.5C418.413,56.765 418.396,56.749 419.429,59.858C388.097,59.061 372.423,55.721 368.413,54.866C347.392,49.88 341.544,55.364 334.518,56.644C320.364,59.224 322.533,47.286 318.291,45.988C317.638,45.788 317.049,45.608 312.91,52.6C311.567,50.181 311.142,50.421 310.903,47.673C310.708,45.441 302.206,48.221 301.488,48.456C292.023,49.255 289.737,49.281 291.473,50.524C291.781,50.745 299.123,52.019 293.5,56.331C290.474,54.911 290.515,55.186 287.415,53.756C284.837,52.844 282.259,51.933 279.681,51.022C278.664,49.911 278.611,50.073 278.667,48.673C281.471,47.611 281.433,47.951 284.415,47.193C287.802,46.332 278.189,42.584 277.564,42.34C245.11,31.544 229.855,33.49 227.58,33.156C218.114,28.284 217.744,27.681 194.5,32.156C190.664,32.62 190.451,33.499 187.456,31.173C218.198,24.596 217.831,23.982 220.505,23.513Z" style="fill:rgb(157,179,175);fill-opacity:0.98;"/>
            <path d="M596.516,19.308C596.166,23.859 596.73,23.655 599.49,27.468C591.327,28.083 591.633,25.683 583.467,26.071C574.988,26.474 587.956,31.274 588.511,31.48C588.512,32.155 588.514,32.831 588.516,33.507C582.687,35.003 582.541,31.065 578.591,32.893C568.311,37.65 551.66,35.025 563.566,37.336C563.566,37.336 571.753,37.258 572.465,37.251C561.338,45.261 560.174,42.42 547.551,47.881L546.384,48.138C543.728,48.711 525.082,52.732 512.452,49.702C511.041,49.363 511.927,47.947 497.5,39.45C497.179,39.261 493.603,37.154 493.494,37.078C512.833,32.865 534.669,24.842 538.596,23.691C539.686,23.411 540.777,23.132 541.868,22.852L546.316,22.205C553.98,22.121 553.848,21.912 561.487,21.296C578.918,19.036 578.736,19.102 596.516,19.308Z" style="fill:rgb(155,180,167);fill-opacity:1;"/>
            <path d="M452.5,33.246C460.52,33.457 460.556,32.989 463.64,34.062L464.542,34.216C465.102,34.877 467.47,37.665 473.575,40.193C471.728,44.442 472.33,45.063 476.616,47.108C478.112,47.822 476.534,46.585 476.5,44.939C476.485,44.193 477.852,43.89 477.837,43.145C487.219,48.349 486.953,49.383 497.546,49.192C518.386,48.816 485.905,51.413 475.451,57.312C447.162,63.203 447.273,53.496 431.5,55.265C431.111,55.308 430.571,55.745 430.5,55.802C429.06,56.964 430.064,57.218 429.544,58.91C423.199,59.986 423.29,61.39 419.429,59.858C418.396,56.749 418.413,56.765 418.313,56.5C417.685,54.836 396.759,56.75 397.313,54.5C397.796,52.543 403.293,51.317 398.5,50.5C398.69,49.627 398.88,48.753 399.07,47.88C400.34,46.994 400.465,47.163 403.491,41.281C417.715,39.583 417.523,39.844 431.436,37.132C431.271,37.861 432.464,39.723 428.565,43.55C428.522,44.594 428.468,44.669 429.379,44.624C430.435,44.596 431.492,44.568 432.549,44.54C430.371,52.436 433.629,51.97 433.889,51.469C433.999,51.258 433.495,51.396 433.906,48.493C434.577,43.75 437.832,41.88 437.931,41.714C439.314,39.42 440.133,39.299 441.489,41.499C443.908,39.173 444.179,40.127 447.426,39.739C447.436,35.337 449.737,36.694 452.5,33.246Z" style="fill:rgb(153,187,197);fill-opacity:1;"/>
            <path d="M0,43.5L0,39.5C0.253,38.782 1.801,39.217 2.054,38.499C2.486,37.273 -0.126,29.947 5.32,31.695C6.335,35.334 6.632,35.031 7.255,38.634C7.819,41.888 9.637,38.685 9.531,32.903C11.875,31.471 11.794,30.434 14.337,31.686C16.722,34.476 15.216,35.232 17.521,38.077L19.929,38.232C22.312,42.125 22.502,33.735 22.523,33.492C24.988,32.898 24.726,32.665 26.728,31.216L27.32,30.208C32.088,19.282 29.483,39.474 32.361,38.074C34.065,37.245 32.236,36.121 33.753,34.857C35.019,34.56 34.87,34.56 35.664,33.697L36.329,33.079C37.374,32.212 38.273,32.539 38.523,27.582C39.835,28.141 39.769,28.048 39.835,28.141C43.505,33.274 43.248,26.721 43.576,25.53C43.852,25.296 44.129,25.062 44.405,24.828L45.294,25.584C45.319,25.785 45.613,33.962 47.247,32.279C51.996,27.388 50.017,33.814 50.96,35.339C52.682,38.122 51.891,34.279 53.884,31.763C56.368,28.629 58.935,35.936 59.544,36.189C60.655,36.649 61.002,28.439 66.121,31.995C67.997,34.168 69.087,47.529 70.106,40.404C70.681,36.385 68.857,36.304 70.602,32.622C83.182,22.241 45.033,34.747 48.403,24.462C49.985,25.211 51.102,25.614 51.379,22.222C52.609,20.902 52.58,21.116 53.075,19.396C53.827,19.631 53.742,19.369 54.52,19.612C54.681,19.662 54.52,19.612 56.491,20.374C58.094,20.256 57.885,20.277 59.456,19.685C71.974,21.285 73.046,18.648 73.473,17.598C74.35,18.141 75.482,18.173 76.359,18.716C77.664,19.524 74.67,21.918 74.711,25.478C74.732,27.354 79.036,31.085 79.5,31.488L80.695,31.942C79.575,35.061 76.216,39.922 80.084,42.874C85.881,47.299 59.57,56.412 48.682,45.275C48.232,44.815 41.779,42.204 41.17,41.958C38.741,40.975 33.564,46.977 21.518,47.68C15.218,48.048 14.472,50.553 9.714,46.26C6.749,43.586 5.607,46.575 0,43.5Z" style="fill:rgb(143,176,194);fill-opacity:0.99;"/>
            <path d="M0,39.5L0,15.5C1.314,15.36 1.428,15.942 8.296,13.074C9.439,12.182 9.456,12.355 12.354,11.129C15.054,14.448 15.499,13.53 19.595,13.844C31.408,13.982 31.251,13.878 34.473,13.872C36.873,13.867 36.568,13.263 36.771,11.069C39.137,11.196 38.894,10.877 41.478,10.074C46.594,9.959 46.427,10.083 51.475,10.542C48.749,17.86 37.829,21.081 45.48,19.254C46.037,19.121 55.598,15.482 56.476,15.148C58.285,18.507 59.15,19.377 59.456,19.685C57.885,20.277 58.094,20.256 56.491,20.374C54.52,19.612 54.681,19.662 54.52,19.612C53.742,19.369 53.827,19.631 53.075,19.396C49.774,20.757 50.291,21.361 49.95,21.59L49.338,23.341L48.403,24.462C45.033,34.747 83.182,22.241 70.602,32.622C68.907,30.223 68.45,30.5 66.121,31.995C61.002,28.439 60.655,36.649 59.544,36.189C58.935,35.936 56.368,28.629 53.884,31.763C51.891,34.279 52.682,38.122 50.96,35.339C50.017,33.814 51.996,27.388 47.247,32.279C45.613,33.962 45.319,25.785 45.294,25.584C44.998,25.332 44.702,25.08 44.405,24.828C44.129,25.062 43.852,25.296 43.576,25.53L42.622,25.332C41.199,24.895 41.342,24.807 40.118,25.453L38.523,27.582C38.273,32.539 37.374,32.212 36.329,33.079L35.664,33.697C34.114,32.287 33.845,30.801 32.803,32.643C32.803,32.643 33.677,34.68 33.753,34.857C32.236,36.121 34.065,37.245 32.361,38.074C29.483,39.474 32.088,19.282 27.32,30.208L26.45,30.622L25.613,30.322C25.501,28.258 25.663,27.92 23.689,27.792L21.347,27.759C20.812,28.013 20.277,28.268 19.742,28.522C20.187,29.769 20.526,31.346 20.58,31.595C19.907,31.844 18.764,32.841 18.62,32.966C18.549,32.756 17.731,30.337 17.731,30.337C16.899,27.984 16.596,30.788 14.337,31.686C11.794,30.434 11.875,31.471 9.531,32.903C9.256,32.45 8.981,31.996 8.706,31.542C8.173,31.049 9.67,31.088 9.032,30.498C8.803,30.286 8.767,30.583 5.32,31.695C-0.126,29.947 2.486,37.273 2.054,38.499C1.801,39.217 0.253,38.782 0,39.5Z" style="fill:rgb(143,176,196);fill-opacity:1;"/>
            <path d="M596.489,1.533C598.024,2.043 611.548,6.539 615.351,8.805C622.043,12.791 656.881,21.382 660.544,22.285C658.459,25.817 658.647,26.039 658.297,26.091C655.209,26.545 655.692,27.198 653.406,29.437C651.761,31.279 651.89,31.221 649.425,32.094C646.389,33.712 646.431,33.424 643.359,35.043C643.899,31.091 644.106,31.158 643.812,29.868C644.78,28.987 645.747,28.106 646.715,27.225C647.074,26.834 653.262,23.504 646.5,21.617C641.631,23.088 641.708,23.891 639.271,22.932C639.071,22.714 639.04,22.885 636.455,20.536C633.035,19.553 627.333,20.735 618.491,21.222C618.419,21.226 617.048,21.928 596.516,19.308C578.736,19.102 578.918,19.036 561.487,21.296C553.848,21.912 553.98,22.121 546.316,22.205L546.332,21.49C546.637,21.11 546.628,20.602 569.565,17.983C573.832,17.367 573.663,17.315 577.678,15.957L584.466,15.246L586.593,14.911C596.667,13.544 596.704,13.076 606.394,15.903C647.488,27.891 595.147,9.325 592.898,5.58C593.206,5.276 595.008,3.5 596.489,1.533Z" style="fill:rgb(198,212,176);fill-opacity:0.99;"/>
            <path d="M673.588,33.599L672.292,35.371C667.487,39.695 667.145,38.775 661.223,41.005C658.678,42.434 640.159,52.829 627.5,54.902C625.625,55.209 626.07,55.867 624.447,56.962C617.661,57.774 590.498,57.204 586.503,56.836C586.143,56.575 586.872,55.658 582.183,53.982C581.919,53.597 578.22,48.222 580.483,48.394C584.363,48.69 584.177,48.975 588.067,48.063C592.017,47.143 590.144,45.602 590.483,41.501C593.387,41.561 593.155,41.392 595.718,40.317C603.635,53.016 630.331,53.439 649.805,40.978C653.063,38.898 665.11,29.537 673.588,33.599Z" style="fill:rgb(176,192,179);fill-opacity:0.99;"/>
            <path d="M639.271,22.932C641.708,23.891 641.631,23.088 646.5,21.617C653.262,23.504 647.074,26.834 646.715,27.225C645.964,27.003 645.214,26.78 644.464,26.558C643.523,25.757 643.02,25.645 642.868,26.903C640.713,28.405 641.31,29.519 643.812,29.868C644.106,31.158 643.899,31.091 643.359,35.043C631.155,40.178 631.101,39.828 630.417,40.086C612.876,41.946 609.842,38.496 604.83,36.028C604.083,35.445 603.335,34.862 602.587,34.279C597.211,32.632 597.373,32.25 593.363,31.976C592.036,31.896 590.708,31.816 589.381,31.737L588.511,31.48C587.956,31.274 574.988,26.474 583.467,26.071C591.633,25.683 591.327,28.083 599.49,27.468L603.453,26.3C603.362,28.5 603.286,28.341 603.362,28.5C608.479,39.275 605.51,26.264 605.44,26.014L608.502,25.823C608.867,26.428 609.372,28.631 610.56,29.317C612.84,30.634 614.142,28.615 614.978,31.312C616.253,35.423 617.027,29.286 621.378,29.004C622.202,32.213 623.897,32.097 624.231,32.074C624.421,32.102 632.158,32.072 625.082,29.836C623.92,28.656 623.914,28.906 622.472,28.412C624.134,27.392 625.796,26.372 627.458,25.352L629.43,24.321C629.489,24.924 630.665,37.002 632.005,31.441C632.856,27.909 632.926,27.177 636.593,27.494C636.923,24.679 637.593,25.091 639.271,22.932Z" style="fill:rgb(195,213,183);"/>
            <path d="M593.363,31.976C597.373,32.25 597.211,32.632 602.587,34.279C600.681,36.212 597.034,35.502 599.649,40.608C600.241,41.219 600.833,41.83 601.426,42.441C602.907,45 602.541,42.267 602.51,42.183C604.188,40.721 604.49,40.681 603.548,38.794C603.976,37.872 604.403,36.95 604.83,36.028C609.842,38.496 612.876,41.946 630.417,40.086C631.101,39.828 631.155,40.178 643.359,35.043C646.431,33.424 646.389,33.712 649.425,32.094C649.219,33.561 649.013,35.028 648.807,36.495C649.139,37.989 649.472,39.484 649.805,40.978C630.331,53.439 603.635,53.016 595.718,40.317L593.965,38.209C594.042,35.114 594.158,35.224 593.646,32.166L593.363,31.976Z" style="fill:rgb(188,199,177);"/>
            <path d="M35.518,1.554C54.758,1.17 54.957,1.226 72.635,9.192C81.916,13.375 85.017,12.814 82.656,15.775C81.478,16.206 80.871,15.683 80.903,17.286C83.284,20.824 87.997,23.828 84.832,28.658C81.78,24.488 83.513,19.687 79.729,22.832C79.196,23.275 81.469,23.567 79.5,31.488C79.036,31.085 74.732,27.354 74.711,25.478C74.67,21.918 77.664,19.524 76.359,18.716C75.482,18.173 74.35,18.141 73.473,17.598C72.47,17.351 71.468,17.104 70.466,16.857C62.23,10.685 61.469,12.803 51.475,10.542C46.427,10.083 46.594,9.959 41.478,10.074C38.306,4.634 36.89,3.035 35.518,1.554Z" style="fill:rgb(161,170,147);fill-opacity:0.99;"/>
            <path d="M106.312,22.524C106.262,20.325 106.854,20.207 105.56,18.471C100.715,11.963 111.906,15.515 122.667,23.23C121.569,26.746 123.258,26.214 125.814,29.089C123.078,29.909 123.295,30.075 120.434,30.1C120.83,28.619 120.188,28.815 119.486,27.403C115.761,27.001 117.568,29.013 117.534,30.476C117.575,31.221 117.616,31.967 117.657,32.712C116.851,34.313 116.963,34.537 118.455,35.43C120.08,38.934 121.419,38.892 121.804,38.88C122.076,38.872 122.137,36.978 126.53,39.899C128.289,39.032 128.192,39.131 129.494,37.456C130.057,37.55 130.619,37.644 131.182,37.739C130.121,40.133 129.805,40.098 130.499,42.681C129.157,42.983 127.815,43.286 126.472,43.589C112.546,42.936 111.86,41.468 109.098,44.471C108.439,41.388 108.567,41.576 108.711,38.426C108.542,37.431 108.372,36.436 108.203,35.441C107.638,32.813 107.447,32.972 108.075,30.378C108.063,28.362 107.905,28.592 107.149,26.606C106.87,25.245 106.591,23.885 106.312,22.524Z" style="fill:rgb(141,175,193);fill-opacity:0.96;"/>
            <path d="M718.467,18.102C716.634,22.033 717.16,22.113 716.123,28.366C715.875,28.7 715.627,29.034 715.379,29.369C714.877,29.025 714.375,28.681 713.873,28.338C713.616,25.815 715.515,24.434 712.966,24.495C711.139,23.831 710.787,21.637 710.23,23.5C709.882,24.661 709.87,24.505 709.509,25.513L708.764,25.877C707.283,26.76 707.122,26.119 705.579,27.048C702.784,28.731 702.909,28.687 702.732,28.715C700.74,31.348 698.667,31.923 701.543,33.693C699.86,33.94 698.177,34.187 696.494,34.434L690.505,34.976C675.78,37.44 673.546,36.115 672.292,35.371L673.588,33.599C674.366,32.967 674.291,32.994 680.397,27.156C682.004,26.209 701.21,22.909 704.458,22.151C711.674,20.467 711.14,19.192 718.467,18.102Z" style="fill:rgb(153,187,197);fill-opacity:0.99;"/>
            <path d="M690.505,34.976L696.494,34.434C700.157,39.905 701.88,38.186 702.622,38.344L703.702,39.552C697.355,47.744 687.848,40.732 686.482,46.671C678.836,46.596 679.15,48.192 671.497,48.489C674.863,45.424 672.18,41.803 670.693,44.658C669.404,47.129 669.134,44.73 668.15,44.247C663.268,46.446 664.113,43.044 661.223,41.005C667.145,38.775 667.487,39.695 672.292,35.371C673.546,36.115 675.78,37.44 690.505,34.976Z" style="fill:rgb(157,180,182);fill-opacity:0.99;"/>
            <path d="M661.223,41.005C664.113,43.044 663.268,46.446 668.15,44.247C669.134,44.73 669.404,47.129 670.693,44.658C672.18,41.803 674.863,45.424 671.497,48.489C630.66,59.754 627.935,58.529 624.447,56.962C626.07,55.867 625.625,55.209 627.5,54.902C640.159,52.829 658.678,42.434 661.223,41.005Z" style="fill:rgb(157,180,181);fill-opacity:0.95;"/>
            <path d="M660.544,22.285C662.562,22.86 674.194,27.038 680.397,27.156C674.291,32.994 674.366,32.967 673.588,33.599C665.11,29.537 653.063,38.898 649.805,40.978C649.472,39.484 649.139,37.989 648.807,36.495C650.558,36.448 653.589,35.652 649.425,32.094C651.89,31.221 651.761,31.279 653.406,29.437C655.692,27.198 655.209,26.545 658.297,26.091C658.647,26.039 658.459,25.817 660.544,22.285Z" style="fill:rgb(186,198,177);fill-opacity:0.99;"/>
            <path d="M482.5,73.999L475.5,73.999C468.48,71.684 468.701,71.355 461.403,69.788C460.418,69.438 459.432,69.088 458.447,68.738L455.551,68.391C454.703,63.259 457.331,64.658 462.493,64.779C464.974,64.837 490.622,65.438 493.5,65.968C495.418,66.321 494.286,66.988 493.499,69.331C487.576,70.84 487.685,70.744 482.5,73.999Z" style="fill:rgb(153,186,196);fill-opacity:0.98;"/>
            <path d="M957.515,21.453C966.035,23.627 965.907,23.546 974.499,25.157C973.396,26.874 973.591,26.803 972.192,28.019C965.794,31.024 965.314,28.119 958.403,30.034L957.475,30.133C952.848,29.585 952.945,29.474 948.435,30.169C940.813,32.054 940.817,31.176 932.514,31.233C909.103,31.393 947.93,25.885 951.367,25.047C958.292,23.357 957.187,21.73 957.515,21.453Z" style="fill:rgb(211,227,201);fill-opacity:0.98;"/>
            <path d="M287.415,53.756C290.515,55.186 290.474,54.911 293.5,56.331C294.964,56.407 294.751,56.68 296.499,57.949L297.452,57.999C279.679,60.613 279.943,65.868 263.395,61.696C262.783,61.281 262.17,60.865 261.557,60.449L261.191,59.807L262.5,58.08C268.806,49.606 270.398,54.789 270.598,55.441C271.825,59.433 273.112,57.721 273.141,57.462C273.36,55.518 273.641,55.663 275.428,55.352C274.13,56.851 274.474,57.332 274.581,57.481C274.761,57.734 275.945,59.391 277.681,55.154C286.418,54.277 286.718,54.12 287.415,53.756Z" style="fill:rgb(143,176,194);fill-opacity:0.96;"/>
            <path d="M589.381,31.737C590.708,31.816 592.036,31.896 593.363,31.976L593.646,32.166C594.158,35.224 594.042,35.114 593.965,38.209C591.595,39.34 591.121,38.902 590.483,41.501C590.144,45.602 592.017,47.143 588.067,48.063C588.658,44.888 580.114,44.257 579.526,43.484C577.891,41.334 584.366,39.805 584.569,39.555C585.191,38.79 585.337,35.433 572.465,37.251C571.753,37.258 563.566,37.336 563.566,37.336C551.66,35.025 568.311,37.65 578.591,32.893C582.541,31.065 582.687,35.003 588.516,33.507C589.292,32.726 589.168,32.823 589.381,31.737Z" style="fill:rgb(175,192,180);"/>
            <path d="M596.516,19.308C617.048,21.928 618.419,21.226 618.491,21.222C627.333,20.735 633.035,19.553 636.455,20.536C635.92,21.284 636.224,21.821 629.43,24.321L627.458,25.352C626.661,24.03 626.87,23.955 625.593,23.306C616.867,24.187 617.178,25.199 608.502,25.823L605.44,26.014L603.453,26.3L599.49,27.468C596.73,23.655 596.166,23.859 596.516,19.308Z" style="fill:rgb(154,186,197);"/>
            <path d="M29.404,4.352C36.302,6.162 36.117,8.879 36.771,11.069C36.568,13.263 36.873,13.867 34.473,13.872C31.251,13.878 31.408,13.982 19.595,13.844C15.499,13.53 15.054,14.448 12.354,11.129C20.782,7.283 20.74,7.566 29.404,4.352Z" style="fill:rgb(143,177,194);fill-opacity:1;"/>
            <path d="M578.231,6.042C578.519,9.001 578.462,8.867 576.919,11.319C574.196,11.481 572.85,11.857 574.568,13.803C570.017,14.494 569.632,17.465 569.565,17.983C546.628,20.602 546.637,21.11 546.332,21.49C545.917,21.359 543.5,20.595 541.453,19.103C557.475,17.03 564.071,12.057 578.231,6.042Z" style="fill:rgb(157,180,167);fill-opacity:0.97;"/>
            <path d="M155.449,32.25C156.491,32.202 157.533,32.155 158.574,32.107C158.36,33.767 158.146,35.427 157.932,37.087C158.916,39.751 158.068,41.77 160.457,40.357C162.939,38.889 163.046,40.005 196.501,39.673C197.588,40.295 198.675,40.917 199.763,41.539L200.437,42.939C162.137,42.004 161.94,42.189 159.553,44.429C156.74,42.613 156.966,42.705 154.33,40.753C154.762,39.015 155.194,37.278 155.626,35.541C155.567,34.444 155.508,33.347 155.449,32.25Z" style="fill:rgb(143,176,195);"/>
            <path d="M126.472,43.589C126.789,44.571 127.106,45.554 127.422,46.537C128.402,47.982 129.381,49.427 130.36,50.871C116.915,50.34 107.684,54.039 109.098,44.471C111.86,41.468 112.546,42.936 126.472,43.589Z" style="fill:rgb(162,167,141);fill-opacity:0.99;"/>
            <path d="M592.898,5.58C595.147,9.325 647.488,27.891 606.394,15.903C596.704,13.076 596.667,13.544 586.593,14.911C586.308,10.867 585.725,10.08 589.562,8.567C589.908,10.164 590.004,10.493 591.517,10.054C591.077,9.475 590.637,8.896 590.197,8.316L592.898,5.58Z" style="fill:rgb(156,180,166);"/>
            <path d="M301.488,48.456C302.206,48.221 310.708,45.441 310.903,47.673C311.142,50.421 311.567,50.181 312.91,52.6C314.2,59.344 307.747,57.586 297.452,57.999L296.499,57.949C298.06,55.5 299.489,53.061 299.741,52.631C308.848,58.756 301.295,49.691 301.1,49.5L301.488,48.456Z" style="fill:rgb(155,179,167);fill-opacity:0.97;"/>
            <path d="M452.5,33.246C449.737,36.694 447.436,35.337 447.426,39.739C444.179,40.127 443.908,39.173 441.489,41.499C440.133,39.299 439.314,39.42 437.931,41.714C437.661,41.594 437.192,39.259 435.307,41.319C433.841,42.922 434.052,42.847 432.549,44.54C431.492,44.568 430.435,44.596 429.379,44.624C429.108,44.266 428.836,43.908 428.565,43.55C432.464,39.723 431.271,37.861 431.436,37.132C441.973,34.354 441.777,34.449 452.5,33.246Z" style="fill:rgb(155,187,196);fill-opacity:0.97;"/>
            <path d="M596.489,1.533C595.008,3.5 593.206,5.276 592.898,5.58C592.26,5.395 587.293,3.957 584.892,7.797C582.758,11.208 583.599,11.352 584.466,15.246L577.678,15.957C579.626,12.946 578.606,11.645 581.489,10.426C582.838,9.465 582.42,9.238 581.5,7.916C581.102,6.966 580.705,6.016 580.307,5.065C588.219,-1.096 596.185,1.508 596.489,1.533Z" style="fill:rgb(156,180,166);fill-opacity:0.99;"/>
            <path d="M261.484,47.519L263.673,47.891C266.082,55.232 269.48,50.703 277.5,52.909C277.722,52.97 277.5,52.909 279.681,51.022C282.259,51.933 284.837,52.844 287.415,53.756C286.718,54.12 286.418,54.277 277.681,55.154C276.93,55.22 276.179,55.286 275.428,55.352C273.641,55.663 273.36,55.518 273.141,57.462C273.112,57.721 271.825,59.433 270.598,55.441C270.398,54.789 268.806,49.606 262.5,58.08C262.243,57.271 261.998,56.5 261.484,47.519Z" style="fill:rgb(143,176,196);"/>
            <path d="M14.497,19.39C15.044,19.788 15.592,20.185 16.139,20.582C16.338,27.035 16.698,26.981 16.529,27.509C16.207,28.514 9.135,28.303 8.489,28.284C7.993,28.269 -7.777,27.8 6.43,22.437C6.445,22.678 6.731,27.212 9.287,23.4C9.663,21.8 9.618,21.929 9.531,20.225C11.187,19.947 12.842,19.669 14.497,19.39Z" style="fill:rgb(143,177,194);"/>
            <path d="M51.475,10.542C61.469,12.803 62.23,10.685 70.466,16.857C63.352,16.756 63.556,16.59 56.476,15.148C55.598,15.482 46.037,19.121 45.48,19.254C37.829,21.081 48.749,17.86 51.475,10.542Z" style="fill:rgb(155,179,167);"/>
            <path d="M173.647,47.74L174.469,47.618C175.558,50.989 175.351,51.269 178.5,52.676C179.855,52.541 180.296,52.582 179.845,51.317C176.547,49.076 178.919,48.445 180.651,47.763C181.142,47.783 181.633,47.802 182.123,47.822C182.839,51.386 182.89,51.288 182.5,54.846L181.478,55.917C169.965,55.68 170.005,56.439 165.462,54.978C169.532,51.11 170.295,52.151 173.647,47.74Z" style="fill:rgb(143,176,194);fill-opacity:0.98;"/>
            <path d="M122.667,23.23C131.902,29.123 134.383,29.812 135.507,30.124C139.434,34.095 139.653,33.622 144.058,36.89C145.333,37.836 142.35,40.094 125.814,29.089C123.258,26.214 121.569,26.746 122.667,23.23Z" style="fill:rgb(162,170,147);fill-opacity:0.97;"/>
            <path d="M263.673,47.891C269.53,48.34 273.494,44.679 278.667,48.673C278.611,50.073 278.664,49.911 279.681,51.022C277.5,52.909 277.722,52.97 277.5,52.909C269.48,50.703 266.082,55.232 263.673,47.891Z" style="fill:rgb(143,176,194);"/>
            <path d="M983.472,23.076C982.875,25.421 983.114,25.256 983.076,27.503C983.038,29.749 979.253,30.855 978.524,30.455C973.843,27.89 977.808,37.672 974.646,36.031C971.706,34.505 973.058,31.807 973.229,31.465C974.222,29.484 973.962,29.347 972.192,28.019C973.591,26.803 973.396,26.874 974.499,25.157C979.243,24.114 979.045,24.255 983.472,23.076Z" style="fill:rgb(173,198,204);fill-opacity:0.99;"/>
            <path d="M625.593,23.306C623.658,26.951 619.5,25.389 621.378,29.004C617.027,29.286 616.253,35.423 614.978,31.312C614.142,28.615 612.84,30.634 610.56,29.317C609.372,28.631 608.867,26.428 608.502,25.823C617.178,25.199 616.867,24.187 625.593,23.306Z" style="fill:rgb(194,214,183);"/>
            <path d="M214.169,33.795C213.892,35.173 215.566,38.345 208.516,37.741C205.568,37.488 205.198,36.145 203.217,38.37C202.866,39.728 202.772,39.608 202.827,40.524L202.544,42.561L200.437,42.939L199.763,41.539C200.555,38.696 200.565,38.718 200.618,38.469C200.751,37.843 200.366,37.978 200.469,37.49C201.955,35.202 202.028,35.485 204.501,34.493C205.528,34.905 205.429,34.88 206.511,34.526C208.958,33.068 211.995,33.986 212.553,33.607C213.36,33.06 213.245,33.687 214.169,33.795Z" style="fill:rgb(143,177,194);"/>
            <path d="M56.476,15.148C63.556,16.59 63.352,16.756 70.466,16.857C71.468,17.104 72.47,17.351 73.473,17.598C73.046,18.648 71.974,21.285 59.456,19.685C59.15,19.377 58.285,18.507 56.476,15.148Z" style="fill:rgb(143,177,194);"/>
            <path d="M636.455,20.536C639.04,22.885 639.071,22.714 639.271,22.932C637.593,25.091 636.923,24.679 636.593,27.494C632.926,27.177 632.856,27.909 632.005,31.441C630.665,37.002 629.489,24.924 629.43,24.321C636.224,21.821 635.92,21.284 636.455,20.536Z" style="fill:rgb(194,214,184);"/>
            <path d="M181.478,55.917L182.5,54.846C185.479,53.603 189.169,53.679 185.671,50.359C185.444,50.145 183.749,48.536 188.517,47.692C189.817,47.461 191.441,57.882 191.455,57.925L187.48,57.606C186.802,57.315 186.125,57.025 185.447,56.734L181.478,55.917Z" style="fill:rgb(143,176,194);fill-opacity:0.97;"/>
            <path d="M143.599,43.476C144.231,44.149 144.187,43.948 145.498,44.47C149.721,44.775 149.717,45.389 153.601,43.352L156.544,45.412C153.56,49.717 152.83,47.769 152.557,47.75C152.351,48.042 152.144,48.334 151.937,48.626C152.614,51.39 150.323,53.167 149.98,50.5C149.337,45.51 147.539,46.797 142.557,47.779C142.566,46.78 141.415,47.556 141.425,46.566C141.426,46.372 141.425,46.566 142.815,44.587L143.599,43.476Z" style="fill:rgb(143,176,196);"/>
            <path d="M580.307,5.065C580.705,6.016 581.102,6.966 581.5,7.916C580.808,9.026 579.798,9.232 581.489,10.426C578.606,11.645 579.626,12.946 577.678,15.957C573.663,17.315 573.832,17.367 569.565,17.983C569.632,17.465 570.017,14.494 574.568,13.803C576.466,12.796 577.884,13.351 576.919,11.319C578.462,8.867 578.519,9.001 578.231,6.042C578.923,5.717 579.615,5.391 580.307,5.065Z" style="fill:rgb(155,180,166);fill-opacity:1;"/>
            <path d="M35.518,1.554C36.89,3.035 38.306,4.634 41.478,10.074C38.894,10.877 39.137,11.196 36.771,11.069C36.117,8.879 36.302,6.162 29.404,4.352C32.493,2.625 32.291,2.648 35.518,1.554Z" style="fill:rgb(157,179,166);fill-opacity:0.98;"/>
            <path d="M301.488,48.456L301.1,49.5C300.463,51.211 300.349,51.014 299.741,52.631C299.489,53.061 298.06,55.5 296.499,57.949C294.751,56.68 294.964,56.407 293.5,56.331C299.123,52.019 291.781,50.745 291.473,50.524C289.737,49.281 292.023,49.255 301.488,48.456Z" style="fill:rgb(156,179,164);"/>
            <path d="M708.764,25.877L708.833,28.958C708.177,29.781 708.248,29.548 707.56,30.554C706.41,32.236 708.223,31.626 709.533,33.335C706.869,33.455 704.206,33.574 701.543,33.693C698.667,31.923 700.74,31.348 702.732,28.715C702.909,28.687 702.784,28.731 705.579,27.048C707.122,26.119 707.283,26.76 708.764,25.877Z" style="fill:rgb(153,186,198);"/>
            <path d="M220.505,23.513C228.101,23.535 227.57,26.341 235.336,26.092C232.906,32.282 227.976,29.28 220.505,23.513Z" style="fill:rgb(158,187,192);fill-opacity:0.97;"/>
            <path d="M154.33,40.753C156.966,42.705 156.74,42.613 159.553,44.429C161.75,45.533 167.064,47.969 165.303,49.116C164.65,49.541 164.624,49.206 156.544,45.412L153.601,43.352C153.44,43.209 148.634,38.918 154.33,40.753Z" style="fill:rgb(158,172,153);"/>
            <path d="M592.898,5.58L590.197,8.316L589.562,8.567C585.725,10.08 586.308,10.867 586.593,14.911L584.466,15.246C583.599,11.352 582.758,11.208 584.892,7.797C587.293,3.957 592.26,5.395 592.898,5.58Z" style="fill:rgb(155,179,169);"/>
            <path d="M84.832,28.658C83.222,30.856 83.314,30.826 80.695,31.942L79.5,31.488C81.469,23.567 79.196,23.275 79.729,22.832C83.513,19.687 81.78,24.488 84.832,28.658Z" style="fill:rgb(155,180,168);fill-opacity:1;"/>
            <path d="M441.541,42.532C442.196,42.564 442.851,42.596 443.506,42.628C443.094,43.93 443.104,43.783 443.202,45.177C442.851,45.569 442.501,45.962 442.15,46.354L440.567,47.935C439.053,48.715 439.276,48.742 438.926,50.493C429.607,54.22 440.683,43.759 441.541,42.532Z" style="fill:rgb(154,186,198);"/>
            <path d="M66.121,31.995C68.45,30.5 68.907,30.223 70.602,32.622C68.857,36.304 70.681,36.385 70.106,40.404C69.087,47.529 67.997,34.168 66.121,31.995Z" style="fill:rgb(143,176,196);"/>
            <path d="M221.643,47.952L222.628,47.949C223.297,47.929 223.967,47.909 224.637,47.889L226.546,47.249C234.46,49.782 224.349,54.318 221.833,50.108C221.463,49.489 222.014,48.572 221.643,47.952Z" style="fill:rgb(143,177,194);"/>
            <path d="M927.451,42.799C930.733,39.012 937.153,38.227 937.353,43.876C935.782,43.712 936.058,43.282 934.541,43.124C933.977,43.065 934.016,43.1 927.451,42.799Z" style="fill:rgb(172,198,201);fill-opacity:0.56;"/>
            <path d="M21.347,27.759L23.689,27.792L23.724,30.731C23.323,31.651 22.923,32.572 22.523,33.492C21.475,33.624 20.074,32.935 19.929,38.232L17.521,38.077C17.604,37.667 18.232,34.573 18.62,32.966C18.764,32.841 19.907,31.844 20.58,31.595C21.553,29.729 21.671,29.855 21.347,27.759Z" style="fill:rgb(143,176,195);"/>
            <path d="M437.931,41.714C437.832,41.88 434.577,43.75 433.906,48.493C433.495,51.396 433.999,51.258 433.889,51.469C433.629,51.97 430.371,52.436 432.549,44.54C434.052,42.847 433.841,42.922 435.307,41.319C437.192,39.259 437.661,41.594 437.931,41.714Z" style="fill:rgb(153,186,200);"/>
            <path d="M473.575,40.193C475.903,41.431 475.799,41.309 477.837,43.145C477.852,43.89 476.485,44.193 476.5,44.939C476.534,46.585 478.112,47.822 476.616,47.108C472.33,45.063 471.728,44.442 473.575,40.193Z" style="fill:rgb(153,186,198);"/>
            <path d="M5.32,31.695C8.767,30.583 8.803,30.286 9.032,30.498C9.67,31.088 8.173,31.049 8.706,31.542C8.981,31.996 9.256,32.45 9.531,32.903C9.637,38.685 7.819,41.888 7.255,38.634C6.632,35.031 6.335,35.334 5.32,31.695Z" style="fill:rgb(143,176,196);"/>
            <path d="M396.63,47.781C396.689,48.016 397.007,49.304 396.813,50.798C393.456,53.163 393.676,53.845 389.584,53.426C390.34,52.603 390.09,52.575 390.791,51.795C394.076,50.176 393.082,48.704 396.63,47.781Z" style="fill:rgb(150,188,197);"/>
            <path d="M602.587,34.279C603.335,34.862 604.083,35.445 604.83,36.028C604.403,36.95 603.976,37.872 603.548,38.794C602.248,39.399 600.948,40.003 599.649,40.608C597.034,35.502 600.681,36.212 602.587,34.279Z" style="fill:rgb(187,199,176);"/>
            <path d="M248.383,40.347C252.603,39.588 252.967,38.673 255.934,41.764C256.168,42.288 256.402,42.811 256.636,43.334C252.111,42.6 252.224,43 247.838,42.197C248.02,41.58 248.201,40.964 248.383,40.347Z" style="fill:rgb(143,176,194);"/>
            <path d="M230.683,47.946C234.426,48.081 236.506,42.589 235.815,46.413C235.335,49.069 235.95,54.002 231.644,50.366C231.485,50.232 230.847,49.694 230.683,47.946Z" style="fill:rgb(143,176,194);"/>
            <path d="M245.843,47.935L246.31,48.085C248.401,47.697 248.789,47.769 248.661,45.572C248.59,44.367 250.424,44.419 250.426,45.53C250.428,46.741 250.137,46.533 250.175,47.741C250.185,48.037 250.19,48.015 250.369,51.442C246.528,51.583 245.098,51.643 245.843,47.935Z" style="fill:rgb(143,177,194);"/>
            <path d="M708.833,28.958C709.388,28.914 709.944,28.87 710.499,28.826L712.413,28.239L713.873,28.338C714.375,28.681 714.877,29.025 715.379,29.369C714.873,29.564 714.91,29.602 709.533,33.335C708.223,31.626 706.41,32.236 707.56,30.554C708.248,29.548 708.177,29.781 708.833,28.958Z" style="fill:rgb(153,187,196);"/>
            <path d="M130.499,42.681C130.85,42.677 146.076,42.484 134.498,44.493C130.614,45.167 129.738,43.223 127.422,46.537C127.106,45.554 126.789,44.571 126.472,43.589C127.815,43.286 129.157,42.983 130.499,42.681Z" style="fill:rgb(155,173,164);"/>
            <path d="M14.337,31.686C16.596,30.788 16.899,27.984 17.731,30.337C17.731,30.337 18.549,32.756 18.62,32.966C18.232,34.573 17.604,37.667 17.521,38.077C15.216,35.232 16.722,34.476 14.337,31.686Z" style="fill:rgb(143,176,196);"/>
            <path d="M541.453,19.103C543.5,20.595 545.917,21.359 546.332,21.49L546.316,22.205L541.868,22.852C540.283,21.455 540.312,21.748 538.301,21.586C538.847,19.304 539.196,19.634 541.453,19.103Z" style="fill:rgb(179,190,174);fill-opacity:0.38;"/>
            <path d="M530.633,35.516C529.825,30.234 530.951,30.391 531.494,30.489C534.312,30.994 533.845,43.446 530.633,35.516Z" style="fill:rgb(155,179,169);"/>
            <path d="M214.595,47.913C215.583,47.862 216.571,47.81 217.559,47.758L218.472,47.644C220.234,51.94 219.482,52.16 219.119,52.138C215.219,51.9 214.09,51.841 214.595,47.913Z" style="fill:rgb(143,177,194);"/>
            <path d="M199.625,47.898C201.279,48.12 202.377,47.872 202.61,47.819C203.098,47.839 203.585,47.859 204.073,47.878C204.141,48.225 205.345,54.327 200.508,50.492C200.336,50.355 200.508,50.492 199.625,47.898Z" style="fill:rgb(143,177,194);"/>
            <path d="M839.493,37.494L840.07,37.201C841.156,38.264 840.914,38.527 842.576,38.548C842.534,40.208 842.343,39.978 841.384,41.164C839.658,41.616 839.807,41.474 838.374,42.384C837.728,40.268 837.796,40.417 838.3,38.342L839.493,37.494Z" style="fill:rgb(151,187,196);fill-opacity:0.76;"/>
            <path d="M195.584,47.783C200.397,50.138 195.047,53.022 192.76,50.25C191.803,49.09 192.199,48.964 193.421,48.298C194.142,48.127 194.863,47.955 195.584,47.783Z" style="fill:rgb(143,177,194);"/>
            <path d="M30.278,20.602C30.315,22.557 32.296,24.365 28.561,24.319L27.73,23.254C25.779,21.553 25.092,21.705 25.799,20.718C25.91,20.563 25.877,20.627 30.278,20.602Z" style="fill:rgb(143,177,194);"/>
            <path d="M891.877,23.193C893.202,33.167 887.136,25.293 887.269,24.335C887.5,22.669 888.077,23.9 889.482,24.672C889.68,24.781 889.482,24.672 891.877,23.193Z" style="fill:rgb(172,197,205);"/>
            <path d="M712.966,24.495L712.413,28.239L710.499,28.826C710.169,27.721 709.839,26.617 709.509,25.513C709.87,24.505 709.882,24.661 710.23,23.5C710.787,21.637 711.139,23.831 712.966,24.495Z" style="fill:rgb(154,186,198);"/>
            <path d="M408.663,45.273C411.265,48.693 406.582,52.561 406.364,49.533C406.269,48.223 404.27,45.372 408.663,45.273Z" style="fill:rgb(153,186,198);"/>
            <path d="M480.355,59.243C480.554,59.405 483.221,61.578 481.521,62.234C477.744,63.693 476.542,61.691 476.325,61.329C476.393,61.277 477.003,60.017 480.355,59.243Z" style="fill:rgb(159,179,181);"/>
            <path d="M839.493,37.494L838.3,38.342C837.796,40.417 837.728,40.268 838.374,42.384C837.801,42.641 837.228,42.899 836.655,43.156C834.243,38.774 834.733,36.285 839.493,37.494Z" style="fill:rgb(153,186,197);fill-opacity:0.73;"/>
            <path d="M40.118,25.453C41.279,26.265 41.219,25.968 42.622,25.332L43.576,25.53C43.248,26.721 43.505,33.274 39.835,28.141C39.769,28.048 39.835,28.141 38.523,27.582L40.118,25.453Z" style="fill:rgb(143,176,196);"/>
            <path d="M450.565,39.567C452.111,37.323 453.159,36.797 454.206,39.353C453.767,40.119 453.327,40.886 452.888,41.652C450.442,46.613 450.561,39.817 450.565,39.567Z" style="fill:rgb(152,186,200);"/>
            <path d="M625.593,23.306C626.87,23.955 626.661,24.03 627.458,25.352C625.796,26.372 624.134,27.392 622.472,28.412L621.378,29.004C619.5,25.389 623.658,26.951 625.593,23.306Z" style="fill:rgb(181,203,190);"/>
            <path d="M999.426,45.908C1003.199,44.467 1003.203,45.326 1006.501,47.687C1003.793,47.62 1003.425,49.146 999.426,45.908Z" style="fill:rgb(171,191,194);fill-opacity:0.46;"/>
            <path d="M593.965,38.209L595.718,40.317C593.155,41.392 593.387,41.561 590.483,41.501C591.121,38.902 591.595,39.34 593.965,38.209Z" style="fill:rgb(176,193,179);"/>
            <path d="M241.528,47.61C243.534,48.869 242.389,49.329 242.478,50.492C241.807,50.846 241.137,51.2 240.466,51.555C237.463,48.823 237.865,48.388 238.158,48.254C238.808,47.956 239.65,48.451 240.301,48.154L241.528,47.61Z" style="fill:rgb(143,177,193);"/>
            <path d="M20.65,20.772C24.767,19.963 25.42,23.776 21.487,24.72C20.982,24.206 20.477,23.691 19.971,23.177L19.302,22.639C19.752,22.017 20.201,21.394 20.65,20.772Z" style="fill:rgb(143,177,193);"/>
            <path d="M207.592,47.874C210.3,48.456 213.926,47.724 210.796,50.994C210.125,51.695 205.781,51.406 207.592,47.874Z" style="fill:rgb(143,177,193);"/>
            <path d="M629.092,44.015C629.25,43.939 637.129,41.729 630.635,45.567C629.22,46.404 629.118,46.25 628.081,45.143C628.418,44.767 628.755,44.391 629.092,44.015Z" style="fill:rgb(187,199,176);"/>
            <path d="M642.868,26.903C643.4,26.788 643.932,26.673 644.464,26.558C645.214,26.78 645.964,27.003 646.715,27.225C645.747,28.106 644.78,28.987 643.812,29.868C641.31,29.519 640.713,28.405 642.868,26.903Z" style="fill:rgb(193,215,183);"/>
            <path d="M389.978,50.456L390.791,51.795C390.09,52.575 390.34,52.603 389.584,53.426C387.268,50.719 386.153,50.8 387.487,47.499C388.561,44.839 388.188,48.331 389.978,50.456Z" style="fill:rgb(152,187,199);"/>
            <path d="M329.488,48.626C322.929,51.235 324.582,46.343 325.5,45.988C326.952,45.425 326.793,46.175 329.488,48.626Z" style="fill:rgb(153,187,197);"/>
            <path d="M253.596,47.935C254.906,47.726 256.216,47.517 257.527,47.308C256.571,49.882 256.869,50.281 254.132,50.772C252.858,49.395 252.188,49.203 253.596,47.935Z" style="fill:rgb(143,177,193);"/>
            <path d="M498.493,54.429L499.869,54.553C499.585,56.94 499.317,59.245 495.669,56.538C496.611,55.835 497.552,55.132 498.493,54.429Z" style="fill:rgb(155,181,182);"/>
            <path d="M22.523,33.492C22.502,33.735 22.312,42.125 19.929,38.232C20.074,32.935 21.475,33.624 22.523,33.492Z" style="fill:rgb(143,176,196);"/>
            <path d="M969.275,35.42C966.706,36.818 965.713,38.18 964.836,35.366C962.624,28.264 969.033,35.16 969.275,35.42Z" style="fill:rgb(172,197,206);"/>
            <path d="M603.548,38.794C604.49,40.681 604.188,40.721 602.51,42.183C602.149,42.269 601.787,42.355 601.426,42.441C600.833,41.83 600.241,41.219 599.649,40.608C600.948,40.003 602.248,39.399 603.548,38.794Z" style="fill:rgb(190,198,177);"/>
            <path d="M200.469,37.49C200.366,37.978 200.751,37.843 200.618,38.469C200.565,38.718 200.555,38.696 199.763,41.539C198.675,40.917 197.588,40.295 196.501,39.673C198.174,37.853 197.998,37.501 200.469,37.49Z" style="fill:rgb(143,176,195);"/>
            <path d="M659.179,29.424C663.192,24.441 662.396,29.983 662.679,30.67L661.557,30.738C660.517,30.977 659.478,31.216 658.438,31.455C659.199,30.292 659.155,30.394 659.199,30.292C659.374,29.875 658.949,29.972 659.179,29.424Z" style="fill:rgb(189,197,178);"/>
            <path d="M957.475,30.133L958.403,30.034C958.023,34.962 957.838,35.21 957.571,35.57C957.312,35.919 953.826,35.813 957.475,30.133Z" style="fill:rgb(173,198,206);"/>
            <path d="M378.602,48.709C376.876,49.018 376.772,49.858 375.516,48.491C373.016,45.769 380.907,45.987 378.602,48.709Z" style="fill:rgb(151,188,197);"/>
            <path d="M603.453,26.3L605.44,26.014C605.51,26.264 608.479,39.275 603.362,28.5C603.286,28.341 603.362,28.5 603.453,26.3Z" style="fill:rgb(193,214,185);"/>
            <path d="M154.493,32.483L155.449,32.25C155.508,33.347 155.567,34.444 155.626,35.541C153.473,36.05 153.407,35.861 152.144,34.22L152.562,33.579C153.205,33.214 153.849,32.848 154.493,32.483Z" style="fill:rgb(141,177,195);"/>
            <path d="M622.472,28.412C623.914,28.906 623.92,28.656 625.082,29.836C624.798,30.582 624.515,31.328 624.231,32.074C623.897,32.097 622.202,32.213 621.378,29.004L622.472,28.412Z" style="fill:rgb(196,213,184);"/>
            <path d="M810.433,34.69C812.667,35.507 813.136,35.536 812.527,37.933C810.606,38.312 810.576,38.728 809.04,37.557L809.463,36.487C810.355,35.731 810.215,35.82 810.433,34.69Z" style="fill:rgb(152,176,182);fill-opacity:0.44;"/>
            <path d="M649.425,32.094C653.589,35.652 650.558,36.448 648.807,36.495C649.013,35.028 649.219,33.561 649.425,32.094Z" style="fill:rgb(189,199,176);"/>
            <path d="M564.396,24.041L565.89,25.561C564.405,27.021 564.471,26.865 562.504,27.239L561.305,27.431C561.433,26.844 561.561,26.256 561.689,25.668C562.591,25.125 563.494,24.583 564.396,24.041Z" style="fill:rgb(154,180,164);"/>
            <path d="M244.662,39.719C246.769,39.587 246.511,39.832 248.383,40.347C248.201,40.964 248.02,41.58 247.838,42.197C246.554,42.287 246.869,41.513 245.577,41.604C245.409,41.616 245.577,41.604 243.592,42.294C243.949,41.435 244.306,40.577 244.662,39.719Z" style="fill:rgb(143,176,195);"/>
            <path d="M35.575,20.683C38.597,20.755 38.176,22.153 36.505,24.632C35.947,24.15 35.389,23.669 34.831,23.188L34.089,22.844L35.575,20.683Z" style="fill:rgb(143,177,193);"/>
            <path d="M199.107,45.659C204.435,44.522 202.559,47.373 202.61,47.819C202.377,47.872 201.279,48.12 199.625,47.898L198.671,46.539L199.107,45.659Z" style="fill:rgb(143,176,196);"/>
            <path d="M145.497,41.486L146.795,41.37C146.363,42.404 145.93,43.437 145.498,44.47C144.187,43.948 144.231,44.149 143.599,43.476C143.881,41.608 142.086,40.523 144.048,40.5C144.633,40.493 144.913,41.492 145.497,41.486Z" style="fill:rgb(142,177,193);"/>
            <path d="M299.741,52.631C300.349,51.014 300.463,51.211 301.1,49.5C301.295,49.691 308.848,58.756 299.741,52.631Z" style="fill:rgb(155,179,168);"/>
            <path d="M932.52,20.506C930.248,25.426 929.763,18.939 931.235,18.5C932.819,18.028 932.498,18.781 932.52,20.506Z" style="fill:rgb(172,197,207);"/>
            <path d="M879.588,26.509C879.497,26.822 878.457,30.417 878.457,30.417C877.978,30.724 873.1,26.326 879.588,26.509Z" style="fill:rgb(171,198,207);"/>
            <path d="M382.969,47.481L383.823,48.41C383.291,49.296 382.759,50.181 382.228,51.066C381.696,50.879 381.164,50.692 380.633,50.505L380.18,49.203C380.421,48.393 380.604,48.6 382.969,47.481Z" style="fill:rgb(153,186,197);"/>
            <path d="M34.831,23.188C35.389,23.669 35.947,24.15 36.505,24.632C34.84,25.516 34.776,25.768 35.521,27.389L34.596,27.692C31.904,25.621 33.065,25.01 34.831,23.188Z" style="fill:rgb(143,176,195);"/>
            <path d="M1016.769,32.505C1013.135,37.039 1013.512,30.017 1014.5,29.808C1016.015,29.486 1015.564,30.261 1016.769,32.505Z" style="fill:rgb(172,198,206);"/>
            <path d="M710.158,36.021C711.306,37.62 710.744,37.803 711.913,39.5C711.498,40.052 712.352,41.02 711.937,41.572C708.871,45.649 710.096,36.483 710.158,36.021Z" style="fill:rgb(156,181,181);fill-opacity:0.99;"/>
            <path d="M576.919,11.319C577.884,13.351 576.466,12.796 574.568,13.803C572.85,11.857 574.196,11.481 576.919,11.319Z" style="fill:rgb(156,179,169);"/>
            <path d="M154.493,32.483C153.849,32.848 153.205,33.214 152.562,33.579C149.715,33.048 147.856,33.401 147.454,33.477C150.983,31.666 151.157,30.372 154.493,32.483Z" style="fill:rgb(144,175,195);"/>
            <path d="M216.687,34.435C219.483,34.508 219.432,34.575 219.67,34.56C218.552,42.604 216.708,34.673 216.687,34.435Z" style="fill:rgb(143,177,194);"/>
            <path d="M549.462,26.477C547.334,31.751 546.873,24.419 548.136,24.5C548.326,24.512 548.136,24.5 549.462,26.477Z" style="fill:rgb(155,180,168);"/>
            <path d="M567.65,45.543C571.215,39.324 570.604,46.353 570.478,46.477C569.193,47.749 569.168,46.633 567.65,45.543Z" style="fill:rgb(158,180,179);"/>
            <path d="M23.724,30.731L25.613,30.322L26.45,30.622L26.728,31.216C24.726,32.665 24.988,32.898 22.523,33.492C22.923,32.572 23.323,31.651 23.724,30.731Z" style="fill:rgb(143,177,193);"/>
            <path d="M547.551,47.881C548.986,50.293 549.336,51.921 546.59,51.209C546.352,51.147 546.59,51.209 546.384,48.138L547.551,47.881Z" style="fill:rgb(159,181,182);"/>
            <path d="M244.662,39.719C244.306,40.577 243.949,41.435 243.592,42.294C242.858,42.321 242.124,42.348 241.39,42.375C241.345,41.804 241.301,41.232 241.256,40.661C242.694,39.096 242.756,38.549 244.662,39.719Z" style="fill:rgb(143,176,196);"/>
            <path d="M841.384,41.164L840.96,42.708C838.857,44.262 839.026,44.185 838.172,44.706L836.655,43.156C837.228,42.899 837.801,42.641 838.374,42.384C839.807,41.474 839.658,41.616 841.384,41.164Z" style="fill:rgb(153,187,198);fill-opacity:0.97;"/>
            <path d="M204.724,42.216C204.751,39.543 206.232,39.495 206.492,39.487C206.752,39.479 210.312,41.757 204.724,42.216Z" style="fill:rgb(143,176,194);"/>
            <path d="M492.264,56.282C493.981,55.681 493.956,55.654 495.669,56.538C495.025,57.082 495.445,57.596 494.511,57.516C493.025,57.39 492.725,57.739 492.264,56.282Z" style="fill:rgb(158,179,183);"/>
            <path d="M117.657,32.712C119.148,32.398 119.62,32.069 119.581,33.529L118.455,35.43C116.963,34.537 116.851,34.313 117.657,32.712Z" style="fill:rgb(143,177,194);"/>
            <path d="M9.531,20.225C9.618,21.929 9.663,21.8 9.287,23.4C7.726,23.059 7.793,23.215 6.43,22.437C7.875,20.989 7.671,20.961 9.531,20.225Z" style="fill:rgb(142,177,193);"/>
            <path d="M718.226,39.62C718.624,40.927 719.023,42.235 719.421,43.542C718.832,43.564 718.243,43.586 717.655,43.608C717.18,42.177 715.023,41.515 718.226,39.62Z" style="fill:rgb(154,181,184);fill-opacity:0.89;"/>
            <path d="M625.082,29.836C632.158,32.072 624.421,32.102 624.231,32.074C624.515,31.328 624.798,30.582 625.082,29.836Z" style="fill:rgb(195,214,183);"/>
            <path d="M704.447,38.456C706.495,37.453 706.349,37.343 706.495,37.453C711.06,40.907 703.977,39.603 703.702,39.552L704.447,38.456Z" style="fill:rgb(154,181,182);"/>
            <path d="M396.63,47.781L397.393,47.318L399.07,47.88C398.88,48.753 398.69,49.627 398.5,50.5L396.813,50.798C397.007,49.304 396.689,48.016 396.63,47.781Z" style="fill:rgb(152,188,195);"/>
            <path d="M142.815,44.587C141.425,46.566 141.426,46.372 141.425,46.566C141.415,47.556 142.566,46.78 142.557,47.779C141.56,47.797 140.564,47.815 139.567,47.833C140.502,45.383 140.161,44.789 142.815,44.587Z" style="fill:rgb(143,176,195);"/>
            <path d="M851.774,33.69C852.291,33.67 852.808,33.65 853.325,33.63C853.353,36.027 853.034,35.766 851.493,37.499L851.348,36.539L850.561,35.733C850.966,35.052 851.37,34.371 851.774,33.69Z" style="fill:rgb(170,198,203);fill-opacity:0.8;"/>
            <path d="M855.33,39.302C857.012,40.481 856.495,40.744 855.43,42.28C853.49,41.264 853.959,40.776 855.33,39.302Z" style="fill:rgb(173,197,204);"/>
            <path d="M53.075,19.396C52.58,21.116 52.609,20.902 51.379,22.222C50.699,22.595 50.019,22.968 49.338,23.341L49.95,21.59C50.291,21.361 49.774,20.757 53.075,19.396Z" style="fill:rgb(142,177,193);"/>
            <path d="M119.486,27.403L119.55,29.921L117.534,30.476C117.568,29.013 115.761,27.001 119.486,27.403Z" style="fill:rgb(144,176,194);"/>
            <path d="M454.206,39.353C458.243,41.698 453.1,41.654 452.888,41.652C453.327,40.886 453.767,40.119 454.206,39.353Z" style="fill:rgb(153,187,196);"/>
            <path d="M222.628,47.949C222.657,47.679 223.75,37.507 225.178,45.71C225.209,45.887 225.178,45.71 224.637,47.889C223.967,47.909 223.297,47.929 222.628,47.949Z" style="fill:rgb(143,176,195);"/>
            <path d="M275.428,55.352C276.179,55.286 276.93,55.22 277.681,55.154C275.945,59.391 274.761,57.734 274.581,57.481C274.474,57.332 274.13,56.851 275.428,55.352Z" style="fill:rgb(143,177,193);"/>
            <path d="M238.119,36.389C240.258,33.999 241.112,37.168 239.608,37.828C238.222,38.436 238.569,37.694 238.119,36.389Z" style="fill:rgb(145,175,196);"/>
            <path d="M126.648,37.375L127.5,37.405L129.494,37.456C128.192,39.131 128.289,39.032 126.53,39.899C126.57,39.058 126.609,38.217 126.648,37.375Z" style="fill:rgb(143,176,196);"/>
            <path d="M440.567,47.935C441.352,50.223 441.186,51.434 438.926,50.493C439.276,48.742 439.053,48.715 440.567,47.935Z" style="fill:rgb(151,187,198);"/>
            <path d="M147.454,33.477C147.856,33.401 149.715,33.048 152.562,33.579L152.144,34.22C149.448,34.153 148.966,35.795 147.454,33.477Z" style="fill:rgb(144,176,195);"/>
            <path d="M443.561,44.544C445.619,45.987 444.042,48.112 442.15,46.354C442.501,45.962 442.851,45.569 443.202,45.177L443.561,44.544Z" style="fill:rgb(151,188,198);"/>
            <path d="M526.547,33.516C528.417,31.541 528.612,33.162 529.674,35.622C527.441,36.409 527.532,35.624 526.547,33.516Z" style="fill:rgb(156,179,166);"/>
            <path d="M742.501,31.497C743.129,31.431 743.757,31.366 744.385,31.3C744.479,31.526 746.198,35.651 743.599,34.252C743.39,34.14 743.599,34.252 742.501,31.497Z" style="fill:rgb(155,187,198);"/>
            <path d="M121.396,34.517C122.561,32.829 122.412,32.898 122.561,32.829C124.389,31.98 123.371,36.724 121.396,34.517Z" style="fill:rgb(143,177,194);"/>
            <path d="M576.97,24.366C576.952,18.512 579.64,22.263 579.757,22.504C580.873,24.8 577.237,24.396 576.97,24.366Z" style="fill:rgb(156,179,169);"/>
            <path d="M840.96,42.708C843.006,42.605 841.993,45.881 838.172,44.706C839.026,44.185 838.857,44.262 840.96,42.708Z" style="fill:rgb(154,184,197);fill-opacity:0.7;"/>
            <path d="M18.077,18.699L16.139,20.582C15.592,20.185 15.044,19.788 14.497,19.39C14.748,19.225 16.824,15.204 18.077,18.699Z" style="fill:rgb(143,176,195);"/>
            <path d="M331.648,50.69L332.533,50.711C334.315,54.501 331.706,53.397 331.5,53.31C329.77,52.578 330.62,52.124 331.648,50.69Z" style="fill:rgb(151,187,198);"/>
            <path d="M241.256,40.661C241.301,41.232 241.345,41.804 241.39,42.375C239.332,42.694 238.439,43.546 238.571,41.51C238.689,39.689 239.376,40.395 241.256,40.661Z" style="fill:rgb(143,177,193);"/>
            <path d="M51.379,22.222C51.102,25.614 49.985,25.211 48.403,24.462L49.338,23.341C50.019,22.968 50.699,22.595 51.379,22.222Z" style="fill:rgb(143,177,193);"/>
            <path d="M19.971,23.177C20.477,23.691 20.982,24.206 21.487,24.72L20.489,25.472C17.265,26.991 19.862,23.331 19.971,23.177Z" style="fill:rgb(143,176,195);"/>
            <path d="M901.415,20.514C902.086,20.379 902.758,20.243 903.429,20.107C903.486,22.345 903.841,22.463 903.121,23.044C901.38,24.448 902.186,22.525 901.415,20.514Z" style="fill:rgb(171,198,205);"/>
            <path d="M34.596,27.692L35.521,27.389L36.408,27.621C35.014,31.897 33.784,29.671 33.657,29.44C33.58,29.301 33.657,29.44 34.596,27.692Z" style="fill:rgb(143,176,193);"/>
            <path d="M560.93,27.626L561.305,27.431L562.504,27.239C562.577,27.413 563.417,29.419 563.417,29.419C562.026,30.827 561.542,30.222 561.057,28.377L560.93,27.626Z" style="fill:rgb(153,181,167);"/>
            <path d="M35.664,33.697C34.87,34.56 35.019,34.56 33.753,34.857C33.677,34.68 32.803,32.643 32.803,32.643C33.845,30.801 34.114,32.287 35.664,33.697Z" style="fill:rgb(143,176,195);"/>
            <path d="M417.411,45.531C418.378,44.059 418.463,43.006 419.526,44.394C420.19,45.262 419.647,48.729 417.411,45.531Z" style="fill:rgb(152,187,198);"/>
            <path d="M27.73,23.254L28.561,24.319C28.398,24.483 21.086,31.839 25.7,24.751C25.811,24.582 25.7,24.751 27.73,23.254Z" style="fill:rgb(143,176,195);"/>
            <path d="M758.954,32.956C759.149,32.833 763.54,30.048 761.747,33.659C760.817,35.531 760.449,34.33 758.954,32.956Z" style="fill:rgb(161,164,144);fill-opacity:0.35;"/>
            <path d="M742.501,31.497C740.904,29.922 744.374,29.037 744.385,31.3C743.757,31.366 743.129,31.431 742.501,31.497Z" style="fill:rgb(125,135,113);"/>
            <path d="M23.689,27.792C25.663,27.92 25.501,28.258 25.613,30.322L23.724,30.731L23.689,27.792Z" style="fill:rgb(143,176,194);"/>
            <path d="M217.256,33.116C217.414,33.067 217.393,32.766 217.551,32.717C220.331,31.856 219.647,34.54 219.67,34.56C219.432,34.575 219.483,34.508 216.687,34.435C216.877,33.995 217.066,33.555 217.256,33.116Z" style="fill:rgb(142,176,193);"/>
            <path d="M710.158,36.021C712.156,36.442 712.149,36.581 712.486,38.499L711.913,39.5C710.744,37.803 711.306,37.62 710.158,36.021Z" style="fill:rgb(156,180,180);fill-opacity:1;"/>
            <path d="M242.478,50.492C246.189,56.51 240.588,51.691 240.466,51.555C241.137,51.2 241.807,50.846 242.478,50.492Z" style="fill:rgb(143,176,195);"/>
            <path d="M626.474,42.457C627.975,43.195 628.033,42.862 629.092,44.015C628.755,44.391 628.418,44.767 628.081,45.143L626.751,44.39L626.282,43.349L626.474,42.457Z" style="fill:rgb(190,197,179);"/>
            <path d="M173.647,47.74C171.646,45.553 170.607,45.411 171.882,44.769C172.157,44.631 172.065,44.971 174.469,47.618L173.647,47.74Z" style="fill:rgb(143,176,194);"/>
            <path d="M883.695,25.813C884.73,27.587 885.553,28.55 883.48,28.606C882.296,28.638 882.807,28.199 882.568,26.583L883.695,25.813Z" style="fill:rgb(170,199,203);"/>
            <path d="M244.897,45.698C245.031,45.521 247.683,43.838 246.31,48.085L245.843,47.935L244.897,45.698Z" style="fill:rgb(143,176,195);"/>
            <path d="M581.489,10.426C579.798,9.232 580.808,9.026 581.5,7.916C582.42,9.238 582.838,9.465 581.489,10.426Z" style="fill:rgb(156,179,166);"/>
            <path d="M6.43,22.437C7.793,23.215 7.726,23.059 9.287,23.4C6.731,27.212 6.445,22.678 6.43,22.437Z" style="fill:rgb(141,177,194);"/>
            <path d="M840.07,37.201C841.933,36.804 842.32,36.659 842.576,38.548C840.914,38.527 841.156,38.264 840.07,37.201Z" style="fill:rgb(153,183,192);fill-opacity:0.25;"/>
            <path d="M459.765,38.805C461.061,39.633 461.482,39.267 461.55,40.501C461.56,40.695 460.181,43.368 459.395,39.385L459.765,38.805Z" style="fill:rgb(153,187,196);"/>
            <path d="M943.375,22.504C943.138,22.495 932.593,22.095 941.192,20.5C941.425,20.457 941.192,20.5 943.375,22.504Z" style="fill:rgb(170,199,205);"/>
            <path d="M35.575,20.683L34.089,22.844C33.911,22.733 31.135,20.835 35.575,20.683Z" style="fill:rgb(143,177,194);"/>
            <path d="M128.507,36.499L127.5,37.405L126.648,37.375C125.953,33.723 128.007,35.518 128.145,35.639C128.379,35.844 128.273,36.294 128.507,36.499Z" style="fill:rgb(143,177,194);"/>
            <path d="M659.179,29.424C658.949,29.972 659.374,29.875 659.199,30.292C659.155,30.394 659.199,30.292 658.438,31.455L657.865,31.703C657.746,30.989 656.366,30.97 656.247,30.256C656.228,30.144 657.806,29.276 658.45,29.26C658.699,29.254 658.93,29.43 659.179,29.424Z" style="fill:rgb(186,199,178);"/>
            <path d="M21.347,27.759C21.671,29.855 21.553,29.729 20.58,31.595C20.526,31.346 20.187,29.769 19.742,28.522C20.277,28.268 20.812,28.013 21.347,27.759Z" style="fill:rgb(143,176,194);"/>
            <path d="M40.045,17.824C39.274,19.219 39.166,19.364 37.635,18.593C38.382,17.149 38.617,17.336 40.045,17.824Z" style="fill:rgb(143,176,194);"/>
            <path d="M346.607,47.533C345.678,48.901 345.458,49.957 344.478,48.512C343.427,46.96 344.793,47.39 346.607,47.533Z" style="fill:rgb(151,187,197);"/>
            <path d="M386.996,47.568C384.204,49.641 384.339,47.668 384.396,47.468C384.453,47.268 384.396,47.468 386.996,47.568Z" style="fill:rgb(152,187,196);"/>
            <path d="M712.966,24.495C715.515,24.434 713.616,25.815 713.873,28.338L712.413,28.239L712.966,24.495Z" style="fill:rgb(153,187,197);"/>
            <path d="M370.365,48.384C372.283,45.2 371.94,48.693 372.12,49.592C372,49.47 372.177,49.649 370.365,48.384Z" style="fill:rgb(152,187,197);"/>
            <path d="M20.65,20.772C20.201,21.394 19.752,22.017 19.302,22.639C17.962,21.176 18.657,20.498 20.65,20.772Z" style="fill:rgb(143,176,194);"/>
            <path d="M850.561,35.733L851.348,36.539C850.729,37.193 850.109,37.848 849.49,38.502C849.847,37.579 850.204,36.656 850.561,35.733Z" style="fill:rgb(162,190,198);fill-opacity:0.41;"/>
            <path d="M708.764,25.877L709.509,25.513C709.839,26.617 710.169,27.721 710.499,28.826C709.944,28.87 709.388,28.914 708.833,28.958L708.764,25.877Z" style="fill:rgb(153,187,197);"/>
            <path d="M809.149,29.083C810.302,30.298 811.119,30.358 810.102,31.091C809.958,31.195 807.858,32.26 809.149,29.083Z" style="fill:rgb(167,187,183);fill-opacity:0.3;"/>
            <path d="M717.655,43.608C718.243,43.586 718.832,43.564 719.421,43.542C719.323,43.711 718.197,45.654 718.197,45.654C718.028,45.654 718.197,45.654 717.655,43.608Z" style="fill:rgb(156,180,182);fill-opacity:0.55;"/>
            <path d="M900.746,20.633C900.493,22.415 900.252,22.468 898.431,22.433C899.203,21.833 899.974,21.233 900.746,20.633Z" style="fill:rgb(170,197,206);"/>
            <path d="M138.853,41.406C139.539,40.429 139.483,39.971 140.347,40.633C140.454,40.715 141.583,43.208 138.853,41.406Z" style="fill:rgb(143,177,193);"/>
            <path d="M10.437,17.644C12.973,15.702 12.917,15.451 13.176,15.547C15.71,16.486 12.903,16.595 10.437,17.644Z" style="fill:rgb(143,176,195);"/>
            <path d="M119.486,27.403C120.188,28.815 120.83,28.619 120.434,30.1L119.55,29.921L119.486,27.403Z" style="fill:rgb(142,177,194);"/>
            <path d="M128.507,36.499C129.399,36.912 130.29,37.325 131.182,37.739C130.619,37.644 130.057,37.55 129.494,37.456L127.5,37.405L128.507,36.499Z" style="fill:rgb(142,176,196);"/>
            <path d="M589.562,8.567L590.197,8.316C590.637,8.896 591.077,9.475 591.517,10.054C590.004,10.493 589.908,10.164 589.562,8.567Z" style="fill:rgb(155,180,165);"/>
            <path d="M239.363,46.515C237.807,46.34 237.905,46.417 237.807,46.34C237.458,46.066 238.972,43.389 239.363,46.515Z" style="fill:rgb(143,176,193);"/>
            <path d="M175.798,44.773C177.05,45.409 177.887,45.161 177.081,46.221C176.987,46.344 175.761,47.66 175.798,44.773Z" style="fill:rgb(143,176,194);"/>
            <path d="M40.118,25.453C41.342,24.807 41.199,24.895 42.622,25.332C41.219,25.968 41.279,26.265 40.118,25.453Z" style="fill:rgb(143,176,194);"/>
            <path d="M601.426,42.441C601.787,42.355 602.149,42.269 602.51,42.183C602.541,42.267 602.907,45 601.426,42.441Z" style="fill:rgb(187,199,177);"/>
            <path d="M205.584,46.622C204.92,45.131 204.554,44.012 206.188,44.745C207.42,45.297 206.459,45.431 205.584,46.622Z" style="fill:rgb(143,176,193);"/>
            <path d="M183.582,46.619C182.979,45.075 182.556,43.921 184.149,44.697C184.149,44.697 184.089,46.147 184.084,46.273L183.582,46.619Z" style="fill:rgb(143,176,193);"/>
            <path d="M194.217,46.631C194.145,46.491 193.357,44.955 193.851,44.688C195.381,43.861 194.977,45.08 194.217,46.631Z" style="fill:rgb(143,176,194);"/>
            <path d="M164.651,32.542C166.025,32.502 166.837,31.982 166.404,33.312C166.111,34.213 166.068,34.119 165.381,33.723C164.714,33.34 165.068,33.218 164.651,32.542Z" style="fill:rgb(144,176,195);"/>
            <path d="M679.703,40.639C678.639,41.503 678.704,42.398 677.64,41.343C676.452,40.165 678.133,41.175 679.703,40.639Z" style="fill:rgb(158,180,180);"/>
            <path d="M369.995,48.938L370.365,48.384C372.177,49.649 372,49.47 372.12,49.592C371.803,51.225 371.334,49.787 369.995,48.938Z" style="fill:rgb(151,187,198);"/>
            <path d="M252.531,46.492C252.764,44.965 252.795,44.244 253.912,45.194C254.952,46.079 253.832,45.787 252.531,46.492Z" style="fill:rgb(143,176,194);"/>
            <path d="M443.506,42.628C443.524,43.266 443.542,43.905 443.561,44.544L443.202,45.177C443.104,43.783 443.094,43.93 443.506,42.628Z" style="fill:rgb(153,186,198);"/>
            <path d="M216.072,46.62C215.411,45.089 215.455,44.215 217.077,44.872C218.401,45.408 216.783,45.383 216.072,46.62Z" style="fill:rgb(143,176,194);"/>
            <path d="M106.312,22.524C106.591,23.885 106.87,25.245 107.149,26.606L106.83,27.344C106.656,24.869 106.472,25.124 106.312,22.524Z" style="fill:rgb(107,121,131);fill-opacity:0.18;"/>
            <path d="M258.397,41.047C260.527,41.494 260.429,41.35 260.527,41.494C261.675,43.188 259.971,42.138 258.397,41.047Z" style="fill:rgb(143,177,193);"/>
            <path d="M702.622,38.344C703.462,37.575 703.471,37.983 704.447,38.456L703.702,39.552L702.622,38.344Z" style="fill:rgb(157,180,181);"/>
            <path d="M107.149,26.606C107.905,28.592 108.063,28.362 108.075,30.378C107.287,27.599 107.372,27.813 107.287,27.599C107.148,27.251 106.942,27.626 106.83,27.344L107.149,26.606Z" style="fill:rgb(95,115,126);fill-opacity:0.16;"/>
            <path d="M5.6,19.638C6.362,18.217 6.396,17.354 7.5,18.545C7.62,18.674 8.319,19.428 5.6,19.638Z" style="fill:rgb(143,176,196);"/>
            <path d="M179.845,51.317C180.296,52.582 179.855,52.541 178.5,52.676L179.845,51.317Z" style="fill:rgb(143,176,196);"/>
            <path d="M718.524,23.572C718.592,23.404 719.381,21.469 719.381,21.469C720.649,21.537 719.354,22.072 719.297,23.335L718.524,23.572Z" style="fill:rgb(154,186,196);"/>
            <path d="M642.868,26.903C643.02,25.645 643.523,25.757 644.464,26.558C643.932,26.673 643.4,26.788 642.868,26.903Z" style="fill:rgb(195,213,183);"/>
            <path d="M397.393,47.318C397.546,47.26 399.311,46.592 399.311,46.592C399.637,46.883 398.744,47.589 399.07,47.88L397.393,47.318Z" style="fill:rgb(152,187,197);"/>
            <path d="M199.107,45.659L198.671,46.539C198.633,46.47 197.02,43.509 199.107,45.659Z" style="fill:rgb(143,176,195);"/>
            <path d="M851.774,33.69C850.49,30.277 852.835,33.338 853.325,33.63C852.808,33.65 852.291,33.67 851.774,33.69Z" style="fill:rgb(169,198,207);fill-opacity:0.97;"/>
            <path d="M114.398,34.505L114.977,36.21C114.784,35.641 114.591,35.073 114.398,34.505Z" style="fill:rgb(141,175,195);"/>
            <path d="M179.489,46.503C179.506,46.37 179.7,44.844 179.7,44.844C181.123,44.139 180.153,45.221 179.489,46.503Z" style="fill:rgb(143,176,194);"/>
            <path d="M458.447,68.738C459.432,69.088 460.418,69.438 461.403,69.788C459.677,69.419 459.775,69.683 458.447,68.738Z" style="fill:rgb(112,128,133);fill-opacity:0.16;"/>
            <path d="M108.203,35.441C108.372,36.436 108.542,37.431 108.711,38.426C107.868,37.012 107.796,37.087 108.203,35.441Z" style="fill:rgb(134,153,162);fill-opacity:0.3;"/>
            <path d="M588.511,31.48L589.381,31.737C589.168,32.823 589.292,32.726 588.516,33.507C588.514,32.831 588.512,32.155 588.511,31.48Z" style="fill:rgb(170,188,174);"/>
            <path d="M508.536,67.919C509.555,67.985 510.575,68.051 511.594,68.117C510.665,68.259 510.737,68.163 508.536,67.919Z" style="fill:rgb(112,123,124);fill-opacity:0.12;"/>
            <path d="M82.656,15.775C82.072,16.279 81.487,16.783 80.903,17.286C80.871,15.683 81.478,16.206 82.656,15.775Z" style="fill:rgb(69,72,64);fill-opacity:0.11;"/>
            <path d="M204.501,34.493L206.511,34.526C205.429,34.88 205.528,34.905 204.501,34.493Z" style="fill:rgb(142,176,195);"/>
            <path d="M564.396,24.041C565.555,24.462 565.569,24.366 565.89,25.561L564.396,24.041Z" style="fill:rgb(155,180,165);"/>
            <path d="M428.565,43.55C428.836,43.908 429.108,44.266 429.379,44.624C428.468,44.669 428.522,44.594 428.565,43.55Z" style="fill:rgb(153,187,197);"/>
            <path d="M5.6,19.638C4.953,20.003 4.306,20.368 3.659,20.733C4.306,20.368 4.953,20.003 5.6,19.638Z" style="fill:rgb(143,176,197);"/>
            <path d="M511.594,68.117C512.471,68.109 513.347,68.101 514.224,68.093C512.828,68.357 513,68.329 511.594,68.117Z" style="fill:rgb(138,151,150);fill-opacity:0.28;"/>
            <path d="M261.557,60.449C262.17,60.865 262.783,61.281 263.395,61.696C262.783,61.281 262.17,60.865 261.557,60.449Z" style="fill:rgb(115,138,151);fill-opacity:0.17;"/>
            <path d="M824.258,40.71C824.539,41.375 824.821,42.039 825.103,42.704C824.821,42.039 824.539,41.375 824.258,40.71Z" style="fill:rgb(112,130,131);fill-opacity:0.11;"/>
            <path d="M729.624,44.894C728.981,45.18 728.339,45.467 727.697,45.753C728.339,45.467 728.981,45.18 729.624,44.894Z" style="fill:rgb(116,131,136);fill-opacity:0.1;"/>
            <path d="M626.282,43.349L626.751,44.39C625.813,44.555 625.977,44.235 626.282,43.349Z" style="fill:rgb(189,198,177);"/>
            <path d="M561.689,25.668C561.561,26.256 561.433,26.844 561.305,27.431L560.93,27.626C560.98,26.44 560.925,26.579 561.689,25.668Z" style="fill:rgb(155,180,166);"/>
            <path d="M570.894,24.88C569.682,25.185 569.764,25.241 569.682,25.185C568.68,24.506 569.852,25.142 570.894,24.88Z" style="fill:rgb(155,180,166);"/>
            <path d="M185.447,56.734C186.125,57.025 186.802,57.315 187.48,57.606C186.802,57.315 186.125,57.025 185.447,56.734Z" style="fill:rgb(97,110,118);fill-opacity:0.13;"/>
            <path d="M846.21,34.553C846.081,33.409 846.053,33.549 845.982,32.533C845.908,31.464 846.063,33.471 846.21,34.553Z" style="fill:rgb(153,186,198);"/>
            <path d="M591.517,10.054C592.295,10.226 591.817,9.308 592.482,9.455C593.43,9.665 592.346,9.54 591.517,10.054Z" style="fill:rgb(155,180,165);"/>
            <path d="M203.217,38.37C203.087,39.088 202.957,39.806 202.827,40.524C202.772,39.608 202.866,39.728 203.217,38.37Z" style="fill:rgb(143,176,195);"/>
            <path d="M26.45,30.622L27.32,30.208L26.728,31.216L26.45,30.622Z" style="fill:rgb(143,176,195);"/>
        </g>
    </g>
</svg>
